<?xml version="1.0" encoding="UTF-8" standalone="no"?>
<!-- Created with Inkscape (http://www.inkscape.org/) -->

<svg
   xmlns:dc="http://purl.org/dc/elements/1.1/"
   xmlns:cc="http://creativecommons.org/ns#"
   xmlns:rdf="http://www.w3.org/1999/02/22-rdf-syntax-ns#"
   xmlns:svg="http://www.w3.org/2000/svg"
   xmlns="http://www.w3.org/2000/svg"
   xmlns:sodipodi="http://sodipodi.sourceforge.net/DTD/sodipodi-0.dtd"
   xmlns:inkscape="http://www.inkscape.org/namespaces/inkscape"
   width="1530"
   height="765"
   id="svg9239"
   version="1.1"
   inkscape:version="0.48.4 r9939"
   sodipodi:docname="laser_temp6mm.svg">
  <defs
     id="defs9241" />
  <sodipodi:namedview
     id="base"
     pagecolor="#ffffff"
     bordercolor="#666666"
     borderopacity="1.0"
     inkscape:pageopacity="0.0"
     inkscape:pageshadow="2"
     inkscape:zoom="0.35"
     inkscape:cx="649.54217"
     inkscape:cy="524.24635"
     inkscape:document-units="px"
     inkscape:current-layer="layer1"
     showgrid="false"
     showborder="true"
     inkscape:window-width="1280"
     inkscape:window-height="698"
     inkscape:window-x="-8"
     inkscape:window-y="-8"
     inkscape:window-maximized="1"
     units="in"
     inkscape:snap-global="true">
    <inkscape:grid
       type="xygrid"
       id="grid3979" />
  </sodipodi:namedview>
  <metadata
     id="metadata9244">
    <rdf:RDF>
      <cc:Work
         rdf:about="">
        <dc:format>image/svg+xml</dc:format>
        <dc:type
           rdf:resource="http://purl.org/dc/dcmitype/StillImage" />
        <dc:title />
      </cc:Work>
    </rdf:RDF>
  </metadata>
  <g
     inkscape:label="Layer 1"
     inkscape:groupmode="layer"
     id="layer1"
     transform="translate(0,-287.35975)">
    <g
       transform="matrix(3.543307,0,0,3.543307,2413.532,-285.74241)"
       style="fill-rule:evenodd"
       id="_109202560">
      <path
         style="fill:none;stroke:#000000;stroke-width:0.17640001"
         inkscape:connector-curvature="0"
         d="m -631,304 c 0,-2.7609 2.2391,-5 5,-5 l 30,0 c 2.7609,0 5,2.2391 5,5 l 0,30 c 0,2.7609 -2.2391,5 -5,5 l -30,0 c -2.7609,0 -5,-2.2391 -5,-5 l 0,-30 z"
         class="fil0 str1"
         id="_109203976" />
      <path
         style="fill:none;stroke:#000000;stroke-width:0.17640001"
         inkscape:connector-curvature="0"
         d="m -626,302.5 c 0.8283,0 1.5,0.6717 1.5,1.5 0,0.8283 -0.6717,1.5 -1.5,1.5 -0.8283,0 -1.5,-0.6717 -1.5,-1.5 0,-0.8283 0.6717,-1.5 1.5,-1.5 z"
         class="fil0 str1"
         id="_109203688" />
      <path
         style="fill:none;stroke:#000000;stroke-width:0.17640001"
         inkscape:connector-curvature="0"
         d="m -596,332.5 c 0.8283,0 1.5,0.6717 1.5,1.5 0,0.8283 -0.6717,1.5 -1.5,1.5 -0.8283,0 -1.5,-0.6717 -1.5,-1.5 0,-0.8283 0.6717,-1.5 1.5,-1.5 z"
         class="fil0 str1"
         id="_109203712" />
      <path
         style="fill:none;stroke:#000000;stroke-width:0.17640001"
         inkscape:connector-curvature="0"
         d="m -626,332.5 c 0.8283,0 1.5,0.6717 1.5,1.5 0,0.8283 -0.6717,1.5 -1.5,1.5 -0.8283,0 -1.5,-0.6717 -1.5,-1.5 0,-0.8283 0.6717,-1.5 1.5,-1.5 z"
         class="fil0 str1"
         id="_109203544" />
      <path
         style="fill:none;stroke:#000000;stroke-width:0.17640001"
         inkscape:connector-curvature="0"
         d="m -596,302.5 c 0.8283,0 1.5,0.6717 1.5,1.5 0,0.8283 -0.6717,1.5 -1.5,1.5 -0.8283,0 -1.5,-0.6717 -1.5,-1.5 0,-0.8283 0.6717,-1.5 1.5,-1.5 z"
         class="fil0 str1"
         id="_109203304" />
      <path
         style="fill:none;stroke:#000000;stroke-width:0.17640001"
         inkscape:connector-curvature="0"
         d="m -611,308 c 6.0741,0 11,4.9259 11,11 0,6.0741 -4.9259,11 -11,11 -6.0741,0 -11,-4.9259 -11,-11 0,-6.0741 4.9259,-11 11,-11 z"
         class="fil0 str1"
         id="_109202584" />
    </g>
    <g
       transform="matrix(3.543307,0,0,3.543307,2413.532,-285.74241)"
       style="fill-rule:evenodd"
       id="_109201456">
      <path
         style="fill:none;stroke:#000000;stroke-width:0.17640001"
         inkscape:connector-curvature="0"
         d="m -631,261 c 0,-2.7609 2.2391,-5 5,-5 l 30,0 c 2.7609,0 5,2.2391 5,5 l 0,30 c 0,2.7609 -2.2391,5 -5,5 l -30,0 c -2.7609,0 -5,-2.2391 -5,-5 l 0,-30 z"
         class="fil0 str1"
         id="_109202368" />
      <path
         style="fill:none;stroke:#000000;stroke-width:0.17640001"
         inkscape:connector-curvature="0"
         d="m -626,259.5 c 0.8283,0 1.5,0.6717 1.5,1.5 0,0.8283 -0.6717,1.5 -1.5,1.5 -0.8283,0 -1.5,-0.6717 -1.5,-1.5 0,-0.8283 0.6717,-1.5 1.5,-1.5 z"
         class="fil0 str1"
         id="_109202200" />
      <path
         style="fill:none;stroke:#000000;stroke-width:0.17640001"
         inkscape:connector-curvature="0"
         d="m -596,289.5 c 0.8283,0 1.5,0.6717 1.5,1.5 0,0.8283 -0.6717,1.5 -1.5,1.5 -0.8283,0 -1.5,-0.6717 -1.5,-1.5 0,-0.8283 0.6717,-1.5 1.5,-1.5 z"
         class="fil0 str1"
         id="_109202032" />
      <path
         style="fill:none;stroke:#000000;stroke-width:0.17640001"
         inkscape:connector-curvature="0"
         d="m -626,289.5 c 0.8283,0 1.5,0.6717 1.5,1.5 0,0.8283 -0.6717,1.5 -1.5,1.5 -0.8283,0 -1.5,-0.6717 -1.5,-1.5 0,-0.8283 0.6717,-1.5 1.5,-1.5 z"
         class="fil0 str1"
         id="_109201864" />
      <path
         style="fill:none;stroke:#000000;stroke-width:0.17640001"
         inkscape:connector-curvature="0"
         d="m -596,259.5 c 0.8283,0 1.5,0.6717 1.5,1.5 0,0.8283 -0.6717,1.5 -1.5,1.5 -0.8283,0 -1.5,-0.6717 -1.5,-1.5 0,-0.8283 0.6717,-1.5 1.5,-1.5 z"
         class="fil0 str1"
         id="_109201672" />
      <path
         style="fill:none;stroke:#000000;stroke-width:0.17640001"
         inkscape:connector-curvature="0"
         d="m -611,265 c 6.0741,0 11,4.9259 11,11 0,6.0741 -4.9259,11 -11,11 -6.0741,0 -11,-4.9259 -11,-11 0,-6.0741 4.9259,-11 11,-11 z"
         class="fil0 str1"
         id="_109201504" />
    </g>
    <g
       transform="matrix(3.543307,0,0,3.543307,2413.532,-285.74241)"
       style="fill-rule:evenodd"
       id="_109201840">
      <path
         style="fill:none;stroke:#000000;stroke-width:0.17640001"
         inkscape:connector-curvature="0"
         d="m -631,175 c 0,-2.7609 2.2391,-5 5,-5 l 30,0 c 2.7609,0 5,2.2391 5,5 l 0,30 c 0,2.7609 -2.2391,5 -5,5 l -30,0 c -2.7609,0 -5,-2.2391 -5,-5 l 0,-30 z"
         class="fil0 str1"
         id="_109201336" />
      <path
         style="fill:none;stroke:#000000;stroke-width:0.17640001"
         inkscape:connector-curvature="0"
         d="m -626,173.5 c 0.8283,0 1.5,0.6717 1.5,1.5 0,0.8283 -0.6717,1.5 -1.5,1.5 -0.8283,0 -1.5,-0.6717 -1.5,-1.5 0,-0.8283 0.6717,-1.5 1.5,-1.5 z"
         class="fil0 str1"
         id="_109201360" />
      <path
         style="fill:none;stroke:#000000;stroke-width:0.17640001"
         inkscape:connector-curvature="0"
         d="m -596,203.5 c 0.8283,0 1.5,0.6717 1.5,1.5 0,0.8283 -0.6717,1.5 -1.5,1.5 -0.8283,0 -1.5,-0.6717 -1.5,-1.5 0,-0.8283 0.6717,-1.5 1.5,-1.5 z"
         class="fil0 str1"
         id="_109201744" />
      <path
         style="fill:none;stroke:#000000;stroke-width:0.17640001"
         inkscape:connector-curvature="0"
         d="m -626,203.5 c 0.8283,0 1.5,0.6717 1.5,1.5 0,0.8283 -0.6717,1.5 -1.5,1.5 -0.8283,0 -1.5,-0.6717 -1.5,-1.5 0,-0.8283 0.6717,-1.5 1.5,-1.5 z"
         class="fil0 str1"
         id="_109201528" />
      <path
         style="fill:none;stroke:#000000;stroke-width:0.17640001"
         inkscape:connector-curvature="0"
         d="m -596,173.5 c 0.8283,0 1.5,0.6717 1.5,1.5 0,0.8283 -0.6717,1.5 -1.5,1.5 -0.8283,0 -1.5,-0.6717 -1.5,-1.5 0,-0.8283 0.6717,-1.5 1.5,-1.5 z"
         class="fil0 str1"
         id="_109201648" />
      <path
         style="fill:none;stroke:#000000;stroke-width:0.17640001"
         inkscape:connector-curvature="0"
         d="m -611,179 c 6.0741,0 11,4.9259 11,11 0,6.0741 -4.9259,11 -11,11 -6.0741,0 -11,-4.9259 -11,-11 0,-6.0741 4.9259,-11 11,-11 z"
         class="fil0 str1"
         id="_109201792" />
    </g>
    <g
       transform="matrix(3.543307,0,0,3.543307,2413.532,-285.74241)"
       style="fill-rule:evenodd"
       id="_109202656">
      <path
         style="fill:none;stroke:#000000;stroke-width:0.17640001"
         inkscape:connector-curvature="0"
         d="m -631,218 c 0,-2.7609 2.2391,-5 5,-5 l 30,0 c 2.7609,0 5,2.2391 5,5 l 0,30 c 0,2.7609 -2.2391,5 -5,5 l -30,0 c -2.7609,0 -5,-2.2391 -5,-5 l 0,-30 z"
         class="fil0 str1"
         id="_109201960" />
      <path
         style="fill:none;stroke:#000000;stroke-width:0.17640001"
         inkscape:connector-curvature="0"
         d="m -626,216.5 c 0.8283,0 1.5,0.6717 1.5,1.5 0,0.8283 -0.6717,1.5 -1.5,1.5 -0.8283,0 -1.5,-0.6717 -1.5,-1.5 0,-0.8283 0.6717,-1.5 1.5,-1.5 z"
         class="fil0 str1"
         id="_109202320" />
      <path
         style="fill:none;stroke:#000000;stroke-width:0.17640001"
         inkscape:connector-curvature="0"
         d="m -596,246.5 c 0.8283,0 1.5,0.6717 1.5,1.5 0,0.8283 -0.6717,1.5 -1.5,1.5 -0.8283,0 -1.5,-0.6717 -1.5,-1.5 0,-0.8283 0.6717,-1.5 1.5,-1.5 z"
         class="fil0 str1"
         id="_109202224" />
      <path
         style="fill:none;stroke:#000000;stroke-width:0.17640001"
         inkscape:connector-curvature="0"
         d="m -626,246.5 c 0.8283,0 1.5,0.6717 1.5,1.5 0,0.8283 -0.6717,1.5 -1.5,1.5 -0.8283,0 -1.5,-0.6717 -1.5,-1.5 0,-0.8283 0.6717,-1.5 1.5,-1.5 z"
         class="fil0 str1"
         id="_109202392" />
      <path
         style="fill:none;stroke:#000000;stroke-width:0.17640001"
         inkscape:connector-curvature="0"
         d="m -596,216.5 c 0.8283,0 1.5,0.6717 1.5,1.5 0,0.8283 -0.6717,1.5 -1.5,1.5 -0.8283,0 -1.5,-0.6717 -1.5,-1.5 0,-0.8283 0.6717,-1.5 1.5,-1.5 z"
         class="fil0 str1"
         id="_109202488" />
      <path
         style="fill:none;stroke:#000000;stroke-width:0.17640001"
         inkscape:connector-curvature="0"
         d="m -611,222 c 6.0741,0 11,4.9259 11,11 0,6.0741 -4.9259,11 -11,11 -6.0741,0 -11,-4.9259 -11,-11 0,-6.0741 4.9259,-11 11,-11 z"
         class="fil0 str1"
         id="_109203376" />
    </g>
    <g
       id="g3129"
       transform="translate(-131.42857,-117.14286)">
      <g
         id="_109200880"
         style="fill-rule:evenodd"
         transform="matrix(3.543307,0,0,3.543307,2544.9606,-168.59955)">
        <path
           id="_109203208"
           class="fil0 str1"
           d="m -588,304 c 0,-2.7609 2.2391,-5 5,-5 l 30,0 c 2.7609,0 5,2.2391 5,5 l 0,30 c 0,2.7609 -2.2391,5 -5,5 l -30,0 c -2.7609,0 -5,-2.2391 -5,-5 l 0,-30 z"
           inkscape:connector-curvature="0"
           style="fill:none;stroke:#000000;stroke-width:0.17640001" />
        <path
           id="_109203568"
           class="fil0 str1"
           d="m -583,302.5 c 0.8283,0 1.5,0.6717 1.5,1.5 0,0.8283 -0.6717,1.5 -1.5,1.5 -0.8283,0 -1.5,-0.6717 -1.5,-1.5 0,-0.8283 0.6717,-1.5 1.5,-1.5 z"
           inkscape:connector-curvature="0"
           style="fill:none;stroke:#000000;stroke-width:0.17640001" />
        <path
           id="_109203760"
           class="fil0 str1"
           d="m -553,332.5 c 0.8283,0 1.5,0.6717 1.5,1.5 0,0.8283 -0.6717,1.5 -1.5,1.5 -0.8283,0 -1.5,-0.6717 -1.5,-1.5 0,-0.8283 0.6717,-1.5 1.5,-1.5 z"
           inkscape:connector-curvature="0"
           style="fill:none;stroke:#000000;stroke-width:0.17640001" />
        <path
           id="_109203928"
           class="fil0 str1"
           d="m -583,332.5 c 0.8283,0 1.5,0.6717 1.5,1.5 0,0.8283 -0.6717,1.5 -1.5,1.5 -0.8283,0 -1.5,-0.6717 -1.5,-1.5 0,-0.8283 0.6717,-1.5 1.5,-1.5 z"
           inkscape:connector-curvature="0"
           style="fill:none;stroke:#000000;stroke-width:0.17640001" />
        <path
           id="_109200520"
           class="fil0 str1"
           d="m -553,302.5 c 0.8283,0 1.5,0.6717 1.5,1.5 0,0.8283 -0.6717,1.5 -1.5,1.5 -0.8283,0 -1.5,-0.6717 -1.5,-1.5 0,-0.8283 0.6717,-1.5 1.5,-1.5 z"
           inkscape:connector-curvature="0"
           style="fill:none;stroke:#000000;stroke-width:0.17640001" />
        <path
           id="_109200688"
           class="fil0 str1"
           d="m -568,308 c 6.0741,0 11,4.9259 11,11 0,6.0741 -4.9259,11 -11,11 -6.0741,0 -11,-4.9259 -11,-11 0,-6.0741 4.9259,-11 11,-11 z"
           inkscape:connector-curvature="0"
           style="fill:none;stroke:#000000;stroke-width:0.17640001" />
      </g>
      <g
         id="_109204864"
         style="fill-rule:evenodd"
         transform="matrix(3.543307,0,0,3.543307,2544.9606,-168.59955)">
        <path
           id="_109204120"
           class="fil0 str1"
           d="m -588,261 c 0,-2.7609 2.2391,-5 5,-5 l 30,0 c 2.7609,0 5,2.2391 5,5 l 0,30 c 0,2.7609 -2.2391,5 -5,5 l -30,0 c -2.7609,0 -5,-2.2391 -5,-5 l 0,-30 z"
           inkscape:connector-curvature="0"
           style="fill:none;stroke:#000000;stroke-width:0.17640001" />
        <path
           id="_109204288"
           class="fil0 str1"
           d="m -583,259.5 c 0.8283,0 1.5,0.6717 1.5,1.5 0,0.8283 -0.6717,1.5 -1.5,1.5 -0.8283,0 -1.5,-0.6717 -1.5,-1.5 0,-0.8283 0.6717,-1.5 1.5,-1.5 z"
           inkscape:connector-curvature="0"
           style="fill:none;stroke:#000000;stroke-width:0.17640001" />
        <path
           id="_109204456"
           class="fil0 str1"
           d="m -553,289.5 c 0.8283,0 1.5,0.6717 1.5,1.5 0,0.8283 -0.6717,1.5 -1.5,1.5 -0.8283,0 -1.5,-0.6717 -1.5,-1.5 0,-0.8283 0.6717,-1.5 1.5,-1.5 z"
           inkscape:connector-curvature="0"
           style="fill:none;stroke:#000000;stroke-width:0.17640001" />
        <path
           id="_109204624"
           class="fil0 str1"
           d="m -583,289.5 c 0.8283,0 1.5,0.6717 1.5,1.5 0,0.8283 -0.6717,1.5 -1.5,1.5 -0.8283,0 -1.5,-0.6717 -1.5,-1.5 0,-0.8283 0.6717,-1.5 1.5,-1.5 z"
           inkscape:connector-curvature="0"
           style="fill:none;stroke:#000000;stroke-width:0.17640001" />
        <path
           id="_109204792"
           class="fil0 str1"
           d="m -553,259.5 c 0.8283,0 1.5,0.6717 1.5,1.5 0,0.8283 -0.6717,1.5 -1.5,1.5 -0.8283,0 -1.5,-0.6717 -1.5,-1.5 0,-0.8283 0.6717,-1.5 1.5,-1.5 z"
           inkscape:connector-curvature="0"
           style="fill:none;stroke:#000000;stroke-width:0.17640001" />
        <path
           id="_109204960"
           class="fil0 str1"
           d="m -568,265 c 6.0741,0 11,4.9259 11,11 0,6.0741 -4.9259,11 -11,11 -6.0741,0 -11,-4.9259 -11,-11 0,-6.0741 4.9259,-11 11,-11 z"
           inkscape:connector-curvature="0"
           style="fill:none;stroke:#000000;stroke-width:0.17640001" />
      </g>
      <path
         style="fill:none;stroke:#000000;stroke-width:0.6250394"
         inkscape:connector-curvature="0"
         d="m 461.49608,451.47917 c 0,-9.78271 7.93382,-17.71653 17.71654,-17.71653 l 106.29921,0 c 9.78272,0 17.71653,7.93382 17.71653,17.71653 l 0,106.29921 c 0,9.78272 -7.93381,17.71654 -17.71653,17.71654 l -106.29921,0 c -9.78272,0 -17.71654,-7.93382 -17.71654,-17.71654 l 0,-106.29921 z"
         class="fil0 str1"
         id="_109205032" />
      <path
         style="fill:none;stroke:#000000;stroke-width:0.6250394"
         inkscape:connector-curvature="0"
         d="m 479.21262,446.16421 c 2.93492,0 5.31496,2.38004 5.31496,5.31496 0,2.93493 -2.38004,5.31497 -5.31496,5.31497 -2.93492,0 -5.31496,-2.38004 -5.31496,-5.31497 0,-2.93492 2.38004,-5.31496 5.31496,-5.31496 z"
         class="fil0 str1"
         id="_109199728" />
      <path
         style="fill:none;stroke:#000000;stroke-width:0.6250394"
         inkscape:connector-curvature="0"
         d="m 585.51183,552.46342 c 2.93492,0 5.31496,2.38004 5.31496,5.31496 0,2.93493 -2.38004,5.31497 -5.31496,5.31497 -2.93492,0 -5.31496,-2.38004 -5.31496,-5.31497 0,-2.93492 2.38004,-5.31496 5.31496,-5.31496 z"
         class="fil0 str1"
         id="_109199896" />
      <path
         style="fill:none;stroke:#000000;stroke-width:0.6250394"
         inkscape:connector-curvature="0"
         d="m 479.21262,552.46342 c 2.93492,0 5.31496,2.38004 5.31496,5.31496 0,2.93493 -2.38004,5.31497 -5.31496,5.31497 -2.93492,0 -5.31496,-2.38004 -5.31496,-5.31497 0,-2.93492 2.38004,-5.31496 5.31496,-5.31496 z"
         class="fil0 str1"
         id="_109200064" />
      <path
         style="fill:none;stroke:#000000;stroke-width:0.6250394"
         inkscape:connector-curvature="0"
         d="m 585.51183,446.16421 c 2.93492,0 5.31496,2.38004 5.31496,5.31496 0,2.93493 -2.38004,5.31497 -5.31496,5.31497 -2.93492,0 -5.31496,-2.38004 -5.31496,-5.31497 0,-2.93492 2.38004,-5.31496 5.31496,-5.31496 z"
         class="fil0 str1"
         id="_109200232" />
      <path
         style="fill:none;stroke:#000000;stroke-width:0.6250394"
         inkscape:connector-curvature="0"
         d="m 532.36222,465.6524 c 21.52241,0 38.97638,17.45398 38.97638,38.97638 0,21.5224 -17.45397,38.97638 -38.97638,38.97638 -21.5224,0 -38.97637,-17.45398 -38.97637,-38.97638 0,-21.5224 17.45397,-38.97638 38.97637,-38.97638 z"
         class="fil0 str1"
         id="_109200400" />
      <g
         id="_109199320"
         style="fill-rule:evenodd"
         transform="matrix(3.543307,0,0,3.543307,2544.9606,-168.59955)">
        <path
           id="_109202944"
           class="fil0 str1"
           d="m -588,218 c 0,-2.7609 2.2391,-5 5,-5 l 30,0 c 2.7609,0 5,2.2391 5,5 l 0,30 c 0,2.7609 -2.2391,5 -5,5 l -30,0 c -2.7609,0 -5,-2.2391 -5,-5 l 0,-30 z"
           inkscape:connector-curvature="0"
           style="fill:none;stroke:#000000;stroke-width:0.17640001" />
        <path
           id="_109203112"
           class="fil0 str1"
           d="m -583,216.5 c 0.8283,0 1.5,0.6717 1.5,1.5 0,0.8283 -0.6717,1.5 -1.5,1.5 -0.8283,0 -1.5,-0.6717 -1.5,-1.5 0,-0.8283 0.6717,-1.5 1.5,-1.5 z"
           inkscape:connector-curvature="0"
           style="fill:none;stroke:#000000;stroke-width:0.17640001" />
        <path
           id="_109205272"
           class="fil0 str1"
           d="m -553,246.5 c 0.8283,0 1.5,0.6717 1.5,1.5 0,0.8283 -0.6717,1.5 -1.5,1.5 -0.8283,0 -1.5,-0.6717 -1.5,-1.5 0,-0.8283 0.6717,-1.5 1.5,-1.5 z"
           inkscape:connector-curvature="0"
           style="fill:none;stroke:#000000;stroke-width:0.17640001" />
        <path
           id="_109198912"
           class="fil0 str1"
           d="m -583,246.5 c 0.8283,0 1.5,0.6717 1.5,1.5 0,0.8283 -0.6717,1.5 -1.5,1.5 -0.8283,0 -1.5,-0.6717 -1.5,-1.5 0,-0.8283 0.6717,-1.5 1.5,-1.5 z"
           inkscape:connector-curvature="0"
           style="fill:none;stroke:#000000;stroke-width:0.17640001" />
        <path
           id="_109199080"
           class="fil0 str1"
           d="m -553,216.5 c 0.8283,0 1.5,0.6717 1.5,1.5 0,0.8283 -0.6717,1.5 -1.5,1.5 -0.8283,0 -1.5,-0.6717 -1.5,-1.5 0,-0.8283 0.6717,-1.5 1.5,-1.5 z"
           inkscape:connector-curvature="0"
           style="fill:none;stroke:#000000;stroke-width:0.17640001" />
        <path
           id="_109199248"
           class="fil0 str1"
           d="m -568,222 c 6.0741,0 11,4.9259 11,11 0,6.0741 -4.9259,11 -11,11 -6.0741,0 -11,-4.9259 -11,-11 0,-6.0741 4.9259,-11 11,-11 z"
           inkscape:connector-curvature="0"
           style="fill:none;stroke:#000000;stroke-width:0.17640001" />
      </g>
    </g>
    <g
       transform="matrix(3.543307,0,0,3.543307,2413.532,-285.74241)"
       style="fill-rule:evenodd"
       id="_200995368">
      <path
         style="fill:none;stroke:#000000;stroke-width:0.17640001"
         inkscape:connector-curvature="0"
         d="m -674,304 c 0,-2.7609 2.2391,-5 5,-5 l 30,0 c 2.7609,0 5,2.2391 5,5 l 0,30 c 0,2.7609 -2.2391,5 -5,5 l -30,0 c -2.7609,0 -5,-2.2391 -5,-5 l 0,-30 z"
         class="fil0 str1"
         id="_200994696" />
      <path
         style="fill:none;stroke:#000000;stroke-width:0.17640001"
         inkscape:connector-curvature="0"
         d="m -669,302.5 c 0.8283,0 1.5,0.6717 1.5,1.5 0,0.8283 -0.6717,1.5 -1.5,1.5 -0.8283,0 -1.5,-0.6717 -1.5,-1.5 0,-0.8283 0.6717,-1.5 1.5,-1.5 z"
         class="fil0 str1"
         id="_200994840" />
      <path
         style="fill:none;stroke:#000000;stroke-width:0.17640001"
         inkscape:connector-curvature="0"
         d="m -639,332.5 c 0.8283,0 1.5,0.6717 1.5,1.5 0,0.8283 -0.6717,1.5 -1.5,1.5 -0.8283,0 -1.5,-0.6717 -1.5,-1.5 0,-0.8283 0.6717,-1.5 1.5,-1.5 z"
         class="fil0 str1"
         id="_200994936" />
      <path
         style="fill:none;stroke:#000000;stroke-width:0.17640001"
         inkscape:connector-curvature="0"
         d="m -669,332.5 c 0.8283,0 1.5,0.6717 1.5,1.5 0,0.8283 -0.6717,1.5 -1.5,1.5 -0.8283,0 -1.5,-0.6717 -1.5,-1.5 0,-0.8283 0.6717,-1.5 1.5,-1.5 z"
         class="fil0 str1"
         id="_200995056" />
      <path
         style="fill:none;stroke:#000000;stroke-width:0.17640001"
         inkscape:connector-curvature="0"
         d="m -639,302.5 c 0.8283,0 1.5,0.6717 1.5,1.5 0,0.8283 -0.6717,1.5 -1.5,1.5 -0.8283,0 -1.5,-0.6717 -1.5,-1.5 0,-0.8283 0.6717,-1.5 1.5,-1.5 z"
         class="fil0 str1"
         id="_200995152" />
      <path
         style="fill:none;stroke:#000000;stroke-width:0.17640001"
         inkscape:connector-curvature="0"
         d="m -654,308 c 6.0741,0 11,4.9259 11,11 0,6.0741 -4.9259,11 -11,11 -6.0741,0 -11,-4.9259 -11,-11 0,-6.0741 4.9259,-11 11,-11 z"
         class="fil0 str1"
         id="_200995320" />
    </g>
    <g
       transform="matrix(3.543307,0,0,3.543307,2413.532,-285.74241)"
       style="fill-rule:evenodd"
       id="_200996352">
      <path
         style="fill:none;stroke:#000000;stroke-width:0.17640001"
         inkscape:connector-curvature="0"
         d="m -674,261 c 0,-2.7609 2.2391,-5 5,-5 l 30,0 c 2.7609,0 5,2.2391 5,5 l 0,30 c 0,2.7609 -2.2391,5 -5,5 l -30,0 c -2.7609,0 -5,-2.2391 -5,-5 l 0,-30 z"
         class="fil0 str1"
         id="_200995536" />
      <path
         style="fill:none;stroke:#000000;stroke-width:0.17640001"
         inkscape:connector-curvature="0"
         d="m -669,259.5 c 0.8283,0 1.5,0.6717 1.5,1.5 0,0.8283 -0.6717,1.5 -1.5,1.5 -0.8283,0 -1.5,-0.6717 -1.5,-1.5 0,-0.8283 0.6717,-1.5 1.5,-1.5 z"
         class="fil0 str1"
         id="_200995680" />
      <path
         style="fill:none;stroke:#000000;stroke-width:0.17640001"
         inkscape:connector-curvature="0"
         d="m -639,289.5 c 0.8283,0 1.5,0.6717 1.5,1.5 0,0.8283 -0.6717,1.5 -1.5,1.5 -0.8283,0 -1.5,-0.6717 -1.5,-1.5 0,-0.8283 0.6717,-1.5 1.5,-1.5 z"
         class="fil0 str1"
         id="_200995848" />
      <path
         style="fill:none;stroke:#000000;stroke-width:0.17640001"
         inkscape:connector-curvature="0"
         d="m -669,289.5 c 0.8283,0 1.5,0.6717 1.5,1.5 0,0.8283 -0.6717,1.5 -1.5,1.5 -0.8283,0 -1.5,-0.6717 -1.5,-1.5 0,-0.8283 0.6717,-1.5 1.5,-1.5 z"
         class="fil0 str1"
         id="_200995992" />
      <path
         style="fill:none;stroke:#000000;stroke-width:0.17640001"
         inkscape:connector-curvature="0"
         d="m -639,259.5 c 0.8283,0 1.5,0.6717 1.5,1.5 0,0.8283 -0.6717,1.5 -1.5,1.5 -0.8283,0 -1.5,-0.6717 -1.5,-1.5 0,-0.8283 0.6717,-1.5 1.5,-1.5 z"
         class="fil0 str1"
         id="_200996160" />
      <path
         style="fill:none;stroke:#000000;stroke-width:0.17640001"
         inkscape:connector-curvature="0"
         d="m -654,265 c 6.0741,0 11,4.9259 11,11 0,6.0741 -4.9259,11 -11,11 -6.0741,0 -11,-4.9259 -11,-11 0,-6.0741 4.9259,-11 11,-11 z"
         class="fil0 str1"
         id="_200996304" />
    </g>
    <g
       transform="matrix(3.543307,0,0,3.543307,2413.532,-285.74241)"
       style="fill-rule:evenodd"
       id="_200997336">
      <path
         style="fill:none;stroke:#000000;stroke-width:0.17640001"
         inkscape:connector-curvature="0"
         d="m -674,175 c 0,-2.7609 2.2391,-5 5,-5 l 30,0 c 2.7609,0 5,2.2391 5,5 l 0,30 c 0,2.7609 -2.2391,5 -5,5 l -30,0 c -2.7609,0 -5,-2.2391 -5,-5 l 0,-30 z"
         class="fil0 str1"
         id="_200996496" />
      <path
         style="fill:none;stroke:#000000;stroke-width:0.17640001"
         inkscape:connector-curvature="0"
         d="m -669,173.5 c 0.8283,0 1.5,0.6717 1.5,1.5 0,0.8283 -0.6717,1.5 -1.5,1.5 -0.8283,0 -1.5,-0.6717 -1.5,-1.5 0,-0.8283 0.6717,-1.5 1.5,-1.5 z"
         class="fil0 str1"
         id="_200996592" />
      <path
         style="fill:none;stroke:#000000;stroke-width:0.17640001"
         inkscape:connector-curvature="0"
         d="m -639,203.5 c 0.8283,0 1.5,0.6717 1.5,1.5 0,0.8283 -0.6717,1.5 -1.5,1.5 -0.8283,0 -1.5,-0.6717 -1.5,-1.5 0,-0.8283 0.6717,-1.5 1.5,-1.5 z"
         class="fil0 str1"
         id="_200996784" />
      <path
         style="fill:none;stroke:#000000;stroke-width:0.17640001"
         inkscape:connector-curvature="0"
         d="m -669,203.5 c 0.8283,0 1.5,0.6717 1.5,1.5 0,0.8283 -0.6717,1.5 -1.5,1.5 -0.8283,0 -1.5,-0.6717 -1.5,-1.5 0,-0.8283 0.6717,-1.5 1.5,-1.5 z"
         class="fil0 str1"
         id="_200996952" />
      <path
         style="fill:none;stroke:#000000;stroke-width:0.17640001"
         inkscape:connector-curvature="0"
         d="m -639,173.5 c 0.8283,0 1.5,0.6717 1.5,1.5 0,0.8283 -0.6717,1.5 -1.5,1.5 -0.8283,0 -1.5,-0.6717 -1.5,-1.5 0,-0.8283 0.6717,-1.5 1.5,-1.5 z"
         class="fil0 str1"
         id="_200997168" />
      <path
         style="fill:none;stroke:#000000;stroke-width:0.17640001"
         inkscape:connector-curvature="0"
         d="m -654,179 c 6.0741,0 11,4.9259 11,11 0,6.0741 -4.9259,11 -11,11 -6.0741,0 -11,-4.9259 -11,-11 0,-6.0741 4.9259,-11 11,-11 z"
         class="fil0 str1"
         id="_200997288" />
    </g>
    <g
       transform="matrix(3.543307,0,0,3.543307,2413.532,-285.74241)"
       style="fill-rule:evenodd"
       id="_200998152">
      <path
         style="fill:none;stroke:#000000;stroke-width:0.17640001"
         inkscape:connector-curvature="0"
         d="m -674,218 c 0,-2.7609 2.2391,-5 5,-5 l 30,0 c 2.7609,0 5,2.2391 5,5 l 0,30 c 0,2.7609 -2.2391,5 -5,5 l -30,0 c -2.7609,0 -5,-2.2391 -5,-5 l 0,-30 z"
         class="fil0 str1"
         id="_200997432" />
      <path
         style="fill:none;stroke:#000000;stroke-width:0.17640001"
         inkscape:connector-curvature="0"
         d="m -669,216.5 c 0.8283,0 1.5,0.6717 1.5,1.5 0,0.8283 -0.6717,1.5 -1.5,1.5 -0.8283,0 -1.5,-0.6717 -1.5,-1.5 0,-0.8283 0.6717,-1.5 1.5,-1.5 z"
         class="fil0 str1"
         id="_200997552" />
      <path
         style="fill:none;stroke:#000000;stroke-width:0.17640001"
         inkscape:connector-curvature="0"
         d="m -639,246.5 c 0.8283,0 1.5,0.6717 1.5,1.5 0,0.8283 -0.6717,1.5 -1.5,1.5 -0.8283,0 -1.5,-0.6717 -1.5,-1.5 0,-0.8283 0.6717,-1.5 1.5,-1.5 z"
         class="fil0 str1"
         id="_200997720" />
      <path
         style="fill:none;stroke:#000000;stroke-width:0.17640001"
         inkscape:connector-curvature="0"
         d="m -669,246.5 c 0.8283,0 1.5,0.6717 1.5,1.5 0,0.8283 -0.6717,1.5 -1.5,1.5 -0.8283,0 -1.5,-0.6717 -1.5,-1.5 0,-0.8283 0.6717,-1.5 1.5,-1.5 z"
         class="fil0 str1"
         id="_200997816" />
      <path
         style="fill:none;stroke:#000000;stroke-width:0.17640001"
         inkscape:connector-curvature="0"
         d="m -639,216.5 c 0.8283,0 1.5,0.6717 1.5,1.5 0,0.8283 -0.6717,1.5 -1.5,1.5 -0.8283,0 -1.5,-0.6717 -1.5,-1.5 0,-0.8283 0.6717,-1.5 1.5,-1.5 z"
         class="fil0 str1"
         id="_200997960" />
      <path
         style="fill:none;stroke:#000000;stroke-width:0.17640001"
         inkscape:connector-curvature="0"
         d="m -654,222 c 6.0741,0 11,4.9259 11,11 0,6.0741 -4.9259,11 -11,11 -6.0741,0 -11,-4.9259 -11,-11 0,-6.0741 4.9259,-11 11,-11 z"
         class="fil0 str1"
         id="_200998104" />
    </g>
    <g
       id="g4154"
       transform="matrix(0,1,-1,0,1574.8803,-755.89343)">
      <g
         id="_201002736"
         style="fill-rule:evenodd"
         transform="matrix(3.543307,0,0,3.543307,3467.9571,-74.972257)">
        <path
           id="_201009624"
           class="fil0 str1"
           d="m -631,131 c 0,-2.7609 2.2391,-5 5,-5 l 30,0 c 2.7609,0 5,2.2391 5,5 l 0,30 c 0,2.7609 -2.2391,5 -5,5 l -30,0 c -2.7609,0 -5,-2.2391 -5,-5 l 0,-30 z"
           inkscape:connector-curvature="0"
           style="fill:none;stroke:#000000;stroke-width:0.17640001" />
        <path
           id="_201010008"
           class="fil0 str1"
           d="m -626,129.5 c 0.8283,0 1.5,0.6717 1.5,1.5 0,0.8283 -0.6717,1.5 -1.5,1.5 -0.8283,0 -1.5,-0.6717 -1.5,-1.5 0,-0.8283 0.6717,-1.5 1.5,-1.5 z"
           inkscape:connector-curvature="0"
           style="fill:none;stroke:#000000;stroke-width:0.17640001" />
        <path
           id="_201010920"
           class="fil0 str1"
           d="m -596,159.5 c 0.8283,0 1.5,0.6717 1.5,1.5 0,0.8283 -0.6717,1.5 -1.5,1.5 -0.8283,0 -1.5,-0.6717 -1.5,-1.5 0,-0.8283 0.6717,-1.5 1.5,-1.5 z"
           inkscape:connector-curvature="0"
           style="fill:none;stroke:#000000;stroke-width:0.17640001" />
        <path
           id="_201004344"
           class="fil0 str1"
           d="m -626,159.5 c 0.8283,0 1.5,0.6717 1.5,1.5 0,0.8283 -0.6717,1.5 -1.5,1.5 -0.8283,0 -1.5,-0.6717 -1.5,-1.5 0,-0.8283 0.6717,-1.5 1.5,-1.5 z"
           inkscape:connector-curvature="0"
           style="fill:none;stroke:#000000;stroke-width:0.17640001" />
        <path
           id="_201002688"
           class="fil0 str1"
           d="m -596,129.5 c 0.8283,0 1.5,0.6717 1.5,1.5 0,0.8283 -0.6717,1.5 -1.5,1.5 -0.8283,0 -1.5,-0.6717 -1.5,-1.5 0,-0.8283 0.6717,-1.5 1.5,-1.5 z"
           inkscape:connector-curvature="0"
           style="fill:none;stroke:#000000;stroke-width:0.17640001" />
        <path
           id="_201002784"
           class="fil0 str1"
           d="m -611,135 c 6.0741,0 11,4.9259 11,11 0,6.0741 -4.9259,11 -11,11 -6.0741,0 -11,-4.9259 -11,-11 0,-6.0741 4.9259,-11 11,-11 z"
           inkscape:connector-curvature="0"
           style="fill:none;stroke:#000000;stroke-width:0.17640001" />
      </g>
      <g
         id="_200999232"
         style="fill-rule:evenodd"
         transform="matrix(3.543307,0,0,3.543307,3467.9571,-74.972257)">
        <path
           id="_200998320"
           class="fil0 str1"
           d="m -674,131 c 0,-2.7609 2.2391,-5 5,-5 l 30,0 c 2.7609,0 5,2.2391 5,5 l 0,30 c 0,2.7609 -2.2391,5 -5,5 l -30,0 c -2.7609,0 -5,-2.2391 -5,-5 l 0,-30 z"
           inkscape:connector-curvature="0"
           style="fill:none;stroke:#000000;stroke-width:0.17640001" />
        <path
           id="_200998536"
           class="fil0 str1"
           d="m -669,129.5 c 0.8283,0 1.5,0.6717 1.5,1.5 0,0.8283 -0.6717,1.5 -1.5,1.5 -0.8283,0 -1.5,-0.6717 -1.5,-1.5 0,-0.8283 0.6717,-1.5 1.5,-1.5 z"
           inkscape:connector-curvature="0"
           style="fill:none;stroke:#000000;stroke-width:0.17640001" />
        <path
           id="_200998704"
           class="fil0 str1"
           d="m -639,159.5 c 0.8283,0 1.5,0.6717 1.5,1.5 0,0.8283 -0.6717,1.5 -1.5,1.5 -0.8283,0 -1.5,-0.6717 -1.5,-1.5 0,-0.8283 0.6717,-1.5 1.5,-1.5 z"
           inkscape:connector-curvature="0"
           style="fill:none;stroke:#000000;stroke-width:0.17640001" />
        <path
           id="_200998848"
           class="fil0 str1"
           d="m -669,159.5 c 0.8283,0 1.5,0.6717 1.5,1.5 0,0.8283 -0.6717,1.5 -1.5,1.5 -0.8283,0 -1.5,-0.6717 -1.5,-1.5 0,-0.8283 0.6717,-1.5 1.5,-1.5 z"
           inkscape:connector-curvature="0"
           style="fill:none;stroke:#000000;stroke-width:0.17640001" />
        <path
           id="_200999016"
           class="fil0 str1"
           d="m -639,129.5 c 0.8283,0 1.5,0.6717 1.5,1.5 0,0.8283 -0.6717,1.5 -1.5,1.5 -0.8283,0 -1.5,-0.6717 -1.5,-1.5 0,-0.8283 0.6717,-1.5 1.5,-1.5 z"
           inkscape:connector-curvature="0"
           style="fill:none;stroke:#000000;stroke-width:0.17640001" />
        <path
           id="_200999184"
           class="fil0 str1"
           d="m -654,135 c 6.0741,0 11,4.9259 11,11 0,6.0741 -4.9259,11 -11,11 -6.0741,0 -11,-4.9259 -11,-11 0,-6.0741 4.9259,-11 11,-11 z"
           inkscape:connector-curvature="0"
           style="fill:none;stroke:#000000;stroke-width:0.17640001" />
      </g>
    </g>
    <g
       id="g4063"
       transform="translate(-154.28571,-222.85714)">
      <g
         id="_112755080"
         style="fill-rule:evenodd"
         transform="matrix(3.543307,0,0,3.543307,3959.1844,-183.93138)">
        <g
           id="g2482">
          <path
             id="_112756088"
             class="fil0 str1"
             d="m -848,252.5 c 0.8283,0 1.5,0.6717 1.5,1.5 0,0.8283 -0.6717,1.5 -1.5,1.5 -0.8283,0 -1.5,-0.6717 -1.5,-1.5 0,-0.8283 0.6717,-1.5 1.5,-1.5 z"
             inkscape:connector-curvature="0"
             style="fill:none;stroke:#000000;stroke-width:0.17640001" />
          <path
             id="_112756040"
             class="fil0 str1"
             d="m -818,282.5 c 0.8283,0 1.5,0.6717 1.5,1.5 0,0.8283 -0.6717,1.5 -1.5,1.5 -0.8283,0 -1.5,-0.6717 -1.5,-1.5 0,-0.8283 0.6717,-1.5 1.5,-1.5 z"
             inkscape:connector-curvature="0"
             style="fill:none;stroke:#000000;stroke-width:0.17640001" />
          <path
             id="_112755992"
             class="fil0 str1"
             d="m -848,282.5 c 0.8283,0 1.5,0.6717 1.5,1.5 0,0.8283 -0.6717,1.5 -1.5,1.5 -0.8283,0 -1.5,-0.6717 -1.5,-1.5 0,-0.8283 0.6717,-1.5 1.5,-1.5 z"
             inkscape:connector-curvature="0"
             style="fill:none;stroke:#000000;stroke-width:0.17640001" />
          <path
             id="_112755944"
             class="fil0 str1"
             d="m -818,252.5 c 0.8283,0 1.5,0.6717 1.5,1.5 0,0.8283 -0.6717,1.5 -1.5,1.5 -0.8283,0 -1.5,-0.6717 -1.5,-1.5 0,-0.8283 0.6717,-1.5 1.5,-1.5 z"
             inkscape:connector-curvature="0"
             style="fill:none;stroke:#000000;stroke-width:0.17640001" />
          <path
             id="_112755896"
             class="fil0 str1"
             d="m -833,259.5 c 5.2458,0 9.5,4.2542 9.5,9.5 0,5.2458 -4.2542,9.5 -9.5,9.5 -5.2458,0 -9.5,-4.2542 -9.5,-9.5 0,-5.2458 4.2542,-9.5 9.5,-9.5 z"
             inkscape:connector-curvature="0"
             style="fill:none;stroke:#000000;stroke-width:0.17640001" />
        </g>
        <g
           id="g2489">
          <path
             id="_112755824"
             class="fil0 str1"
             d="m -848,292.5 c 0.8283,0 1.5,0.6717 1.5,1.5 0,0.8283 -0.6717,1.5 -1.5,1.5 -0.8283,0 -1.5,-0.6717 -1.5,-1.5 0,-0.8283 0.6717,-1.5 1.5,-1.5 z"
             inkscape:connector-curvature="0"
             style="fill:none;stroke:#000000;stroke-width:0.17640001" />
          <path
             id="_112755776"
             class="fil0 str1"
             d="m -818,322.5 c 0.8283,0 1.5,0.6717 1.5,1.5 0,0.8283 -0.6717,1.5 -1.5,1.5 -0.8283,0 -1.5,-0.6717 -1.5,-1.5 0,-0.8283 0.6717,-1.5 1.5,-1.5 z"
             inkscape:connector-curvature="0"
             style="fill:none;stroke:#000000;stroke-width:0.17640001" />
          <path
             id="_112755728"
             class="fil0 str1"
             d="m -848,322.5 c 0.8283,0 1.5,0.6717 1.5,1.5 0,0.8283 -0.6717,1.5 -1.5,1.5 -0.8283,0 -1.5,-0.6717 -1.5,-1.5 0,-0.8283 0.6717,-1.5 1.5,-1.5 z"
             inkscape:connector-curvature="0"
             style="fill:none;stroke:#000000;stroke-width:0.17640001" />
          <path
             id="_112755680"
             class="fil0 str1"
             d="m -818,292.5 c 0.8283,0 1.5,0.6717 1.5,1.5 0,0.8283 -0.6717,1.5 -1.5,1.5 -0.8283,0 -1.5,-0.6717 -1.5,-1.5 0,-0.8283 0.6717,-1.5 1.5,-1.5 z"
             inkscape:connector-curvature="0"
             style="fill:none;stroke:#000000;stroke-width:0.17640001" />
          <path
             id="_112755632"
             class="fil0 str1"
             d="m -833,299.5 c 5.2458,0 9.5,4.2542 9.5,9.5 0,5.2458 -4.2542,9.5 -9.5,9.5 -5.2458,0 -9.5,-4.2542 -9.5,-9.5 0,-5.2458 4.2542,-9.5 9.5,-9.5 z"
             inkscape:connector-curvature="0"
             style="fill:none;stroke:#000000;stroke-width:0.17640001" />
        </g>
        <path
           id="_112755560"
           class="fil0 str0"
           d="m -803,298.875 0,-3 10,0 0,3 3.4,0 0,8 -1.6,0 0,3 1.6,0 0,2 3.2,0 0,-2 1.6,0 0,-3 -1.6,0 0,-8 3.4,0 0,-3 10,0 0,3 0,33.125 c 0,2.7609 -2.2391,5 -5,5 l -110,0 c -2.7609,0 -5,-2.2391 -5,-5 l 0,-33.125 0,-3 10,0 0,3 3.4,0 0,8 -1.6,0 0,3 1.6,0 0,2 3.2,0 0,-2 1.6,0 0,-3 -1.6,0 0,-8 3.4,0 0,-3 10,0 0,3 10,0 0,-44.875 c 0,-2.7609 2.2391,-5 5,-5 l 30,0 c 2.7609,0 5,2.2391 5,5 l 0,44.875 10,0 z"
           inkscape:connector-curvature="0"
           style="fill:none;stroke:#000000;stroke-width:0.0762" />
        <g
           id="g2497">
          <circle
             id="_112755512"
             class="fil0 str1"
             cx="-809.42999"
             cy="332.57001"
             r="2.605"
             sodipodi:cx="-809.42999"
             sodipodi:cy="332.57001"
             sodipodi:rx="2.605"
             sodipodi:ry="2.605"
             style="fill:none;stroke:#000000;stroke-width:0.17640001"
             d="m -806.82499,332.57001 c 0,1.4387 -1.1663,2.605 -2.605,2.605 -1.4387,0 -2.605,-1.1663 -2.605,-2.605 0,-1.4387 1.1663,-2.605 2.605,-2.605 1.4387,0 2.605,1.1663 2.605,2.605 z" />
          <circle
             id="_112755464"
             class="fil0 str1"
             cx="-856.57001"
             cy="332.57001"
             r="2.605"
             sodipodi:cx="-856.57001"
             sodipodi:cy="332.57001"
             sodipodi:rx="2.605"
             sodipodi:ry="2.605"
             style="fill:none;stroke:#000000;stroke-width:0.17640001"
             d="m -853.96501,332.57001 c 0,1.4387 -1.1663,2.605 -2.605,2.605 -1.4387,0 -2.605,-1.1663 -2.605,-2.605 0,-1.4387 1.1663,-2.605 2.605,-2.605 1.4387,0 2.605,1.1663 2.605,2.605 z" />
        </g>
        <g
           id="g2501">
          <rect
             id="_112755392"
             class="fil0 str0"
             x="-803"
             y="321"
             width="10"
             height="6"
             style="fill:none;stroke:#000000;stroke-width:0.0762" />
          <rect
             id="_112755344"
             class="fil0 str0"
             x="-783"
             y="321"
             width="10"
             height="6"
             style="fill:none;stroke:#000000;stroke-width:0.0762" />
          <circle
             id="_112755296"
             class="fil0 str0"
             cx="-788"
             cy="324"
             r="1.55"
             sodipodi:cx="-788"
             sodipodi:cy="324"
             sodipodi:rx="1.55"
             sodipodi:ry="1.55"
             style="fill:none;stroke:#000000;stroke-width:0.0762"
             d="m -786.45,324 c 0,0.85604 -0.69396,1.55 -1.55,1.55 -0.85604,0 -1.55,-0.69396 -1.55,-1.55 0,-0.85604 0.69396,-1.55 1.55,-1.55 0.85604,0 1.55,0.69396 1.55,1.55 z" />
        </g>
        <g
           id="g2506">
          <rect
             id="_112755224"
             class="fil0 str0"
             x="-893"
             y="321"
             width="10"
             height="6"
             style="fill:none;stroke:#000000;stroke-width:0.0762" />
          <rect
             id="_112755176"
             class="fil0 str0"
             x="-873"
             y="321"
             width="10"
             height="6"
             style="fill:none;stroke:#000000;stroke-width:0.0762" />
          <circle
             id="_112755128"
             class="fil0 str0"
             cx="-878"
             cy="324"
             r="1.55"
             sodipodi:cx="-878"
             sodipodi:cy="324"
             sodipodi:rx="1.55"
             sodipodi:ry="1.55"
             style="fill:none;stroke:#000000;stroke-width:0.0762"
             d="m -876.45,324 c 0,0.85604 -0.69396,1.55 -1.55,1.55 -0.85604,0 -1.55,-0.69396 -1.55,-1.55 0,-0.85604 0.69396,-1.55 1.55,-1.55 0.85604,0 1.55,0.69396 1.55,1.55 z" />
        </g>
      </g>
      <g
         transform="matrix(3.543307,0,0,3.543307,3959.1844,-183.93138)"
         id="g3270"
         style="fill-rule:evenodd">
        <path
           style="fill:none;stroke:#000000;stroke-width:0.17640001"
           inkscape:connector-curvature="0"
           d="m -861,290.5 c -0.8283,0 -1.5,-0.6717 -1.5,-1.5 0,-0.8283 0.6717,-1.5 1.5,-1.5 0.8283,0 1.5,0.6717 1.5,1.5 0,0.8283 -0.6717,1.5 -1.5,1.5 z"
           class="fil0 str1"
           id="_108779768" />
        <path
           style="fill:none;stroke:#000000;stroke-width:0.17640001"
           inkscape:connector-curvature="0"
           d="m -891,260.5 c -0.8283,0 -1.5,-0.6717 -1.5,-1.5 0,-0.8283 0.6717,-1.5 1.5,-1.5 0.8283,0 1.5,0.6717 1.5,1.5 0,0.8283 -0.6717,1.5 -1.5,1.5 z"
           class="fil0 str1"
           id="_108779720" />
        <path
           style="fill:none;stroke:#000000;stroke-width:0.17640001"
           inkscape:connector-curvature="0"
           d="m -861,260.5 c -0.8283,0 -1.5,-0.6717 -1.5,-1.5 0,-0.8283 0.6717,-1.5 1.5,-1.5 0.8283,0 1.5,0.6717 1.5,1.5 0,0.8283 -0.6717,1.5 -1.5,1.5 z"
           class="fil0 str1"
           id="_108779672" />
        <path
           style="fill:none;stroke:#000000;stroke-width:0.17640001"
           inkscape:connector-curvature="0"
           d="m -891,290.5 c -0.8283,0 -1.5,-0.6717 -1.5,-1.5 0,-0.8283 0.6717,-1.5 1.5,-1.5 0.8283,0 1.5,0.6717 1.5,1.5 0,0.8283 -0.6717,1.5 -1.5,1.5 z"
           class="fil0 str1"
           id="_108779624" />
        <path
           style="fill:none;stroke:#000000;stroke-width:0.17640001"
           inkscape:connector-curvature="0"
           d="m -876,283.5 c -5.2458,0 -9.5,-4.2542 -9.5,-9.5 0,-5.2458 4.2542,-9.5 9.5,-9.5 5.2458,0 9.5,4.2542 9.5,9.5 0,5.2458 -4.2542,9.5 -9.5,9.5 z"
           class="fil0 str1"
           id="_108779576" />
      </g>
      <path
         id="_108779504"
         class="fil0 str1"
         d="m 908.39707,703.66702 c -2.93492,0 -5.31496,-2.38004 -5.31496,-5.31496 0,-2.93492 2.38004,-5.31496 5.31496,-5.31496 2.93492,0 5.31496,2.38004 5.31496,5.31496 0,2.93492 -2.38004,5.31496 -5.31496,5.31496 z"
         inkscape:connector-curvature="0"
         style="fill:none;stroke:#000000;stroke-width:0.6250394" />
      <path
         id="_108779456"
         class="fil0 str1"
         d="m 802.09786,597.36781 c -2.93492,0 -5.31496,-2.38004 -5.31496,-5.31496 0,-2.93492 2.38004,-5.31496 5.31496,-5.31496 2.93492,0 5.31496,2.38004 5.31496,5.31496 0,2.93492 -2.38004,5.31496 -5.31496,5.31496 z"
         inkscape:connector-curvature="0"
         style="fill:none;stroke:#000000;stroke-width:0.6250394" />
      <path
         id="_108779408"
         class="fil0 str1"
         d="m 908.39707,597.36781 c -2.93492,0 -5.31496,-2.38004 -5.31496,-5.31496 0,-2.93492 2.38004,-5.31496 5.31496,-5.31496 2.93492,0 5.31496,2.38004 5.31496,5.31496 0,2.93492 -2.38004,5.31496 -5.31496,5.31496 z"
         inkscape:connector-curvature="0"
         style="fill:none;stroke:#000000;stroke-width:0.6250394" />
      <path
         id="_108779360"
         class="fil0 str1"
         d="m 802.09786,703.66702 c -2.93492,0 -5.31496,-2.38004 -5.31496,-5.31496 0,-2.93492 2.38004,-5.31496 5.31496,-5.31496 2.93492,0 5.31496,2.38004 5.31496,5.31496 0,2.93492 -2.38004,5.31496 -5.31496,5.31496 z"
         inkscape:connector-curvature="0"
         style="fill:none;stroke:#000000;stroke-width:0.6250394" />
      <path
         id="_108779312"
         class="fil0 str1"
         d="m 855.24747,678.86387 c -18.58748,0 -33.66142,-15.07393 -33.66142,-33.66141 0,-18.58748 15.07394,-33.66142 33.66142,-33.66142 18.58748,0 33.66141,15.07394 33.66141,33.66142 0,18.58748 -15.07393,33.66141 -33.66141,33.66141 z"
         inkscape:connector-curvature="0"
         style="fill:none;stroke:#000000;stroke-width:0.6250394" />
      <path
         style="fill:none;stroke:#000000;stroke-width:0.27000001"
         inkscape:connector-curvature="0"
         d="m 748.94826,681.07844 0,10.62992 -35.43307,0 0,-10.62992 -12.04725,0 0,-28.34645 5.6693,0 0,-10.62993 -5.6693,0 0,-7.08661 -11.33858,0 0,7.08661 -5.66929,0 0,10.62993 5.66929,0 0,28.34645 -12.04724,0 0,10.62992 -35.43307,0 0,-10.62992 0,-117.37204 c 0,-9.78272 7.93382,-17.71654 17.71653,-17.71654 l 389.76382,0 c 9.7827,0 17.7165,7.93382 17.7165,17.71654 l 0,117.37204 0,10.62992 -35.4331,0 0,-10.62992 -12.0472,0 0,-28.34645 5.6693,0 0,-10.62993 -5.6693,0 0,-7.08661 -11.3386,0 0,7.08661 -5.6693,0 0,10.62993 5.6693,0 0,28.34645 -12.04725,0 0,10.62992 -35.43307,0 0,-10.62992 -35.43307,0 0,159.0059 c 0,9.78272 -7.93382,17.71654 -17.71654,17.71654 l -106.29921,0 c -9.78271,0 -17.71653,-7.93382 -17.71653,-17.71654 l 0,-159.0059 -35.43307,0 z"
         class="fil0 str0"
         id="_108779240" />
      <g
         transform="matrix(3.543307,0,0,3.543307,3959.1844,-183.93138)"
         id="g3285"
         style="fill-rule:evenodd">
        <circle
           d="m -896.96501,210.42999 c 0,1.4387 -1.1663,2.605 -2.605,2.605 -1.4387,0 -2.605,-1.1663 -2.605,-2.605 0,-1.4387 1.1663,-2.605 2.605,-2.605 1.4387,0 2.605,1.1663 2.605,2.605 z"
           style="fill:none;stroke:#000000;stroke-width:0.17640001"
           sodipodi:ry="2.605"
           sodipodi:rx="2.605"
           sodipodi:cy="210.42999"
           sodipodi:cx="-899.57001"
           r="2.605"
           cy="210.42999"
           cx="-899.57001"
           class="fil0 str1"
           id="_108779192" />
        <circle
           d="m -849.82499,210.42999 c 0,1.4387 -1.1663,2.605 -2.605,2.605 -1.4387,0 -2.605,-1.1663 -2.605,-2.605 0,-1.4387 1.1663,-2.605 2.605,-2.605 1.4387,0 2.605,1.1663 2.605,2.605 z"
           style="fill:none;stroke:#000000;stroke-width:0.17640001"
           sodipodi:ry="2.605"
           sodipodi:rx="2.605"
           sodipodi:cy="210.42999"
           sodipodi:cx="-852.42999"
           r="2.605"
           cy="210.42999"
           cx="-852.42999"
           class="fil0 str1"
           id="_108779144" />
      </g>
      <g
         transform="matrix(3.543307,0,0,3.543307,3959.1844,-183.93138)"
         id="g3289"
         style="fill-rule:evenodd">
        <rect
           style="fill:none;stroke:#000000;stroke-width:0.0762"
           height="6"
           width="10"
           y="216"
           x="-916"
           class="fil0 str0"
           id="_108779072" />
        <rect
           style="fill:none;stroke:#000000;stroke-width:0.0762"
           height="6"
           width="10"
           y="216"
           x="-936"
           class="fil0 str0"
           id="_108779024" />
        <circle
           d="m -919.45,219 c 0,0.85604 -0.69396,1.55 -1.55,1.55 -0.85604,0 -1.55,-0.69396 -1.55,-1.55 0,-0.85604 0.69396,-1.55 1.55,-1.55 0.85604,0 1.55,0.69396 1.55,1.55 z"
           style="fill:none;stroke:#000000;stroke-width:0.0762"
           sodipodi:ry="1.55"
           sodipodi:rx="1.55"
           sodipodi:cy="219"
           sodipodi:cx="-921"
           r="1.55"
           cy="219"
           cx="-921"
           class="fil0 str0"
           id="_108778976" />
      </g>
      <g
         transform="matrix(3.543307,0,0,3.543307,3959.1844,-183.93138)"
         id="g3294"
         style="fill-rule:evenodd">
        <rect
           style="fill:none;stroke:#000000;stroke-width:0.0762"
           height="6"
           width="10"
           y="216"
           x="-826"
           class="fil0 str0"
           id="_108778904" />
        <rect
           style="fill:none;stroke:#000000;stroke-width:0.0762"
           height="6"
           width="10"
           y="216"
           x="-846"
           class="fil0 str0"
           id="_108778856" />
        <circle
           d="m -829.45,219 c 0,0.85604 -0.69396,1.55 -1.55,1.55 -0.85604,0 -1.55,-0.69396 -1.55,-1.55 0,-0.85604 0.69396,-1.55 1.55,-1.55 0.85604,0 1.55,0.69396 1.55,1.55 z"
           style="fill:none;stroke:#000000;stroke-width:0.0762"
           sodipodi:ry="1.55"
           sodipodi:rx="1.55"
           sodipodi:cy="219"
           sodipodi:cx="-831"
           r="1.55"
           cy="219"
           cx="-831"
           class="fil0 str0"
           id="_108778808" />
      </g>
      <polygon
         class="fil0 str0"
         points="-796.1,277 -792.9,277 -792.9,279 -791.3,279 -791.3,282 -792.9,282 -792.9,287 -789.5,287 -789.5,293 -779.5,293 -779.5,287 -779.5,211 -779.5,205 -789.5,205 -789.5,211 -792.9,211 -792.9,216 -791.3,216 -791.3,219 -792.9,219 -792.9,221 -796.1,221 -796.1,219 -797.7,219 -797.7,216 -796.1,216 -796.1,211 -799.5,211 -799.5,205 -809.5,205 -809.5,211 -809.5,287 -809.5,293 -799.5,293 -799.5,287 -796.1,287 -796.1,282 -797.7,282 -797.7,279 -796.1,279 "
         id="polygon2479"
         style="fill:none;stroke:#000000;stroke-width:0.0762"
         transform="matrix(3.543307,0,0,3.543307,3956.0416,-181.35995)" />
      <polygon
         class="fil0 str0"
         points="-916.1,322 -912.9,322 -912.9,324 -911.3,324 -911.3,327 -912.9,327 -912.9,332 -909.5,332 -909.5,338 -899.5,338 -899.5,332 -899.5,256 -899.5,250 -909.5,250 -909.5,256 -912.9,256 -912.9,261 -911.3,261 -911.3,264 -912.9,264 -912.9,266 -916.1,266 -916.1,264 -917.7,264 -917.7,261 -916.1,261 -916.1,256 -919.5,256 -919.5,250 -929.5,250 -929.5,256 -929.5,332 -929.5,338 -919.5,338 -919.5,332 -916.1,332 -916.1,327 -917.7,327 -917.7,324 -916.1,324 "
         id="polygon3359"
         style="fill:none;stroke:#000000;stroke-width:0.0762"
         transform="matrix(3.543307,0,0,3.543307,3956.0416,-181.35995)" />
    </g>
    <g
       id="g4033"
       transform="matrix(0,-1,1,0,827.3492,1710.8323)" />
    <g
       id="g4117"
       transform="matrix(0,1,-1,0,1497.9448,-415.67252)">
      <g
         transform="matrix(0,-1,1,0,889.97866,1771.4821)"
         id="g3981">
        <circle
           id="_108774032"
           class="fil0 str2"
           cx="-982"
           cy="54"
           r="4"
           sodipodi:cx="-982"
           sodipodi:cy="54"
           sodipodi:rx="4"
           sodipodi:ry="4"
           style="fill:none;stroke:#000000;stroke-width:0.2"
           d="m -978,54 c 0,2.209139 -1.79086,4 -4,4 -2.20914,0 -4,-1.790861 -4,-4 0,-2.209139 1.79086,-4 4,-4 2.20914,0 4,1.790861 4,4 z"
           transform="matrix(3.543307,0,0,3.543307,4397.7628,242.52045)" />
        <path
           sodipodi:type="arc"
           style="fill:none;stroke:#000000;stroke-width:0.78564399;stroke-linecap:butt;stroke-linejoin:miter;stroke-miterlimit:4;stroke-opacity:1;stroke-dasharray:none"
           id="path3977"
           sodipodi:cx="938.21429"
           sodipodi:cy="155.35715"
           sodipodi:rx="31.071428"
           sodipodi:ry="31.071428"
           d="m 969.28572,155.35715 c 0,17.16027 -13.91115,31.07143 -31.07143,31.07143 -17.16027,0 -31.07142,-13.91116 -31.07142,-31.07143 0,-17.16028 13.91115,-31.07143 31.07142,-31.07143 17.16028,0 31.07143,13.91115 31.07143,31.07143 z"
           transform="matrix(0.90090997,0,0,0.90090996,72.988669,293.89623)" />
      </g>
      <g
         id="g3985"
         transform="matrix(0,-1,1,0,889.97866,1710.8323)">
        <circle
           transform="matrix(3.543307,0,0,3.543307,4397.7628,242.52045)"
           d="m -978,54 c 0,2.209139 -1.79086,4 -4,4 -2.20914,0 -4,-1.790861 -4,-4 0,-2.209139 1.79086,-4 4,-4 2.20914,0 4,1.790861 4,4 z"
           style="fill:none;stroke:#000000;stroke-width:0.2"
           sodipodi:ry="4"
           sodipodi:rx="4"
           sodipodi:cy="54"
           sodipodi:cx="-982"
           r="4"
           cy="54"
           cx="-982"
           class="fil0 str2"
           id="circle3987" />
        <path
           transform="matrix(0.90090997,0,0,0.90090996,72.988669,293.89623)"
           d="m 969.28572,155.35715 c 0,17.16027 -13.91115,31.07143 -31.07143,31.07143 -17.16027,0 -31.07142,-13.91116 -31.07142,-31.07143 0,-17.16028 13.91115,-31.07143 31.07142,-31.07143 17.16028,0 31.07143,13.91115 31.07143,31.07143 z"
           sodipodi:ry="31.071428"
           sodipodi:rx="31.071428"
           sodipodi:cy="155.35715"
           sodipodi:cx="938.21429"
           id="path3989"
           style="fill:none;stroke:#000000;stroke-width:0.78564399;stroke-linecap:butt;stroke-linejoin:miter;stroke-miterlimit:4;stroke-opacity:1;stroke-dasharray:none"
           sodipodi:type="arc" />
      </g>
      <g
         id="g3991"
         transform="matrix(0,-1,1,0,889.97866,1650.6249)">
        <circle
           transform="matrix(3.543307,0,0,3.543307,4397.7628,242.52045)"
           d="m -978,54 c 0,2.209139 -1.79086,4 -4,4 -2.20914,0 -4,-1.790861 -4,-4 0,-2.209139 1.79086,-4 4,-4 2.20914,0 4,1.790861 4,4 z"
           style="fill:none;stroke:#000000;stroke-width:0.2"
           sodipodi:ry="4"
           sodipodi:rx="4"
           sodipodi:cy="54"
           sodipodi:cx="-982"
           r="4"
           cy="54"
           cx="-982"
           class="fil0 str2"
           id="circle3993" />
        <path
           transform="matrix(0.90090997,0,0,0.90090996,72.988669,293.89623)"
           d="m 969.28572,155.35715 c 0,17.16027 -13.91115,31.07143 -31.07143,31.07143 -17.16027,0 -31.07142,-13.91116 -31.07142,-31.07143 0,-17.16028 13.91115,-31.07143 31.07142,-31.07143 17.16028,0 31.07143,13.91115 31.07143,31.07143 z"
           sodipodi:ry="31.071428"
           sodipodi:rx="31.071428"
           sodipodi:cy="155.35715"
           sodipodi:cx="938.21429"
           id="path3995"
           style="fill:none;stroke:#000000;stroke-width:0.78564399;stroke-linecap:butt;stroke-linejoin:miter;stroke-miterlimit:4;stroke-opacity:1;stroke-dasharray:none"
           sodipodi:type="arc" />
      </g>
      <g
         transform="matrix(0,-1,1,0,889.97866,1589.9751)"
         id="g3997">
        <circle
           id="circle3999"
           class="fil0 str2"
           cx="-982"
           cy="54"
           r="4"
           sodipodi:cx="-982"
           sodipodi:cy="54"
           sodipodi:rx="4"
           sodipodi:ry="4"
           style="fill:none;stroke:#000000;stroke-width:0.2"
           d="m -978,54 c 0,2.209139 -1.79086,4 -4,4 -2.20914,0 -4,-1.790861 -4,-4 0,-2.209139 1.79086,-4 4,-4 2.20914,0 4,1.790861 4,4 z"
           transform="matrix(3.543307,0,0,3.543307,4397.7628,242.52045)" />
        <path
           sodipodi:type="arc"
           style="fill:none;stroke:#000000;stroke-width:0.78564399;stroke-linecap:butt;stroke-linejoin:miter;stroke-miterlimit:4;stroke-opacity:1;stroke-dasharray:none"
           id="path4001"
           sodipodi:cx="938.21429"
           sodipodi:cy="155.35715"
           sodipodi:rx="31.071428"
           sodipodi:ry="31.071428"
           d="m 969.28572,155.35715 c 0,17.16027 -13.91115,31.07143 -31.07143,31.07143 -17.16027,0 -31.07142,-13.91116 -31.07142,-31.07143 0,-17.16028 13.91115,-31.07143 31.07142,-31.07143 17.16028,0 31.07143,13.91115 31.07143,31.07143 z"
           transform="matrix(0.90090997,0,0,0.90090996,72.988669,293.89623)" />
      </g>
      <g
         id="g4003"
         transform="matrix(0,-1,1,0,889.97866,1891.6249)">
        <circle
           transform="matrix(3.543307,0,0,3.543307,4397.7628,242.52045)"
           d="m -978,54 c 0,2.209139 -1.79086,4 -4,4 -2.20914,0 -4,-1.790861 -4,-4 0,-2.209139 1.79086,-4 4,-4 2.20914,0 4,1.790861 4,4 z"
           style="fill:none;stroke:#000000;stroke-width:0.2"
           sodipodi:ry="4"
           sodipodi:rx="4"
           sodipodi:cy="54"
           sodipodi:cx="-982"
           r="4"
           cy="54"
           cx="-982"
           class="fil0 str2"
           id="circle4005" />
        <path
           transform="matrix(0.90090997,0,0,0.90090996,72.988669,293.89623)"
           d="m 969.28572,155.35715 c 0,17.16027 -13.91115,31.07143 -31.07143,31.07143 -17.16027,0 -31.07142,-13.91116 -31.07142,-31.07143 0,-17.16028 13.91115,-31.07143 31.07142,-31.07143 17.16028,0 31.07143,13.91115 31.07143,31.07143 z"
           sodipodi:ry="31.071428"
           sodipodi:rx="31.071428"
           sodipodi:cy="155.35715"
           sodipodi:cx="938.21429"
           id="path4007"
           style="fill:none;stroke:#000000;stroke-width:0.78564399;stroke-linecap:butt;stroke-linejoin:miter;stroke-miterlimit:4;stroke-opacity:1;stroke-dasharray:none"
           sodipodi:type="arc" />
      </g>
      <g
         transform="matrix(0,-1,1,0,889.97866,1830.9751)"
         id="g4009">
        <circle
           id="circle4011"
           class="fil0 str2"
           cx="-982"
           cy="54"
           r="4"
           sodipodi:cx="-982"
           sodipodi:cy="54"
           sodipodi:rx="4"
           sodipodi:ry="4"
           style="fill:none;stroke:#000000;stroke-width:0.2"
           d="m -978,54 c 0,2.209139 -1.79086,4 -4,4 -2.20914,0 -4,-1.790861 -4,-4 0,-2.209139 1.79086,-4 4,-4 2.20914,0 4,1.790861 4,4 z"
           transform="matrix(3.543307,0,0,3.543307,4397.7628,242.52045)" />
        <path
           sodipodi:type="arc"
           style="fill:none;stroke:#000000;stroke-width:0.78564399;stroke-linecap:butt;stroke-linejoin:miter;stroke-miterlimit:4;stroke-opacity:1;stroke-dasharray:none"
           id="path4013"
           sodipodi:cx="938.21429"
           sodipodi:cy="155.35715"
           sodipodi:rx="31.071428"
           sodipodi:ry="31.071428"
           d="m 969.28572,155.35715 c 0,17.16027 -13.91115,31.07143 -31.07143,31.07143 -17.16027,0 -31.07142,-13.91116 -31.07142,-31.07143 0,-17.16028 13.91115,-31.07143 31.07142,-31.07143 17.16028,0 31.07143,13.91115 31.07143,31.07143 z"
           transform="matrix(0.90090997,0,0,0.90090996,72.988669,293.89623)" />
      </g>
      <g
         id="g4027"
         transform="matrix(0,-1,1,0,827.3492,1771.4821)">
        <circle
           transform="matrix(3.543307,0,0,3.543307,4397.7628,242.52045)"
           d="m -978,54 c 0,2.209139 -1.79086,4 -4,4 -2.20914,0 -4,-1.790861 -4,-4 0,-2.209139 1.79086,-4 4,-4 2.20914,0 4,1.790861 4,4 z"
           style="fill:none;stroke:#000000;stroke-width:0.2"
           sodipodi:ry="4"
           sodipodi:rx="4"
           sodipodi:cy="54"
           sodipodi:cx="-982"
           r="4"
           cy="54"
           cx="-982"
           class="fil0 str2"
           id="circle4029" />
        <path
           transform="matrix(0.90090997,0,0,0.90090996,72.988669,293.89623)"
           d="m 969.28572,155.35715 c 0,17.16027 -13.91115,31.07143 -31.07143,31.07143 -17.16027,0 -31.07142,-13.91116 -31.07142,-31.07143 0,-17.16028 13.91115,-31.07143 31.07142,-31.07143 17.16028,0 31.07143,13.91115 31.07143,31.07143 z"
           sodipodi:ry="31.071428"
           sodipodi:rx="31.071428"
           sodipodi:cy="155.35715"
           sodipodi:cx="938.21429"
           id="path4031"
           style="fill:none;stroke:#000000;stroke-width:0.78564399;stroke-linecap:butt;stroke-linejoin:miter;stroke-miterlimit:4;stroke-opacity:1;stroke-dasharray:none"
           sodipodi:type="arc" />
      </g>
      <circle
         id="circle4035"
         class="fil0 str2"
         cx="-982"
         cy="54"
         r="4"
         sodipodi:cx="-982"
         sodipodi:cy="54"
         sodipodi:rx="4"
         sodipodi:ry="4"
         style="fill:none;stroke:#000000;stroke-width:0.2"
         d="m -978,54 c 0,2.209139 -1.79086,4 -4,4 -2.20914,0 -4,-1.790861 -4,-4 0,-2.209139 1.79086,-4 4,-4 2.20914,0 4,1.790861 4,4 z"
         transform="matrix(0,-3.543307,3.543307,0,1069.8697,-2686.9306)" />
      <path
         sodipodi:type="arc"
         style="fill:none;stroke:#000000;stroke-width:0.78564399;stroke-linecap:butt;stroke-linejoin:miter;stroke-miterlimit:4;stroke-opacity:1;stroke-dasharray:none"
         id="path4037"
         sodipodi:cx="938.21429"
         sodipodi:cy="155.35715"
         sodipodi:rx="31.071428"
         sodipodi:ry="31.071428"
         d="m 969.28572,155.35715 c 0,17.16027 -13.91115,31.07143 -31.07143,31.07143 -17.16027,0 -31.07142,-13.91116 -31.07142,-31.07143 0,-17.16028 13.91115,-31.07143 31.07142,-31.07143 17.16028,0 31.07143,13.91115 31.07143,31.07143 z"
         transform="matrix(0,-0.90090997,0.90090996,0,1121.2454,1637.8437)" />
      <g
         transform="matrix(0,-1,1,0,827.3492,1650.6249)"
         id="g4039">
        <circle
           id="circle4041"
           class="fil0 str2"
           cx="-982"
           cy="54"
           r="4"
           sodipodi:cx="-982"
           sodipodi:cy="54"
           sodipodi:rx="4"
           sodipodi:ry="4"
           style="fill:none;stroke:#000000;stroke-width:0.2"
           d="m -978,54 c 0,2.209139 -1.79086,4 -4,4 -2.20914,0 -4,-1.790861 -4,-4 0,-2.209139 1.79086,-4 4,-4 2.20914,0 4,1.790861 4,4 z"
           transform="matrix(3.543307,0,0,3.543307,4397.7628,242.52045)" />
        <path
           sodipodi:type="arc"
           style="fill:none;stroke:#000000;stroke-width:0.78564399;stroke-linecap:butt;stroke-linejoin:miter;stroke-miterlimit:4;stroke-opacity:1;stroke-dasharray:none"
           id="path4043"
           sodipodi:cx="938.21429"
           sodipodi:cy="155.35715"
           sodipodi:rx="31.071428"
           sodipodi:ry="31.071428"
           d="m 969.28572,155.35715 c 0,17.16027 -13.91115,31.07143 -31.07143,31.07143 -17.16027,0 -31.07142,-13.91116 -31.07142,-31.07143 0,-17.16028 13.91115,-31.07143 31.07142,-31.07143 17.16028,0 31.07143,13.91115 31.07143,31.07143 z"
           transform="matrix(0.90090997,0,0,0.90090996,72.988669,293.89623)" />
      </g>
      <g
         id="g4045"
         transform="matrix(0,-1,1,0,827.3492,1589.9751)">
        <circle
           transform="matrix(3.543307,0,0,3.543307,4397.7628,242.52045)"
           d="m -978,54 c 0,2.209139 -1.79086,4 -4,4 -2.20914,0 -4,-1.790861 -4,-4 0,-2.209139 1.79086,-4 4,-4 2.20914,0 4,1.790861 4,4 z"
           style="fill:none;stroke:#000000;stroke-width:0.2"
           sodipodi:ry="4"
           sodipodi:rx="4"
           sodipodi:cy="54"
           sodipodi:cx="-982"
           r="4"
           cy="54"
           cx="-982"
           class="fil0 str2"
           id="circle4047" />
        <path
           transform="matrix(0.90090997,0,0,0.90090996,72.988669,293.89623)"
           d="m 969.28572,155.35715 c 0,17.16027 -13.91115,31.07143 -31.07143,31.07143 -17.16027,0 -31.07142,-13.91116 -31.07142,-31.07143 0,-17.16028 13.91115,-31.07143 31.07142,-31.07143 17.16028,0 31.07143,13.91115 31.07143,31.07143 z"
           sodipodi:ry="31.071428"
           sodipodi:rx="31.071428"
           sodipodi:cy="155.35715"
           sodipodi:cx="938.21429"
           id="path4049"
           style="fill:none;stroke:#000000;stroke-width:0.78564399;stroke-linecap:butt;stroke-linejoin:miter;stroke-miterlimit:4;stroke-opacity:1;stroke-dasharray:none"
           sodipodi:type="arc" />
      </g>
      <g
         transform="matrix(0,-1,1,0,827.3492,1891.6249)"
         id="g4051">
        <circle
           id="circle4053"
           class="fil0 str2"
           cx="-982"
           cy="54"
           r="4"
           sodipodi:cx="-982"
           sodipodi:cy="54"
           sodipodi:rx="4"
           sodipodi:ry="4"
           style="fill:none;stroke:#000000;stroke-width:0.2"
           d="m -978,54 c 0,2.209139 -1.79086,4 -4,4 -2.20914,0 -4,-1.790861 -4,-4 0,-2.209139 1.79086,-4 4,-4 2.20914,0 4,1.790861 4,4 z"
           transform="matrix(3.543307,0,0,3.543307,4397.7628,242.52045)" />
        <path
           sodipodi:type="arc"
           style="fill:none;stroke:#000000;stroke-width:0.78564399;stroke-linecap:butt;stroke-linejoin:miter;stroke-miterlimit:4;stroke-opacity:1;stroke-dasharray:none"
           id="path4055"
           sodipodi:cx="938.21429"
           sodipodi:cy="155.35715"
           sodipodi:rx="31.071428"
           sodipodi:ry="31.071428"
           d="m 969.28572,155.35715 c 0,17.16027 -13.91115,31.07143 -31.07143,31.07143 -17.16027,0 -31.07142,-13.91116 -31.07142,-31.07143 0,-17.16028 13.91115,-31.07143 31.07142,-31.07143 17.16028,0 31.07143,13.91115 31.07143,31.07143 z"
           transform="matrix(0.90090997,0,0,0.90090996,72.988669,293.89623)" />
      </g>
      <g
         id="g4057"
         transform="matrix(0,-1,1,0,827.3492,1830.9751)">
        <circle
           transform="matrix(3.543307,0,0,3.543307,4397.7628,242.52045)"
           d="m -978,54 c 0,2.209139 -1.79086,4 -4,4 -2.20914,0 -4,-1.790861 -4,-4 0,-2.209139 1.79086,-4 4,-4 2.20914,0 4,1.790861 4,4 z"
           style="fill:none;stroke:#000000;stroke-width:0.2"
           sodipodi:ry="4"
           sodipodi:rx="4"
           sodipodi:cy="54"
           sodipodi:cx="-982"
           r="4"
           cy="54"
           cx="-982"
           class="fil0 str2"
           id="circle4059" />
        <path
           transform="matrix(0.90090997,0,0,0.90090996,72.988669,293.89623)"
           d="m 969.28572,155.35715 c 0,17.16027 -13.91115,31.07143 -31.07143,31.07143 -17.16027,0 -31.07142,-13.91116 -31.07142,-31.07143 0,-17.16028 13.91115,-31.07143 31.07142,-31.07143 17.16028,0 31.07143,13.91115 31.07143,31.07143 z"
           sodipodi:ry="31.071428"
           sodipodi:rx="31.071428"
           sodipodi:cy="155.35715"
           sodipodi:cx="938.21429"
           id="path4061"
           style="fill:none;stroke:#000000;stroke-width:0.78564399;stroke-linecap:butt;stroke-linejoin:miter;stroke-miterlimit:4;stroke-opacity:1;stroke-dasharray:none"
           sodipodi:type="arc" />
      </g>
    </g>
  </g>
</svg>
