<?xml version="1.0" encoding="UTF-8" standalone="no"?>
<!-- Created with Inkscape (http://www.inkscape.org/) -->

<svg
   xmlns:dc="http://purl.org/dc/elements/1.1/"
   xmlns:cc="http://creativecommons.org/ns#"
   xmlns:rdf="http://www.w3.org/1999/02/22-rdf-syntax-ns#"
   xmlns:svg="http://www.w3.org/2000/svg"
   xmlns="http://www.w3.org/2000/svg"
   xmlns:sodipodi="http://sodipodi.sourceforge.net/DTD/sodipodi-0.dtd"
   xmlns:inkscape="http://www.inkscape.org/namespaces/inkscape"
   width="2160"
   height="1620"
   id="svg2"
   version="1.1"
   inkscape:version="0.48.4 r9939"
   sodipodi:docname="reel machine Final.pdf">
  <sodipodi:namedview
     id="base"
     pagecolor="#ffffff"
     bordercolor="#666666"
     borderopacity="1.0"
     inkscape:pageopacity="0.0"
     inkscape:pageshadow="2"
     inkscape:zoom="1.056739"
     inkscape:cx="240.47496"
     inkscape:cy="1387.4301"
     inkscape:document-units="in"
     inkscape:current-layer="layer1"
     showgrid="true"
     units="in"
     inkscape:window-width="1920"
     inkscape:window-height="1017"
     inkscape:window-x="-8"
     inkscape:window-y="-8"
     inkscape:window-maximized="1">
    <inkscape:grid
       dotted="false"
       spacingy="0.1in"
       spacingx="0.1in"
       units="in"
       snapvisiblegridlinesonly="true"
       enabled="false"
       visible="true"
       empspacing="1"
       id="grid4883"
       type="xygrid" />
  </sodipodi:namedview>
  <defs
     id="defs4" />
  <metadata
     id="metadata7">
    <rdf:RDF>
      <cc:Work
         rdf:about="">
        <dc:format>image/svg+xml</dc:format>
        <dc:type
           rdf:resource="http://purl.org/dc/dcmitype/StillImage" />
        <dc:title></dc:title>
      </cc:Work>
    </rdf:RDF>
  </metadata>
  <g
     transform="translate(0,567.64025)"
     id="layer1"
     inkscape:groupmode="layer"
     inkscape:label="Layer 1">
    <g
       id="g4012"
       transform="translate(333.31517,-243.84533)">
      <path
         id="rect2985-6"
         transform="translate(0,-567.64025)"
         d="m 8.625,245.96875 0,224 330.875,0 0,-224 -220.1875,0 0,22.5 -76.5,0 0,-22.5 -34.1875,0 z m 13.15625,8.125 c 0.17229,-0.0175 0.35435,0 0.53125,0 2.83046,0 5.125,2.29454 5.125,5.125 0,2.83046 -2.29454,5.125 -5.125,5.125 -2.83046,0 -5.125,-2.29454 -5.125,-5.125 0,-2.65356 2.00944,-4.86255 4.59375,-5.125 z m 303.875,0 c 0.17229,-0.0175 0.35435,0 0.53125,0 2.83046,0 5.125,2.29454 5.125,5.125 0,2.83046 -2.29454,5.125 -5.125,5.125 -2.83046,0 -5.125,-2.29454 -5.125,-5.125 0,-2.65356 2.00944,-4.86255 4.59375,-5.125 z M 22.3125,451.625 c 2.83046,0 5.125,2.29454 5.125,5.125 0,2.83046 -2.29454,5.125 -5.125,5.125 -2.83046,0 -5.125,-2.29454 -5.125,-5.125 0,-2.83046 2.29454,-5.125 5.125,-5.125 z m 303.875,0 c 2.83046,0 5.125,2.29454 5.125,5.125 0,2.83046 -2.29454,5.125 -5.125,5.125 -2.83046,0 -5.125,-2.29454 -5.125,-5.125 0,-2.83046 2.29454,-5.125 5.125,-5.125 z"
         style="fill:none;stroke:#000000;stroke-width:0.09;stroke-miterlimit:4;stroke-opacity:1;stroke-dasharray:none"
         inkscape:connector-curvature="0" />
      <rect
         style="fill:none;stroke:#000000;stroke-width:0.09000002;stroke-miterlimit:4;stroke-opacity:1;stroke-dasharray:none"
         id="rect6900-0"
         width="108.05498"
         height="8.8736753"
         x="202.39902"
         y="-245.87173" />
      <rect
         style="fill:none;stroke:#000000;stroke-width:0.09000002;stroke-miterlimit:4;stroke-opacity:1;stroke-dasharray:none"
         id="rect6900-8-8"
         width="108.05498"
         height="8.8736753"
         x="202.39902"
         y="-191.87166" />
      <rect
         style="fill:none;stroke:#000000;stroke-width:0.09;stroke-miterlimit:4;stroke-opacity:1;stroke-dasharray:none"
         id="rect6920-7"
         width="27"
         height="8.5500002"
         x="94.398918"
         y="-236.58708" />
      <rect
         style="fill:none;stroke:#000000;stroke-width:0.09;stroke-miterlimit:4;stroke-opacity:1;stroke-dasharray:none"
         id="rect6922-1"
         width="18.054647"
         height="9.0529413"
         x="40.399422"
         y="-200.83852" />
      <rect
         style="fill:none;stroke:#000000;stroke-width:0.09;stroke-miterlimit:4;stroke-opacity:1;stroke-dasharray:none"
         id="rect6924-6"
         width="18.054647"
         height="9.0529413"
         x="76.399414"
         y="-200.83852" />
      <rect
         style="fill:none;stroke:#000000;stroke-width:0.09;stroke-miterlimit:4;stroke-opacity:1;stroke-dasharray:none"
         id="rect6928-8"
         width="18.054647"
         height="9.0529413"
         x="112.39941"
         y="-200.83852" />
      <rect
         style="fill:none;stroke:#000000;stroke-width:0.09000001;stroke-miterlimit:4;stroke-opacity:1;stroke-dasharray:none"
         id="rect6930-9"
         width="18.054647"
         height="9.05305"
         x="58.399422"
         y="-173.8597" />
      <rect
         style="fill:none;stroke:#000000;stroke-width:0.09000001;stroke-miterlimit:4;stroke-opacity:1;stroke-dasharray:none"
         id="rect6932-62"
         width="18.054647"
         height="9.0257816"
         x="94.399414"
         y="-173.84605" />
      <rect
         style="fill:none;stroke:#000000;stroke-width:0.09;stroke-miterlimit:4;stroke-opacity:1;stroke-dasharray:none"
         id="rect6934-7"
         width="26.874235"
         height="8.8736753"
         x="157.39931"
         y="-245.91142" />
      <rect
         style="fill:none;stroke:#000000;stroke-width:0.09;stroke-miterlimit:4;stroke-opacity:1;stroke-dasharray:none"
         id="rect6936-5"
         width="26.549999"
         height="8.5500002"
         x="130.39893"
         y="-173.60817" />
      <rect
         style="fill:none;stroke:#000000;stroke-width:0.09;stroke-miterlimit:4;stroke-opacity:1;stroke-dasharray:none"
         id="rect6938-8"
         width="26.549999"
         height="8.5500002"
         x="166.39893"
         y="-173.60817" />
      <path
         sodipodi:type="arc"
         style="fill:none;stroke:#000000;stroke-width:0.0710825;stroke-miterlimit:4;stroke-opacity:1;stroke-dasharray:none"
         id="path6944-7"
         sodipodi:cx="333.7338"
         sodipodi:cy="699.59729"
         sodipodi:rx="4.182128"
         sodipodi:ry="4.3494129"
         d="m 337.91592,699.59729 c 0,2.40211 -1.8724,4.34941 -4.18212,4.34941 -2.30973,0 -4.18213,-1.9473 -4.18213,-4.34941 0,-2.40211 1.8724,-4.34941 4.18213,-4.34941 2.30972,0 4.18212,1.9473 4.18212,4.34941 z"
         transform="matrix(1.2912087,0,0,1.2415469,-305.02109,-1134.8699)" />
      <path
         sodipodi:type="arc"
         style="fill:none;stroke:#000000;stroke-width:0.0710825;stroke-miterlimit:4;stroke-opacity:1;stroke-dasharray:none"
         id="path6944-1-0"
         sodipodi:cx="333.7338"
         sodipodi:cy="699.59729"
         sodipodi:rx="4.182128"
         sodipodi:ry="4.3494129"
         d="m 337.91592,699.59729 c 0,2.40211 -1.8724,4.34941 -4.18212,4.34941 -2.30973,0 -4.18213,-1.9473 -4.18213,-4.34941 0,-2.40211 1.8724,-4.34941 4.18213,-4.34941 2.30972,0 4.18212,1.9473 4.18212,4.34941 z"
         transform="matrix(1.2912087,0,0,1.2415469,-408.16109,-1134.8699)" />
      <path
         inkscape:connector-curvature="0"
         id="path7321-9"
         d="m 11.86609,-272.46878 -0.10252,12.49537 10.93424,6.19246 10.95396,-6.32427 0.10244,-12.49533 -10.93416,-6.1925 -10.95396,6.32427 z"
         style="fill:none;stroke:#000000;stroke-width:0.09;stroke-miterlimit:4;stroke-opacity:1;stroke-dasharray:none" />
      <path
         inkscape:connector-curvature="0"
         id="path7321-9-2"
         d="m 115.00609,-273.14914 -0.10252,12.49537 10.93424,6.19246 10.95396,-6.32427 0.10244,-12.49533 -10.93416,-6.1925 -10.95396,6.32427 z"
         style="fill:none;stroke:#000000;stroke-width:0.09;stroke-miterlimit:4;stroke-opacity:1;stroke-dasharray:none" />
    </g>
    <g
       id="g4030"
       transform="translate(669.31517,-483.84533)">
      <path
         id="rect2985-1"
         transform="translate(0,-567.64025)"
         d="m 8.625,485.96875 0,224 330.875,0 0,-224 -220.1875,0 0,22.5 -76.5,0 0,-22.5 -34.1875,0 z m 13.15625,8.125 c 0.17229,-0.0175 0.35435,0 0.53125,0 2.83046,0 5.125,2.29454 5.125,5.125 0,2.83046 -2.29454,5.125 -5.125,5.125 -2.83046,0 -5.125,-2.29454 -5.125,-5.125 0,-2.65356 2.00944,-4.86255 4.59375,-5.125 z m 303.875,0 c 0.17229,-0.0175 0.35435,0 0.53125,0 2.83046,0 5.125,2.29454 5.125,5.125 0,2.83046 -2.29454,5.125 -5.125,5.125 -2.83046,0 -5.125,-2.29454 -5.125,-5.125 0,-2.65356 2.00944,-4.86255 4.59375,-5.125 z M 22.3125,691.625 c 2.83046,0 5.125,2.29454 5.125,5.125 0,2.83046 -2.29454,5.125 -5.125,5.125 -2.83046,0 -5.125,-2.29454 -5.125,-5.125 0,-2.83046 2.29454,-5.125 5.125,-5.125 z m 303.875,0 c 2.83046,0 5.125,2.29454 5.125,5.125 0,2.83046 -2.29454,5.125 -5.125,5.125 -2.83046,0 -5.125,-2.29454 -5.125,-5.125 0,-2.83046 2.29454,-5.125 5.125,-5.125 z"
         style="fill:none;stroke:#000000;stroke-width:0.09;stroke-miterlimit:4;stroke-opacity:1;stroke-dasharray:none"
         inkscape:connector-curvature="0" />
      <path
         sodipodi:type="arc"
         style="fill:none;stroke:#000000;stroke-width:0.0710825;stroke-miterlimit:4;stroke-opacity:1;stroke-dasharray:none"
         id="path6944-16"
         sodipodi:cx="333.7338"
         sodipodi:cy="699.59729"
         sodipodi:rx="4.182128"
         sodipodi:ry="4.3494129"
         d="m 337.91592,699.59729 c 0,2.40211 -1.8724,4.34941 -4.18212,4.34941 -2.30973,0 -4.18213,-1.9473 -4.18213,-4.34941 0,-2.40211 1.8724,-4.34941 4.18213,-4.34941 2.30972,0 4.18212,1.9473 4.18212,4.34941 z"
         transform="matrix(1.2912087,0,0,1.2415469,-305.02109,-894.86975)" />
      <path
         sodipodi:type="arc"
         style="fill:none;stroke:#000000;stroke-width:0.0710825;stroke-miterlimit:4;stroke-opacity:1;stroke-dasharray:none"
         id="path6944-1-7"
         sodipodi:cx="333.7338"
         sodipodi:cy="699.59729"
         sodipodi:rx="4.182128"
         sodipodi:ry="4.3494129"
         d="m 337.91592,699.59729 c 0,2.40211 -1.8724,4.34941 -4.18212,4.34941 -2.30973,0 -4.18213,-1.9473 -4.18213,-4.34941 0,-2.40211 1.8724,-4.34941 4.18213,-4.34941 2.30972,0 4.18212,1.9473 4.18212,4.34941 z"
         transform="matrix(1.2912087,0,0,1.2415469,-408.16109,-894.86975)" />
      <path
         id="rect3884"
         d="m 152.8125,-64.45275 0,48.90625 -7.5625,13.21875 -85.40625,0 -20.125,18.9375 0,104.125 270.5625,0.3125 0,-128.9375 0.53125,0 0,-55.21875 -60.5625,0 0,36.90625 -61.4375,0 -8.375,-38.25 -27.625,0 z"
         style="fill:none;stroke:#000000;stroke-width:0.09;stroke-miterlimit:4;stroke-opacity:1;stroke-dasharray:none"
         inkscape:connector-curvature="0" />
    </g>
    <g
       id="g3972"
       transform="translate(-2.68483,-3.62658)">
      <path
         id="rect2985"
         transform="translate(0,-567.64025)"
         d="m 8.625,5.96875 0,224 330.875,0 0,-224 -220.1875,0 0,22.5 -76.5,0 0,-22.5 -34.1875,0 z m 13.15625,8.125 c 0.17229,-0.0175 0.35435,0 0.53125,0 2.83046,0 5.125,2.29454 5.125,5.125 0,2.83046 -2.29454,5.125 -5.125,5.125 -2.83046,0 -5.125,-2.29454 -5.125,-5.125 0,-2.65356 2.00944,-4.86255 4.59375,-5.125 z m 303.875,0 c 0.17229,-0.0175 0.35435,0 0.53125,0 2.83046,0 5.125,2.29454 5.125,5.125 0,2.83046 -2.29454,5.125 -5.125,5.125 -2.83046,0 -5.125,-2.29454 -5.125,-5.125 0,-2.65356 2.00944,-4.86255 4.59375,-5.125 z M 22.3125,211.625 c 2.83046,0 5.125,2.29454 5.125,5.125 0,2.83046 -2.29454,5.125 -5.125,5.125 -2.83046,0 -5.125,-2.29454 -5.125,-5.125 0,-2.83046 2.29454,-5.125 5.125,-5.125 z m 303.875,0 c 2.83046,0 5.125,2.29454 5.125,5.125 0,2.83046 -2.29454,5.125 -5.125,5.125 -2.83046,0 -5.125,-2.29454 -5.125,-5.125 0,-2.83046 2.29454,-5.125 5.125,-5.125 z"
         style="fill:none;stroke:#000000;stroke-width:0.09;stroke-miterlimit:4;stroke-opacity:1;stroke-dasharray:none"
         inkscape:connector-curvature="0" />
      <rect
         style="fill:none;stroke:#000000;stroke-width:0.09000002;stroke-miterlimit:4;stroke-opacity:1;stroke-dasharray:none"
         id="rect6900"
         width="108.04793"
         height="8.9082594"
         x="202.39957"
         y="-486.23846" />
      <rect
         style="fill:none;stroke:#000000;stroke-width:0.09;stroke-miterlimit:4;stroke-opacity:1;stroke-dasharray:none"
         id="rect6900-8"
         width="108.05483"
         height="8.8736753"
         x="202.39897"
         y="-431.87177" />
      <rect
         style="fill:none;stroke:#000000;stroke-width:0.09;stroke-miterlimit:4;stroke-opacity:1;stroke-dasharray:none"
         id="rect6920"
         width="27"
         height="8.5500002"
         x="94.398888"
         y="-476.58716" />
      <rect
         style="fill:none;stroke:#000000;stroke-width:0.09;stroke-miterlimit:4;stroke-opacity:1;stroke-dasharray:none"
         id="rect6922"
         width="18.053995"
         height="9.0529413"
         x="40.399395"
         y="-440.83859" />
      <rect
         style="fill:none;stroke:#000000;stroke-width:0.09;stroke-miterlimit:4;stroke-opacity:1;stroke-dasharray:none"
         id="rect6924"
         width="18.053995"
         height="9.0529413"
         x="76.399391"
         y="-440.83859" />
      <rect
         style="fill:none;stroke:#000000;stroke-width:0.09;stroke-miterlimit:4;stroke-opacity:1;stroke-dasharray:none"
         id="rect6928"
         width="18.053995"
         height="9.0529413"
         x="112.39939"
         y="-440.83859" />
      <rect
         style="fill:none;stroke:#000000;stroke-width:0.09;stroke-miterlimit:4;stroke-opacity:1;stroke-dasharray:none"
         id="rect6930"
         width="18.053995"
         height="9.0530519"
         x="58.399395"
         y="-413.85977" />
      <rect
         style="fill:none;stroke:#000000;stroke-width:0.09;stroke-miterlimit:4;stroke-opacity:1;stroke-dasharray:none"
         id="rect6932"
         width="18.053995"
         height="9.0257845"
         x="94.399391"
         y="-413.84613" />
      <rect
         style="fill:none;stroke:#000000;stroke-width:0.09;stroke-miterlimit:4;stroke-opacity:1;stroke-dasharray:none"
         id="rect6934"
         width="26.299213"
         height="8.5500002"
         x="157.3989"
         y="-485.58716" />
      <rect
         style="fill:none;stroke:#000000;stroke-width:0.09;stroke-miterlimit:4;stroke-opacity:1;stroke-dasharray:none"
         id="rect6936"
         width="26.549999"
         height="8.5500002"
         x="130.3989"
         y="-413.60825" />
      <rect
         style="fill:none;stroke:#000000;stroke-width:0.09;stroke-miterlimit:4;stroke-opacity:1;stroke-dasharray:none"
         id="rect6938"
         width="26.549999"
         height="8.5500002"
         x="166.3989"
         y="-413.60825" />
      <path
         sodipodi:type="arc"
         style="fill:none;stroke:#000000;stroke-width:0.0710825;stroke-miterlimit:4;stroke-opacity:1;stroke-dasharray:none"
         id="path6944"
         sodipodi:cx="333.7338"
         sodipodi:cy="699.59729"
         sodipodi:rx="4.182128"
         sodipodi:ry="4.3494129"
         d="m 337.91592,699.59729 c 0,2.40211 -1.8724,4.34941 -4.18212,4.34941 -2.30973,0 -4.18213,-1.9473 -4.18213,-4.34941 0,-2.40211 1.8724,-4.34941 4.18213,-4.34941 2.30972,0 4.18212,1.9473 4.18212,4.34941 z"
         transform="matrix(1.2912087,0,0,1.2415469,-305.02109,-1374.87)" />
      <path
         sodipodi:type="arc"
         style="fill:none;stroke:#000000;stroke-width:0.0710825;stroke-miterlimit:4;stroke-opacity:1;stroke-dasharray:none"
         id="path6944-1"
         sodipodi:cx="333.7338"
         sodipodi:cy="699.59729"
         sodipodi:rx="4.182128"
         sodipodi:ry="4.3494129"
         d="m 337.91592,699.59729 c 0,2.40211 -1.8724,4.34941 -4.18212,4.34941 -2.30973,0 -4.18213,-1.9473 -4.18213,-4.34941 0,-2.40211 1.8724,-4.34941 4.18213,-4.34941 2.30972,0 4.18212,1.9473 4.18212,4.34941 z"
         transform="matrix(1.2912087,0,0,1.2415469,-408.16109,-1374.87)" />
      <path
         inkscape:connector-curvature="0"
         id="rect3907"
         d="m 202.62701,-476.77247 0,44.09375 107.09375,0 0,-44.09375 -107.09375,0 z m 5.4375,12.75 7.21875,0 c 1.27071,2e-5 2.23606,0.0657 2.90625,0.1875 0.93997,0.15668 1.73963,0.43549 2.375,0.875 0.63534,0.43955 1.14393,1.05174 1.53125,1.84375 0.38729,0.79204 0.59373,1.67633 0.59375,2.625 -2e-5,1.62758 -0.52679,2.9979 -1.5625,4.125 -1.03574,1.12712 -2.91821,1.68751 -5.625,1.6875 l -4.90625,0 0,7.78125 -2.53125,0 0,-19.125 z m 49.03125,0 3.8125,0 4.53125,13.53125 c 0.41776,1.26202 0.71476,2.2171 0.90625,2.84375 0.21758,-0.69628 0.5387,-1.71344 1,-3.0625 l 4.59375,-13.3125 3.40625,0 0,19.125 -2.4375,0 0,-16 -5.5625,16 -2.28125,0 -5.53125,-16.28125 0,16.28125 -2.4375,0 0,-19.125 z m 22.0625,0 2.375,0 0,2.6875 -2.375,0 0,-2.6875 z m 20.84375,0 2.34375,0 0,2.6875 -2.34375,0 0,-2.6875 z m -89.40625,2.25 0,6.84375 4.96875,0 c 1.63626,10e-6 2.78116,-0.29699 3.46875,-0.90625 0.68757,-0.60924 1.03124,-1.48839 1.03125,-2.59375 -1e-5,-0.80071 -0.18905,-1.46115 -0.59375,-2.03125 -0.40473,-0.57007 -0.93229,-0.97346 -1.59375,-1.15625 -0.42649,-0.11313 -1.22614,-0.15623 -2.375,-0.15625 l -4.90625,0 z m 20.125,2.6875 c 0.79202,10e-6 1.58811,0.27646 2.40625,0.78125 l -0.78125,2.15625 c -0.57444,-0.33943 -1.17557,-0.49999 -1.75,-0.5 -0.51352,10e-6 -0.96594,0.15979 -1.375,0.46875 -0.40907,0.30899 -0.70093,0.73294 -0.875,1.28125 -0.26111,0.83555 -0.375,1.7578 -0.375,2.75 l 0,7.25 -2.375,0 0,-13.875 2.125,0 0,2.125 c 0.53962,-0.98349 1.04306,-1.65541 1.5,-1.96875 0.45693,-0.31331 0.95167,-0.46874 1.5,-0.46875 z m 9.46875,0 c 1.90607,10e-6 3.47769,0.62605 4.6875,1.875 1.20978,1.24897 1.81249,2.98551 1.8125,5.1875 -1e-5,1.78423 -0.27724,3.19609 -0.8125,4.21875 -0.53528,1.02267 -1.32109,1.80927 -2.34375,2.375 -1.02268,0.56573 -2.13396,0.84375 -3.34375,0.84375 -1.9409,0 -3.52201,-0.63039 -4.71875,-1.875 -1.19674,-1.24461 -1.78125,-3.03374 -1.78125,-5.375 0,-2.56754 0.69761,-4.45158 2.125,-5.6875 1.19238,-1.02701 2.66039,-1.56249 4.375,-1.5625 z m 51.4375,0 c 0.83553,10e-6 1.61185,0.16849 2.3125,0.46875 0.70063,0.30029 1.2456,0.70011 1.59375,1.1875 0.34813,0.48741 0.57948,1.04859 0.71875,1.71875 0.087,0.43519 0.12499,1.19331 0.125,2.28125 l 0,8.53125 -2.34375,0 0,-8.4375 c -10e-6,-0.95738 -0.0985,-1.65065 -0.28125,-2.125 -0.18278,-0.47433 -0.50312,-0.87337 -0.96875,-1.15625 -0.46565,-0.28285 -0.99835,-0.40624 -1.625,-0.40625 -1.00092,10e-6 -1.86701,0.30215 -2.59375,0.9375 -0.72675,0.63537 -1.09375,1.84948 -1.09375,3.625 l 0,7.5625 -2.34375,0 0,-13.875 2.09375,0 0,2 c 1.01831,-1.52311 2.48276,-2.31249 4.40625,-2.3125 z m -12.46875,0.3125 2.375,0 0,13.875 -2.375,0 0,-13.875 z m 20.84375,0 2.34375,0 0,13.875 -2.34375,0 0,-13.875 z m -59.8125,1.65625 c -1.17499,10e-6 -2.16289,0.43345 -2.9375,1.3125 -0.77462,0.87907 -1.15625,2.19323 -1.15625,3.96875 0,1.77553 0.38163,3.11659 1.15625,4 0.77461,0.88341 1.76251,1.3125 2.9375,1.3125 1.16627,0 2.13162,-0.42473 2.90625,-1.3125 0.77461,-0.88776 1.15624,-2.24345 1.15625,-4.0625 -1e-5,-1.71459 -0.37729,-3.02283 -1.15625,-3.90625 -0.77898,-0.8834 -1.74869,-1.31249 -2.90625,-1.3125 z"
         style="fill:#000000;fill-opacity:1;stroke:none" />
      <path
         id="text3932"
         transform="translate(0,-567.64025)"
         d="m 8.125,5.46875 0,107 134,0 0,-107 -134,0 z m 34.6875,0.0625 76.5,0 0,22.5 -37.625,0 0,2.25 -11.3125,0 0,5.84375 10.59375,0 0,2.25 -10.59375,0 0,6.5 11.75,0 0,2.28125 -14.28125,0 0,-19.125 -25.03125,0 0,-22.5 z m 25.03125,22.5 13.84375,0 0,-0.03125 -13.84375,0 0,0.03125 z M 21.59375,28 l 7.1875,0 c 1.46219,2e-5 2.61658,0.20646 3.5,0.59375 0.8834,0.38733 1.59328,0.97619 2.09375,1.78125 0.50044,0.8051 0.74998,1.65221 0.75,2.53125 -2e-5,0.81815 -0.24363,1.59012 -0.6875,2.3125 -0.4439,0.72241 -1.10355,1.30613 -2,1.75 1.15756,0.33945 2.03393,0.90062 2.65625,1.71875 0.62229,0.81814 0.93748,1.7922 0.9375,2.90625 -2e-5,0.89647 -0.18391,1.72974 -0.5625,2.5 -0.37862,0.77027 -0.84924,1.36348 -1.40625,1.78125 -0.55704,0.41777 -1.25387,0.72426 -2.09375,0.9375 -0.8399,0.21324 -1.87526,0.34375 -3.09375,0.34375 l -7.28125,0 0,-19.15625 z m 17.65625,0 2.375,0 0,2.71875 -2.375,0 0,-2.71875 z m -15.125,2.28125 0,5.78125 4.125,0 c 1.12275,1e-5 1.95009,-0.0708 2.4375,-0.21875 0.64405,-0.19147 1.1111,-0.52486 1.4375,-0.96875 0.32637,-0.44387 0.49999,-0.98606 0.5,-1.65625 -1e-5,-0.63535 -0.16414,-1.20444 -0.46875,-1.6875 -0.30464,-0.48303 -0.74678,-0.82156 -1.3125,-1 -0.56574,-0.17841 -1.5311,-0.24998 -2.90625,-0.25 l -3.8125,0 z m 26.1875,2.6875 c 1.63626,1e-5 2.96941,0.67707 4.03125,2 l 0,-1.6875 2.1875,0 0,12 c -1e-5,2.15848 -0.21673,3.66168 -0.65625,4.5625 -0.43954,0.90081 -1.14072,1.63403 -2.09375,2.15625 -0.95305,0.52221 -2.13869,0.78124 -3.53125,0.78125 -1.65368,-1e-5 -2.98169,-0.38085 -4,-1.125 -1.01832,-0.74416 -1.50357,-1.87799 -1.46875,-3.375 L 47.0625,48.625 c 0.0957,0.70499 0.34607,1.24047 0.78125,1.5625 0.58313,0.43517 1.39663,0.65625 2.40625,0.65625 1.08794,0 1.90815,-0.22108 2.5,-0.65625 0.59183,-0.43518 1.00985,-1.06043 1.21875,-1.84375 0.12184,-0.4787 0.16494,-1.46817 0.15625,-3 -1.02703,1.2098 -2.31193,1.8125 -3.84375,1.8125 -1.90608,0 -3.36183,-0.68734 -4.40625,-2.0625 -1.04443,-1.37516 -1.5625,-3.04526 -1.5625,-4.96875 0,-1.32293 0.24005,-2.53783 0.71875,-3.65625 0.47869,-1.1184 1.15298,-1.98449 2.0625,-2.59375 0.90952,-0.60924 1.99154,-0.90624 3.21875,-0.90625 z m 40.90625,0 c 1.18368,1e-5 2.16644,0.12775 2.90625,0.40625 0.73979,0.27853 1.27685,0.64039 1.625,1.0625 0.34813,0.42213 0.57948,0.9497 0.71875,1.59375 0.0783,0.40037 0.12499,1.14308 0.125,2.1875 l 0,3.125 c -1e-5,2.1846 0.0562,3.54622 0.15625,4.125 0.10008,0.57879 0.29782,1.15658 0.59375,1.6875 l -2.46875,0 c -0.24371,-0.4874 -0.39913,-1.06598 -0.46875,-1.71875 -0.87037,0.7398 -1.69493,1.25788 -2.5,1.5625 -0.80509,0.30462 -1.67118,0.46875 -2.59375,0.46875 -1.52313,0 -2.71312,-0.38085 -3.53125,-1.125 C 84.96311,45.5996 84.5625,44.65758 84.5625,43.5 c 0,-0.67887 0.15977,-1.31362 0.46875,-1.875 0.30897,-0.56137 0.71829,-1.0043 1.21875,-1.34375 0.50045,-0.33943 1.06084,-0.60717 1.6875,-0.78125 0.46128,-0.12184 1.16246,-0.2306 2.09375,-0.34375 1.89737,-0.22628 3.29102,-0.49916 4.1875,-0.8125 0.009,-0.32202 -1e-5,-0.50671 0,-0.59375 -1e-5,-0.95738 -0.21238,-1.63958 -0.65625,-2.03125 -0.60055,-0.53091 -1.50382,-0.81249 -2.6875,-0.8125 -1.10536,1e-5 -1.91094,0.20645 -2.4375,0.59375 -0.52657,0.38732 -0.90385,1.07901 -1.15625,2.0625 L 84.96875,37.25 C 85.17763,36.26651 85.5213,35.44866 86,34.84375 c 0.47869,-0.60488 1.15733,-1.0486 2.0625,-1.375 0.90516,-0.32637 1.96386,-0.49999 3.15625,-0.5 z m 13.59375,0 c 1.08794,1e-5 2.02126,0.15544 2.84375,0.46875 0.82248,0.31334 1.45208,0.74599 1.84375,1.28125 0.39165,0.53528 0.66453,1.25979 0.8125,2.15625 L 108,37.1875 c -0.10445,-0.71368 -0.4058,-1.28713 -0.90625,-1.6875 -0.50046,-0.40035 -1.21113,-0.59374 -2.125,-0.59375 -1.07925,1e-5 -1.85122,0.17442 -2.3125,0.53125 -0.46129,0.35686 -0.6875,0.77132 -0.6875,1.25 0,0.30463 0.0898,0.56881 0.28125,0.8125 0.19147,0.25241 0.49718,0.45964 0.90625,0.625 0.23499,0.087 0.91362,0.31168 2.0625,0.625 1.66237,0.44389 2.84287,0.81089 3.5,1.09375 0.65711,0.28287 1.15699,0.67914 1.53125,1.21875 0.37424,0.53963 0.56249,1.19928 0.5625,2 -1e-5,0.78332 -0.23058,1.52682 -0.6875,2.21875 -0.45695,0.69193 -1.10711,1.2464 -1.96875,1.625 -0.86166,0.3786 -1.84956,0.5625 -2.9375,0.5625 -1.80164,0 -3.14942,-0.37649 -4.09375,-1.125 C 100.18066,45.59525 99.57361,44.4709 99.3125,43 l 2.3125,-0.34375 c 0.13055,0.93128 0.49755,1.6289 1.09375,2.125 0.59619,0.4961 1.42946,0.75 2.5,0.75 1.07923,0 1.88403,-0.21672 2.40625,-0.65625 0.5222,-0.43953 0.78124,-0.97065 0.78125,-1.5625 -1e-5,-0.53091 -0.22622,-0.94537 -0.6875,-1.25 -0.32204,-0.20888 -1.12684,-0.45921 -2.40625,-0.78125 -1.72331,-0.43517 -2.92793,-0.80731 -3.59375,-1.125 -0.66582,-0.31767 -1.15621,-0.78236 -1.5,-1.34375 -0.34379,-0.56137 -0.53125,-1.16486 -0.53125,-1.84375 0,-0.61794 0.15463,-1.19217 0.4375,-1.71875 0.28286,-0.52655 0.66885,-0.96434 1.15625,-1.3125 0.36555,-0.2698 0.86899,-0.50036 1.5,-0.6875 0.631,-0.18711 1.30885,-0.28124 2.03125,-0.28125 z m -65.5625,0.3125 2.375,0 0,13.875 -2.375,0 0,-13.875 z m 73.03125,0 2.53125,0 2.875,8.03125 c 0.37425,1.01832 0.73532,2.09599 1.03125,3.21875 0.2698,-1.07924 0.56324,-2.12923 0.9375,-3.15625 l 2.96875,-8.09375 2.375,0 -5.28125,14.09375 c -0.56574,1.52312 -0.99918,2.58181 -1.3125,3.15625 -0.41778,0.77461 -0.89789,1.3263 -1.4375,1.6875 -0.53963,0.36119 -1.189,0.56249 -1.9375,0.5625 -0.45259,-1e-5 -0.97422,-0.0898 -1.53125,-0.28125 l -0.25,-2.21875 c 0.51351,0.13925 0.96079,0.21875 1.34375,0.21875 0.52221,0 0.93667,-0.10718 1.25,-0.28125 0.31332,-0.17407 0.58106,-0.40542 0.78125,-0.71875 0.14796,-0.235 0.38801,-0.81872 0.71875,-1.75 0.0435,-0.13055 0.0918,-0.3101 0.1875,-0.5625 l -5.25,-13.90625 z m -61.8125,1.625 c -1.04443,1e-5 -1.92516,0.43266 -2.65625,1.28125 -0.7311,0.84861 -1.09375,2.11018 -1.09375,3.78125 0,1.81905 0.37135,3.13321 1.09375,3.96875 0.72239,0.83554 1.6308,1.25 2.71875,1.25 1.07923,0 1.95639,-0.38756 2.6875,-1.21875 0.73109,-0.83119 1.12499,-2.16197 1.125,-3.9375 -1e-5,-1.69719 -0.4034,-2.95084 -1.15625,-3.8125 -0.75287,-0.86164 -1.65692,-1.31249 -2.71875,-1.3125 z M 24.125,38.3125 l 0,6.5625 4.75,0 c 0.81812,0 1.388,-0.002 1.71875,-0.0625 0.58313,-0.10444 1.07708,-0.28755 1.46875,-0.53125 0.39165,-0.2437 0.71633,-0.59686 0.96875,-1.0625 0.25239,-0.46564 0.37499,-1.01575 0.375,-1.625 -1e-5,-0.71369 -0.16571,-1.31718 -0.53125,-1.84375 -0.36556,-0.52656 -0.88285,-0.91175 -1.53125,-1.125 -0.64843,-0.21323 -1.59401,-0.31249 -2.8125,-0.3125 l -4.40625,0 z m 70.09375,1.875 c -0.85296,0.34815 -2.13786,0.63131 -3.84375,0.875 -0.9661,0.13926 -1.66214,0.29468 -2.0625,0.46875 -0.40037,0.17408 -0.68867,0.44617 -0.90625,0.78125 -0.21759,0.33509 -0.34375,0.71594 -0.34375,1.125 0,0.62666 0.2444,1.14473 0.71875,1.5625 0.47434,0.41777 1.17987,0.625 2.09375,0.625 0.90516,0 1.70125,-0.19774 2.40625,-0.59375 0.70498,-0.39601 1.23175,-0.93742 1.5625,-1.625 0.25239,-0.53091 0.37499,-1.30802 0.375,-2.34375 l 0,-0.875 z m -55.4375,21.25 6.59375,0 c 1.4883,2e-5 2.62292,0.0985 3.40625,0.28125 1.09664,0.25242 2.03787,0.6823 2.8125,1.34375 1.0096,0.85297 1.78078,1.95397 2.28125,3.28125 0.50044,1.32731 0.74998,2.85661 0.75,4.5625 -2e-5,1.4535 -0.19183,2.721 -0.53125,3.84375 -0.33946,1.12276 -0.75035,2.0458 -1.28125,2.78125 -0.53093,0.73545 -1.11901,1.32788 -1.75,1.75 -0.63102,0.42212 -1.38915,0.75116 -2.28125,0.96875 -0.89213,0.21759 -1.93619,0.3125 -3.09375,0.3125 l -6.90625,0 0,-19.125 z m 27.96875,0 2.34375,0 0,2.6875 -2.34375,0 0,-2.6875 z m -25.4375,2.25 0,14.625 4.09375,0 c 1.26201,0 2.2507,-0.10875 2.96875,-0.34375 0.71803,-0.23499 1.29226,-0.57352 1.71875,-1 0.60053,-0.60054 1.07115,-1.42353 1.40625,-2.4375 0.33507,-1.01396 0.49998,-2.2427 0.5,-3.6875 C 51.99998,68.84194 51.68835,67.3249 51.03125,66.25 50.37412,65.17513 49.56497,64.45932 48.625,64.09375 47.94611,63.83266 46.84946,63.68752 45.34375,63.6875 l -4.03125,0 z M 62.5,66.40625 c 0.13137,-0.0196 0.26917,0 0.40625,0 0.79202,1e-5 1.58811,0.24521 2.40625,0.75 L 64.5,69.34375 c -0.57444,-0.33943 -1.14432,-0.53124 -1.71875,-0.53125 -0.51352,1e-5 -0.96594,0.15979 -1.375,0.46875 -0.40907,0.30899 -0.70093,0.73294 -0.875,1.28125 -0.26111,0.83555 -0.40625,1.7578 -0.40625,2.75 l 0,7.25 -2.34375,0 0,-13.84375 2.125,0 0,2.09375 c 0.53962,-0.98349 1.04306,-1.62416 1.5,-1.9375 0.3427,-0.23499 0.69964,-0.41 1.09375,-0.46875 z m 28.5625,0 c 0.2282,-0.0201 0.44815,0 0.6875,0 1.85385,1e-5 3.38751,0.613 4.5625,1.875 1.17497,1.26203 1.74999,3.05472 1.75,5.34375 -1e-5,0.13926 0.009,0.34649 0,0.625 l -10.34375,0 c 0.087,1.52313 0.50663,2.69057 1.28125,3.5 0.77461,0.80943 1.74867,1.1875 2.90625,1.1875 0.86164,0 1.60949,-0.20366 2.21875,-0.65625 0.60924,-0.45258 1.08064,-1.19529 1.4375,-2.1875 L 98,76.40625 c -0.38297,1.41868 -1.12054,2.52918 -2.15625,3.3125 -1.03573,0.78332 -2.3586,1.15625 -3.96875,1.15625 -2.02793,0 -3.62447,-0.62604 -4.8125,-1.875 -1.18804,-1.24896 -1.78125,-2.99577 -1.78125,-5.25 0,-2.33254 0.61141,-4.14936 1.8125,-5.4375 1.05095,-1.1271 2.37137,-1.76535 3.96875,-1.90625 z m 14.5625,0 c 0.13137,-0.0196 0.26917,0 0.40625,0 0.79202,1e-5 1.61936,0.24521 2.4375,0.75 l -0.8125,2.1875 c -0.57444,-0.33943 -1.14432,-0.53124 -1.71875,-0.53125 -0.51352,1e-5 -0.99719,0.15979 -1.40625,0.46875 -0.40907,0.30899 -0.70093,0.73294 -0.875,1.28125 -0.26111,0.83555 -0.375,1.7578 -0.375,2.75 l 0,7.25 -2.34375,0 0,-13.84375 2.09375,0 0,2.09375 c 0.53962,-0.98349 1.04306,-1.62416 1.5,-1.9375 0.3427,-0.23499 0.69964,-0.41 1.09375,-0.46875 z m -38.875,0.3125 2.34375,0 0,13.84375 -2.34375,0 0,-13.84375 z m 4.53125,0 2.46875,0 L 76.71875,75 c 0.32203,0.89647 0.63643,1.84641 0.90625,2.8125 0.20888,-0.7311 0.50074,-1.62923 0.875,-2.65625 l 3.0625,-8.4375 2.4375,0 -5.25,13.84375 -2.1875,0 -5.28125,-13.84375 z m 20.5,1.59375 c -1.07925,1e-5 -1.9833,0.37137 -2.71875,1.09375 -0.73545,0.72241 -1.14042,1.69646 -1.21875,2.90625 l 7.75,0 c -0.10445,-1.16627 -0.41886,-2.04185 -0.90625,-2.625 -0.74852,-0.90516 -1.71387,-1.37499 -2.90625,-1.375 z"
         style="font-size:26.73733139px;font-style:normal;font-variant:normal;font-weight:normal;font-stretch:normal;text-align:center;line-height:125%;letter-spacing:0px;word-spacing:0px;writing-mode:lr-tb;text-anchor:middle;fill:#000000;fill-opacity:1;stroke:none;font-family:Sans;-inkscape-font-specification:Sans"
         inkscape:connector-curvature="0" />
      <text
         sodipodi:linespacing="125%"
         id="text3977"
         y="-486.64026"
         x="171"
         style="font-size:6.48844337px;font-style:normal;font-variant:normal;font-weight:normal;font-stretch:normal;text-align:center;line-height:125%;letter-spacing:0px;word-spacing:0px;writing-mode:lr-tb;text-anchor:middle;fill:#000000;fill-opacity:1;stroke:none;font-family:Sans;-inkscape-font-specification:Sans"
         xml:space="preserve"><tspan
           y="-486.64026"
           x="171"
           id="tspan3979"
           sodipodi:role="line">Serial</tspan><tspan
           id="tspan3981"
           y="-478.52969"
           x="171"
           sodipodi:role="line" /><tspan
           id="tspan4015"
           y="-470.41916"
           x="171"
           sodipodi:role="line">LCD</tspan></text>
      <text
         sodipodi:linespacing="125%"
         id="text3983"
         y="-415.18387"
         x="143.65015"
         style="font-size:6.48844337px;font-style:normal;font-variant:normal;font-weight:normal;font-stretch:normal;text-align:center;line-height:125%;letter-spacing:0px;word-spacing:0px;writing-mode:lr-tb;text-anchor:middle;fill:#000000;fill-opacity:1;stroke:none;font-family:Sans;-inkscape-font-specification:Sans"
         xml:space="preserve"><tspan
           y="-415.18387"
           x="143.65015"
           id="tspan3985"
           sodipodi:role="line">Servo</tspan><tspan
           id="tspan3987"
           y="-407.0733"
           x="143.65015"
           sodipodi:role="line" /><tspan
           id="tspan4017"
           y="-398.96277"
           x="143.65015"
           sodipodi:role="line">A</tspan></text>
      <text
         sodipodi:linespacing="125%"
         id="text3989"
         y="-415.18387"
         x="179.65015"
         style="font-size:6.48844337px;font-style:normal;font-variant:normal;font-weight:normal;font-stretch:normal;text-align:center;line-height:125%;letter-spacing:0px;word-spacing:0px;writing-mode:lr-tb;text-anchor:middle;fill:#000000;fill-opacity:1;stroke:none;font-family:Sans;-inkscape-font-specification:Sans"
         xml:space="preserve"><tspan
           y="-415.18387"
           x="179.65015"
           id="tspan3991"
           sodipodi:role="line">Servo</tspan><tspan
           id="tspan3993"
           y="-407.0733"
           x="179.65015"
           sodipodi:role="line" /><tspan
           id="tspan4019"
           y="-398.96277"
           x="179.65015"
           sodipodi:role="line">B</tspan></text>
      <text
         sodipodi:linespacing="125%"
         id="text3995"
         y="-443.80209"
         x="48.971127"
         style="font-size:6.48844337px;font-style:normal;font-variant:normal;font-weight:normal;font-stretch:normal;text-align:center;line-height:125%;letter-spacing:0px;word-spacing:0px;writing-mode:lr-tb;text-anchor:middle;fill:#000000;fill-opacity:1;stroke:none;font-family:Sans;-inkscape-font-specification:Sans"
         xml:space="preserve"><tspan
           y="-443.80209"
           x="48.971127"
           id="tspan3997"
           sodipodi:role="line">Clear</tspan></text>
      <text
         sodipodi:linespacing="125%"
         id="text3999"
         y="-443.84012"
         x="84.876091"
         style="font-size:6.48844337px;font-style:normal;font-variant:normal;font-weight:normal;font-stretch:normal;text-align:center;line-height:125%;letter-spacing:0px;word-spacing:0px;writing-mode:lr-tb;text-anchor:middle;fill:#000000;fill-opacity:1;stroke:none;font-family:Sans;-inkscape-font-specification:Sans"
         xml:space="preserve"><tspan
           y="-443.84012"
           x="84.876091"
           id="tspan4001"
           sodipodi:role="line">Enter</tspan></text>
      <text
         sodipodi:linespacing="125%"
         id="text4003"
         y="-444.48483"
         x="121.23409"
         style="font-size:6.48844337px;font-style:normal;font-variant:normal;font-weight:normal;font-stretch:normal;text-align:center;line-height:125%;letter-spacing:0px;word-spacing:0px;writing-mode:lr-tb;text-anchor:middle;fill:#000000;fill-opacity:1;stroke:none;font-family:Sans;-inkscape-font-specification:Sans"
         xml:space="preserve"><tspan
           y="-444.48483"
           x="121.23409"
           id="tspan4005"
           sodipodi:role="line">Toggle</tspan></text>
      <text
         sodipodi:linespacing="125%"
         id="text4007"
         y="-397.3562"
         x="67.063011"
         style="font-size:6.48844337px;font-style:normal;font-variant:normal;font-weight:normal;font-stretch:normal;text-align:center;line-height:125%;letter-spacing:0px;word-spacing:0px;writing-mode:lr-tb;text-anchor:middle;fill:#000000;fill-opacity:1;stroke:none;font-family:Sans;-inkscape-font-specification:Sans"
         xml:space="preserve"><tspan
           y="-397.3562"
           x="67.063011"
           id="tspan4009"
           sodipodi:role="line">UP</tspan></text>
      <text
         sodipodi:linespacing="125%"
         id="text4011"
         y="-397.35461"
         x="103.14855"
         style="font-size:6.48844337px;font-style:normal;font-variant:normal;font-weight:normal;font-stretch:normal;text-align:center;line-height:125%;letter-spacing:0px;word-spacing:0px;writing-mode:lr-tb;text-anchor:middle;fill:#000000;fill-opacity:1;stroke:none;font-family:Sans;-inkscape-font-specification:Sans"
         xml:space="preserve"><tspan
           y="-397.35461"
           x="103.14855"
           id="tspan4013"
           sodipodi:role="line">Down</tspan></text>
    </g>
  </g>
</svg>
