<?xml version="1.0" encoding="UTF-8" standalone="no"?>
<!-- Created with Inkscape (http://www.inkscape.org/) -->

<svg
   xmlns:dc="http://purl.org/dc/elements/1.1/"
   xmlns:cc="http://creativecommons.org/ns#"
   xmlns:rdf="http://www.w3.org/1999/02/22-rdf-syntax-ns#"
   xmlns:svg="http://www.w3.org/2000/svg"
   xmlns="http://www.w3.org/2000/svg"
   xmlns:sodipodi="http://sodipodi.sourceforge.net/DTD/sodipodi-0.dtd"
   xmlns:inkscape="http://www.inkscape.org/namespaces/inkscape"
   width="2160"
   height="1620"
   id="svg4099"
   version="1.1"
   inkscape:version="0.48.4 r9939"
   sodipodi:docname="Enclosure top and bottom .125 inch acrylic.svg">
  <defs
     id="defs4101" />
  <sodipodi:namedview
     id="base"
     pagecolor="#ffffff"
     bordercolor="#666666"
     borderopacity="1.0"
     inkscape:pageopacity="0.0"
     inkscape:pageshadow="2"
     inkscape:zoom="1.979899"
     inkscape:cx="374.71402"
     inkscape:cy="1422.5788"
     inkscape:document-units="in"
     inkscape:current-layer="layer1"
     showgrid="false"
     units="in"
     inkscape:window-width="1920"
     inkscape:window-height="1017"
     inkscape:window-x="-8"
     inkscape:window-y="-8"
     inkscape:window-maximized="1" />
  <metadata
     id="metadata4104">
    <rdf:RDF>
      <cc:Work
         rdf:about="">
        <dc:format>image/svg+xml</dc:format>
        <dc:type
           rdf:resource="http://purl.org/dc/dcmitype/StillImage" />
        <dc:title />
      </cc:Work>
    </rdf:RDF>
  </metadata>
  <g
     inkscape:label="Layer 1"
     inkscape:groupmode="layer"
     id="layer1"
     transform="translate(0,567.64025)">
    <path
       style="fill:none;stroke:#000000;stroke-width:0.09;stroke-miterlimit:4;stroke-opacity:1;stroke-dasharray:none"
       d="M 102.78125 34.28125 L 102.78125 394.28125 L 552.78125 394.28125 L 552.78125 34.28125 L 102.78125 34.28125 z M 152.90625 46.28125 C 155.98505 46.28125 158.5 48.76555 158.5 51.84375 C 158.5 54.92165 155.98505 57.40625 152.90625 57.40625 C 149.82755 57.40625 147.34375 54.92165 147.34375 51.84375 C 147.34375 48.76555 149.82755 46.28125 152.90625 46.28125 z M 327.78125 46.28125 C 330.86005 46.28125 333.34375 48.76555 333.34375 51.84375 C 333.34375 54.92165 330.86005 57.40625 327.78125 57.40625 C 324.70255 57.40625 322.21875 54.92165 322.21875 51.84375 C 322.21875 48.76555 324.70255 46.28125 327.78125 46.28125 z M 501.65625 46.28125 C 504.73505 46.28125 507.25 48.76555 507.25 51.84375 C 507.25 54.92165 504.73505 57.40625 501.65625 57.40625 C 498.57755 57.40625 496.09375 54.92165 496.09375 51.84375 C 496.09375 48.76555 498.57755 46.28125 501.65625 46.28125 z M 188.90625 76.40625 C 191.98505 76.40625 194.5 78.89055 194.5 81.96875 C 194.5 85.04665 191.98505 87.53125 188.90625 87.53125 C 185.82755 87.53125 183.34375 85.04665 183.34375 81.96875 C 183.34375 78.89055 185.82755 76.40625 188.90625 76.40625 z M 327.78125 76.40625 C 330.86005 76.40625 333.34375 78.89055 333.34375 81.96875 C 333.34375 85.04665 330.86005 87.53125 327.78125 87.53125 C 324.70255 87.53125 322.21875 85.04665 322.21875 81.96875 C 322.21875 78.89055 324.70255 76.40625 327.78125 76.40625 z M 465.65625 76.40625 C 468.73505 76.40625 471.25 78.89055 471.25 81.96875 C 471.25 85.04665 468.73505 87.53125 465.65625 87.53125 C 462.57755 87.53125 460.09375 85.04665 460.09375 81.96875 C 460.09375 78.89055 462.57755 76.40625 465.65625 76.40625 z M 479.875 114.84375 C 482.9537 114.84375 485.4375 117.32835 485.4375 120.40625 C 485.4375 123.48445 482.9537 126 479.875 126 C 476.7962 126 474.3125 123.48445 474.3125 120.40625 C 474.3125 117.32835 476.7962 114.84375 479.875 114.84375 z M 175.84375 115.21875 C 178.92255 115.21875 181.4375 117.70335 181.4375 120.78125 C 181.4375 123.85945 178.92255 126.34375 175.84375 126.34375 C 172.76505 126.34375 170.28125 123.85945 170.28125 120.78125 C 170.28125 117.70335 172.76505 115.21875 175.84375 115.21875 z M 472.71875 146.78125 L 517.71875 146.78125 L 517.71875 281.78125 L 472.71875 281.78125 L 472.71875 146.78125 z M 113.59375 149.5625 C 116.67255 149.5625 119.15625 152.07835 119.15625 155.15625 C 119.15625 158.23445 116.67255 160.71875 113.59375 160.71875 C 110.51505 160.71875 108.03125 158.23445 108.03125 155.15625 C 108.03125 152.07835 110.51505 149.5625 113.59375 149.5625 z M 541.96875 149.5625 C 545.04755 149.5625 547.53125 152.07835 547.53125 155.15625 C 547.53125 158.23445 545.04755 160.71875 541.96875 160.71875 C 538.89005 160.71875 536.40625 158.23445 536.40625 155.15625 C 536.40625 152.07835 538.89005 149.5625 541.96875 149.5625 z M 113.59375 257.5625 C 116.67255 257.5625 119.15625 260.07835 119.15625 263.15625 C 119.15625 266.23445 116.67255 268.71875 113.59375 268.71875 C 110.51505 268.71875 108.03125 266.23445 108.03125 263.15625 C 108.03125 260.07835 110.51505 257.5625 113.59375 257.5625 z M 541.96875 257.5625 C 545.04755 257.5625 547.53125 260.07835 547.53125 263.15625 C 547.53125 266.23445 545.04755 268.71875 541.96875 268.71875 C 538.89005 268.71875 536.40625 266.23445 536.40625 263.15625 C 536.40625 260.07835 538.89005 257.5625 541.96875 257.5625 z M 175.9375 312.40625 C 179.0162 312.40625 181.5 314.9219 181.5 318 C 181.5 321.0781 179.0162 323.5625 175.9375 323.5625 C 172.8587 323.5625 170.375 321.0781 170.375 318 C 170.375 314.9219 172.8587 312.40625 175.9375 312.40625 z M 479.84375 312.46875 C 482.92255 312.46875 485.4375 314.95335 485.4375 318.03125 C 485.4375 321.10945 482.92255 323.625 479.84375 323.625 C 476.76505 323.625 474.28125 321.10945 474.28125 318.03125 C 474.28125 314.95335 476.76505 312.46875 479.84375 312.46875 z M 188.90625 341.90625 C 191.98505 341.90625 194.5 344.39055 194.5 347.46875 C 194.5 350.54665 191.98505 353.03125 188.90625 353.03125 C 185.82755 353.03125 183.34375 350.54665 183.34375 347.46875 C 183.34375 344.39055 185.82755 341.90625 188.90625 341.90625 z M 327.78125 341.90625 C 330.86005 341.90625 333.34375 344.39055 333.34375 347.46875 C 333.34375 350.54665 330.86005 353.03125 327.78125 353.03125 C 324.70255 353.03125 322.21875 350.54665 322.21875 347.46875 C 322.21875 344.39055 324.70255 341.90625 327.78125 341.90625 z M 465.65625 341.90625 C 468.73505 341.90625 471.25 344.39055 471.25 347.46875 C 471.25 350.54665 468.73505 353.03125 465.65625 353.03125 C 462.57755 353.03125 460.09375 350.54665 460.09375 347.46875 C 460.09375 344.39055 462.57755 341.90625 465.65625 341.90625 z M 152.90625 371.15625 C 155.98505 371.15625 158.5 373.64055 158.5 376.71875 C 158.5 379.79665 155.98505 382.28125 152.90625 382.28125 C 149.82755 382.28125 147.34375 379.79665 147.34375 376.71875 C 147.34375 373.64055 149.82755 371.15625 152.90625 371.15625 z M 327.78125 371.15625 C 330.86005 371.15625 333.34375 373.64055 333.34375 376.71875 C 333.34375 379.79665 330.86005 382.28125 327.78125 382.28125 C 324.70255 382.28125 322.21875 379.79665 322.21875 376.71875 C 322.21875 373.64055 324.70255 371.15625 327.78125 371.15625 z M 501.65625 371.15625 C 504.73505 371.15625 507.25 373.64055 507.25 376.71875 C 507.25 379.79665 504.73505 382.28125 501.65625 382.28125 C 498.57755 382.28125 496.09375 379.79665 496.09375 376.71875 C 496.09375 373.64055 498.57755 371.15625 501.65625 371.15625 z "
       transform="translate(0,-567.64025)"
       id="rect3160" />
    <g
       id="g6529"
       transform="translate(-18.56474,-1155.3884)"
       style="stroke-width:0.09;stroke-miterlimit:4;stroke-dasharray:none">
      <path
         transform="translate(0,-567.64025)"
         id="rect3755"
         d="m 620.46875,1193.3438 0,336.5312 449.03125,0 0,-336.5312 -449.03125,0 z m 34.09375,29.2812 c 2.85807,0 5.1875,2.3294 5.1875,5.1875 0,2.8581 -2.32943,5.1563 -5.1875,5.1563 -2.85807,0 -5.15625,-2.2982 -5.15625,-5.1563 0,-2.8581 2.29818,-5.1875 5.15625,-5.1875 z m 343.71875,0 c 2.85805,0 5.18755,2.3294 5.18755,5.1875 0,2.8581 -2.3295,5.1563 -5.18755,5.1563 -2.85807,0 -5.15625,-2.2982 -5.15625,-5.1563 0,-2.8581 2.29818,-5.1875 5.15625,-5.1875 z m -257.34375,11.7188 252.90625,0 0,93.7812 -252.90625,0 0,-93.7812 z m -86.375,93.5 c 2.85807,0 5.1875,2.3295 5.1875,5.1874 0,2.8582 -2.32943,5.1563 -5.1875,5.1563 -2.85807,0 -5.15625,-2.2981 -5.15625,-5.1563 0,-2.8579 2.29818,-5.1874 5.15625,-5.1874 z m 343.71875,0 c 2.85805,0 5.18755,2.3295 5.18755,5.1874 0,2.8582 -2.3295,5.1563 -5.18755,5.1563 -2.85807,0 -5.15625,-2.2981 -5.15625,-5.1563 0,-2.8579 2.29818,-5.1874 5.15625,-5.1874 z m -366.40625,9.125 c 3.07874,0 5.5625,2.4845 5.5625,5.5624 0,3.0782 -2.48376,5.5626 -5.5625,5.5626 -3.07874,0 -5.5625,-2.4844 -5.5625,-5.5626 0,-3.0779 2.48376,-5.5624 5.5625,-5.5624 z m 426.2812,0 c 3.0789,0 5.5626,2.4845 5.5626,5.5624 0,3.0782 -2.4837,5.5626 -5.5626,5.5626 -3.0786,0 -5.5624,-2.4844 -5.5624,-5.5626 0,-3.0779 2.4838,-5.5624 5.5624,-5.5624 z m -348.2187,56.8437 c 27.08957,0 49.0625,21.9729 49.0625,49.0625 0,27.0896 -21.97293,49.0312 -49.0625,49.0312 -27.08957,0 -49.03125,-21.9416 -49.03125,-49.0312 0,-27.0896 21.94168,-49.0625 49.03125,-49.0625 z m 211.78125,2.5 c 6.41203,0 11.625,5.1818 11.625,11.5937 0,6.4122 -5.21297,11.625 -11.625,11.625 -6.41203,0 -11.59375,-5.2128 -11.59375,-11.625 0,-6.4119 5.18172,-11.5937 11.59375,-11.5937 z m 85.53125,16.5625 c 6.412,0 11.625,5.1816 11.625,11.5938 0,6.4119 -5.213,11.625 -11.625,11.625 -6.412,0 -11.59375,-5.2131 -11.59375,-11.625 0,-6.4122 5.18175,-11.5938 11.59375,-11.5938 z m -162.40625,2.8125 c 6.41203,0 11.59375,5.213 11.59375,11.625 0,6.412 -5.18172,11.5937 -11.59375,11.5937 -6.41203,0 -11.625,-5.1817 -11.625,-11.5937 0,-6.412 5.21297,-11.625 11.625,-11.625 z m 76.875,21.4375 c 6.41203,0 11.625,5.1816 11.625,11.5938 0,6.4119 -5.21297,11.625 -11.625,11.625 -6.41203,0 -11.59375,-5.2131 -11.59375,-11.625 0,-6.4122 5.18172,-11.5938 11.59375,-11.5938 z m -289.84375,7.8438 c 3.07874,0 5.5625,2.4845 5.5625,5.5624 0,3.0782 -2.48376,5.5626 -5.5625,5.5626 -3.07874,0 -5.5625,-2.4844 -5.5625,-5.5626 0,-3.0779 2.48376,-5.5624 5.5625,-5.5624 z m 426.2812,0 c 3.0789,0 5.5626,2.4845 5.5626,5.5624 0,3.0782 -2.4837,5.5626 -5.5626,5.5626 -3.0786,0 -5.5624,-2.4844 -5.5624,-5.5626 0,-3.0779 2.4838,-5.5624 5.5624,-5.5624 z"
         style="fill:none;stroke:#000000;stroke-width:0.09;stroke-miterlimit:4;stroke-opacity:1;stroke-dasharray:none"
         inkscape:connector-curvature="0" />
      <text
         sodipodi:linespacing="125%"
         id="text3028"
         y="813.55573"
         x="910.04321"
         style="font-size:40px;font-style:normal;font-weight:normal;line-height:125%;letter-spacing:0px;word-spacing:0px;fill:#000000;fill-opacity:1;stroke:none;font-family:Sans"
         xml:space="preserve"><tspan
           y="813.55573"
           x="910.04321"
           id="tspan3030"
           sodipodi:role="line">+</tspan></text>
      <text
         sodipodi:linespacing="125%"
         id="text3032"
         y="932.26282"
         x="915.05298"
         style="font-size:40px;font-style:normal;font-weight:normal;line-height:125%;letter-spacing:0px;word-spacing:0px;fill:#000000;fill-opacity:1;stroke:none;font-family:Sans"
         xml:space="preserve"><tspan
           y="932.26282"
           x="915.05298"
           id="tspan3034"
           sodipodi:role="line">-</tspan></text>
      <text
         sodipodi:linespacing="125%"
         id="text3042"
         y="808.38489"
         x="649.59991"
         style="font-size:40px;font-style:normal;font-weight:normal;line-height:125%;letter-spacing:0px;word-spacing:0px;fill:#000000;fill-opacity:1;stroke:none;font-family:Sans"
         xml:space="preserve"><tspan
           id="tspan3046"
           y="808.38489"
           x="649.59991"
           sodipodi:role="line">Cancel</tspan></text>
      <text
         sodipodi:linespacing="125%"
         id="text3078"
         y="831.38763"
         x="1007.4725"
         style="font-size:23.88488388px;font-style:normal;font-variant:normal;font-weight:normal;font-stretch:normal;text-align:center;line-height:125%;letter-spacing:0px;word-spacing:0px;writing-mode:lr-tb;text-anchor:middle;fill:#000000;fill-opacity:1;stroke:none;font-family:Sans;-inkscape-font-specification:Sans"
         xml:space="preserve"><tspan
           y="831.38763"
           x="1007.4725"
           id="tspan3080"
           sodipodi:role="line">Toggle</tspan><tspan
           id="tspan3082"
           y="861.24371"
           x="1007.4725"
           sodipodi:role="line" /><tspan
           id="tspan3084"
           y="891.09985"
           x="1007.4725"
           sodipodi:role="line">Mode</tspan></text>
      <text
         sodipodi:linespacing="125%"
         id="text3086"
         y="834.36188"
         x="844.39954"
         style="font-size:23.88488388px;font-style:normal;font-variant:normal;font-weight:normal;font-stretch:normal;text-align:center;line-height:125%;letter-spacing:0px;word-spacing:0px;writing-mode:lr-tb;text-anchor:middle;fill:#000000;fill-opacity:1;stroke:none;font-family:Sans;-inkscape-font-specification:Sans"
         xml:space="preserve"><tspan
           y="834.36188"
           x="844.39954"
           id="tspan3088"
           sodipodi:role="line">Start</tspan><tspan
           id="tspan3090"
           y="864.21796"
           x="844.39954"
           sodipodi:role="line" /><tspan
           id="tspan3092"
           y="894.0741"
           x="844.39954"
           sodipodi:role="line">Resume</tspan></text>
    </g>
  </g>
</svg>
