<?xml version="1.0" encoding="UTF-8" standalone="no"?>
<!-- Created with Inkscape (http://www.inkscape.org/) -->

<svg
   xmlns:dc="http://purl.org/dc/elements/1.1/"
   xmlns:cc="http://creativecommons.org/ns#"
   xmlns:rdf="http://www.w3.org/1999/02/22-rdf-syntax-ns#"
   xmlns:svg="http://www.w3.org/2000/svg"
   xmlns="http://www.w3.org/2000/svg"
   xmlns:sodipodi="http://sodipodi.sourceforge.net/DTD/sodipodi-0.dtd"
   xmlns:inkscape="http://www.inkscape.org/namespaces/inkscape"
   width="2160"
   height="1620"
   id="svg3107"
   version="1.1"
   inkscape:version="0.48.4 r9939"
   sodipodi:docname="Enclosure sides .25 acrylic.svg">
  <defs
     id="defs3109" />
  <sodipodi:namedview
     id="base"
     pagecolor="#ffffff"
     bordercolor="#666666"
     borderopacity="1.0"
     inkscape:pageopacity="0.0"
     inkscape:pageshadow="2"
     inkscape:zoom="0.64"
     inkscape:cx="787.76916"
     inkscape:cy="1227.9427"
     inkscape:document-units="in"
     inkscape:current-layer="layer1"
     showgrid="false"
     units="in"
     showguides="true"
     inkscape:guide-bbox="true"
     inkscape:window-width="1920"
     inkscape:window-height="1017"
     inkscape:window-x="-8"
     inkscape:window-y="-8"
     inkscape:window-maximized="1" />
  <metadata
     id="metadata3112">
    <rdf:RDF>
      <cc:Work
         rdf:about="">
        <dc:format>image/svg+xml</dc:format>
        <dc:type
           rdf:resource="http://purl.org/dc/dcmitype/StillImage" />
        <dc:title />
      </cc:Work>
    </rdf:RDF>
  </metadata>
  <g
     inkscape:label="Layer 1"
     inkscape:groupmode="layer"
     id="layer1"
     transform="translate(0,567.64025)">
    <rect
       style="fill:none;stroke:#000000;stroke-width:0.99000001;stroke-miterlimit:4;stroke-opacity:1;stroke-dasharray:none"
       id="rect4317"
       height="90"
       x="626.78571"
       y="1307.5"
       transform="translate(0,-567.64025)"
       width="0" />
    <text
       xml:space="preserve"
       style="font-size:21.69695282px;font-style:normal;font-variant:normal;font-weight:normal;font-stretch:normal;text-align:center;line-height:125%;letter-spacing:0px;word-spacing:0px;writing-mode:lr-tb;text-anchor:middle;fill:#000000;fill-opacity:1;stroke:none;font-family:Sans;-inkscape-font-specification:Sans"
       x="845.14673"
       y="837.48474"
       id="text3036"
       sodipodi:linespacing="125%"><tspan
         sodipodi:role="line"
         x="845.14673"
         y="837.48474"
         id="tspan3040" /></text>
    <path
       style="fill:none;stroke:#000000;stroke-width:0.09;stroke-miterlimit:4;stroke-opacity:1;stroke-dasharray:none"
       d="m 1372.5625,-297.70275 0,1 0,35.1875 0,8.8125 -22.5,0 0,45 22.5,0 0,1 0,16.375 38.3125,0 0,-5.625 10.25,0 0,5.625 29.1562,0 0,-5.625 10.2813,0 0,22.5 -10.2813,0 0,-5.625 -29.1562,0 0,5.625 -10.25,0 0,-5.625 -38.3125,0 0,16.375 -22.5,0 0,45 22.5,0 0,1 0,16.375 38.3125,0 0,-5.625 10.25,0 0,5.625 29.1562,0 0,-5.625 10.2813,0 0,5.625 0,11.25 0,5.625 -10.2813,0 0,-5.625 -29.1562,0 0,5.625 -10.25,0 0,-5.625 -38.3125,0 0,16.375 -22.5,0 0,45 22.5,0 0,1 0,44 -22.5,0 0,45 80.9375,0 0,-39.34375 -5.625,0 0,-10.25 5.625,0 0,-29.15625 -5.625,0 0,-10.25 22.5,0 0,10.25 -5.625,0 0,29.15625 5.625,0 0,10.25 -5.625,0 0,39.34375 127.1875,0 0,-39.34375 -5.625,0 0,-10.25 5.625,0 0,-29.15625 -5.625,0 0,-10.25 5.625,0 11.25,0 5.625,0 0,10.25 -5.625,0 0,29.15625 5.625,0 0,10.25 -5.625,0 0,39.34375 127.0625,0 0,-39.375 -5.625,0 0,-10.25 5.625,0 0,-29.125 -5.625,0 0,-10.25 5.625,0 0,-1 11.25,0 0,1 5.625,0 0,10.25 -5.625,0 0,29.125 5.625,0 0,10.25 -5.625,0 0,39.375 81.0625,0 0,-45 -22.5,0 0,-44 0,-1 22.5,0 0,-45 -22.5,0 0,-16.375 -38.3437,0 0,5.625 -10.25,0 0,-5.625 -29.1563,0 0,5.625 -10.25,0 0,-5.625 0,-11.25 0,-5.625 10.25,0 0,5.625 29.1563,0 0,-5.625 10.25,0 0,5.625 38.3437,0 0,-16.375 0,-1 22.5,0 0,-45 -22.5,0 0,-16.375 -38.3437,0 0,5.625 -10.25,0 0,-5.625 -29.1563,0 0,5.625 -10.25,0 0,-5.625 0,-11.25 0,-5.625 10.25,0 0,5.625 29.1563,0 0,-5.625 10.25,0 0,5.625 38.3437,0 0,-16.375 0,-1 22.5,0 0,-45 -22.5,0 0,-38.09375 0,-5.90625 0,-1 -405,0 z m -11.25,152.875 c 2.8332,0 5.125,2.29178 5.125,5.125 0,2.83322 -2.2918,5.125 -5.125,5.125 -2.8332,0 -5.1563,-2.29178 -5.1563,-5.125 0,-2.83322 2.3231,-5.125 5.1563,-5.125 z m 427.5,0 c 2.8332,0 5.125,2.29178 5.125,5.125 0,2.83322 -2.2918,5.125 -5.125,5.125 -2.8332,0 -5.1563,-2.29178 -5.1563,-5.125 0,-2.83322 2.3231,-5.125 5.1563,-5.125 z"
       id="rect4276"
       inkscape:connector-curvature="0" />
    <g
       id="g4042">
      <path
         id="path3872"
         transform="translate(0,-567.64025)"
         d="M 377.9375 73.9375 L 254.5625 150.21875 L 275.25 183.34375 L 280.03125 180.375 L 285.46875 189.09375 L 280.6875 192.0625 L 296.125 216.8125 L 300.9375 213.84375 L 306.375 222.5625 L 301.59375 225.53125 L 292 231.46875 L 287.21875 234.4375 L 281.78125 225.71875 L 286.53125 222.75 L 271.09375 198 L 266.3125 200.96875 L 260.90625 192.25 L 265.65625 189.28125 L 244.96875 156.15625 L 162.5 207.15625 L 183.28125 240.40625 L 188.09375 237.4375 L 193.5 246.15625 L 188.71875 249.125 L 204.15625 273.875 L 208.96875 270.90625 L 214.40625 279.625 L 209.625 282.59375 L 200.03125 288.53125 L 195.25 291.5 L 189.8125 282.8125 L 194.59375 279.84375 L 179.15625 255.09375 L 174.34375 258.0625 L 168.9375 249.34375 L 173.6875 246.375 L 152.90625 213.0625 L 90.0625 251.9375 L 90.0625 314.9375 L 112.5625 314.9375 L 112.5625 315.9375 L 112.625 315.9375 L 112.625 359.9375 L 112.5625 359.9375 L 90.0625 359.9375 L 90.0625 404.9375 L 112.5625 404.9375 L 112.5625 405.9375 L 112.625 405.9375 L 112.625 422.3125 L 151.0625 422.3125 L 151.0625 416.6875 L 161.34375 416.6875 L 161.34375 422.3125 L 190.625 422.3125 L 190.625 416.6875 L 200.90625 416.6875 L 200.90625 422.3125 L 200.90625 433.5625 L 200.90625 439.1875 L 190.625 439.1875 L 190.625 433.5625 L 161.34375 433.5625 L 161.34375 439.1875 L 151.0625 439.1875 L 151.0625 433.5625 L 112.625 433.5625 L 112.625 449.9375 L 112.5625 449.9375 L 90.0625 449.9375 L 90.0625 494.9375 L 112.5625 494.9375 L 112.5625 495.9375 L 112.625 495.9375 L 112.625 539.9375 L 112.5625 539.9375 L 90.0625 539.9375 L 90.0625 584.9375 L 112.5625 584.9375 L 112.5625 585.9375 L 112.625 585.9375 L 112.625 629.9375 L 180.34375 629.9375 L 180.34375 590.625 L 174.6875 590.625 L 174.6875 580.34375 L 180.34375 580.34375 L 180.34375 551.1875 L 174.6875 551.1875 L 174.6875 540.9375 L 180.34375 540.9375 L 191.625 540.9375 L 197.25 540.9375 L 197.25 551.1875 L 191.625 551.1875 L 191.625 580.34375 L 197.25 580.34375 L 197.25 590.625 L 191.625 590.625 L 191.625 629.9375 L 288.65625 629.9375 L 288.65625 590.625 L 283.03125 590.625 L 283.03125 580.34375 L 288.65625 580.34375 L 288.65625 551.1875 L 283.03125 551.1875 L 283.03125 540.9375 L 288.65625 540.9375 L 299.9375 540.9375 L 305.59375 540.9375 L 305.59375 551.1875 L 299.9375 551.1875 L 299.9375 580.34375 L 305.59375 580.34375 L 305.59375 590.625 L 299.9375 590.625 L 299.9375 629.9375 L 355.375 629.9375 L 355.375 585.9375 L 355.4375 585.9375 L 355.4375 584.9375 L 377.9375 584.9375 L 377.9375 539.9375 L 355.4375 539.9375 L 355.375 539.9375 L 355.375 495.9375 L 355.4375 495.9375 L 355.4375 494.9375 L 377.9375 494.9375 L 377.9375 449.9375 L 355.4375 449.9375 L 355.375 449.9375 L 355.375 405.9375 L 355.4375 405.9375 L 355.4375 404.9375 L 377.9375 404.9375 L 377.9375 359.9375 L 355.4375 359.9375 L 355.375 359.9375 L 355.375 343.5625 L 316.9375 343.5625 L 316.9375 349.1875 L 306.625 349.1875 L 306.625 343.5625 L 277.375 343.5625 L 277.375 349.1875 L 267.09375 349.1875 L 267.09375 343.5625 L 267.09375 332.3125 L 267.09375 326.6875 L 277.375 326.6875 L 277.375 332.3125 L 306.625 332.3125 L 306.625 326.6875 L 316.9375 326.6875 L 316.9375 332.3125 L 355.375 332.3125 L 355.375 315.9375 L 355.4375 315.9375 L 355.4375 314.9375 L 377.9375 314.9375 L 377.9375 269.9375 L 355.4375 269.9375 L 355.375 269.9375 L 355.375 225.9375 L 355.4375 225.9375 L 355.4375 224.9375 L 377.9375 224.9375 L 377.9375 179.9375 L 355.4375 179.9375 L 355.375 179.9375 L 355.375 135.9375 L 355.4375 135.9375 L 355.4375 134.9375 L 377.9375 134.9375 L 377.9375 73.9375 z M 366.65625 197.84375 C 369.49811 197.84375 371.78125 200.13553 371.78125 202.96875 C 371.78125 205.80197 369.49811 208.125 366.65625 208.125 C 363.81439 208.125 361.5 205.80197 361.5 202.96875 C 361.5 200.13553 363.81439 197.84375 366.65625 197.84375 z M 101.34375 377.75 C 104.1856 377.75 106.5 380.07303 106.5 382.90625 C 106.5 385.73947 104.1856 388.03125 101.34375 388.03125 C 98.501889 388.03125 96.21875 385.73947 96.21875 382.90625 C 96.21875 380.07303 98.501889 377.75 101.34375 377.75 z M 296.1875 432.71875 C 307.40536 432.71875 316.5 441.78498 316.5 452.96875 C 316.5 464.15252 307.40536 473.21875 296.1875 473.21875 C 284.96964 473.21875 275.875 464.15252 275.875 452.96875 C 275.875 441.78498 284.96964 432.71875 296.1875 432.71875 z M 101.34375 467.75 C 104.1856 467.75 106.5 470.07303 106.5 472.90625 C 106.5 475.73947 104.1856 478.03125 101.34375 478.03125 C 98.501889 478.03125 96.21875 475.73947 96.21875 472.90625 C 96.21875 470.07303 98.501889 467.75 101.34375 467.75 z M 366.65625 467.84375 C 369.49811 467.84375 371.78125 470.13553 371.78125 472.96875 C 371.78125 475.80197 369.49811 478.125 366.65625 478.125 C 363.81439 478.125 361.5 475.80197 361.5 472.96875 C 361.5 470.13553 363.81439 467.84375 366.65625 467.84375 z "
         style="fill:none;stroke:#000000;stroke-width:0.09;stroke-miterlimit:4;stroke-opacity:1;stroke-dasharray:none" />
      <text
         transform="matrix(0,1,-1,0,0,0)"
         sodipodi:linespacing="125%"
         id="text3016"
         y="-233.38965"
         x="-188.64891"
         style="font-size:28.21859932px;font-style:normal;font-weight:normal;line-height:125%;letter-spacing:0px;word-spacing:0px;fill:#000000;fill-opacity:1;stroke:none;font-family:Sans"
         xml:space="preserve"><tspan
           id="tspan3020"
           y="-233.38965"
           x="-188.64891"
           sodipodi:role="line">Motor Kill</tspan></text>
    </g>
    <path
       style="fill:none;stroke:#000000;stroke-width:0.09;stroke-miterlimit:4;stroke-opacity:1;stroke-dasharray:none"
       d="M 472.5625 91.4375 L 472.5625 134.9375 L 450.0625 134.9375 L 450.0625 179.9375 L 472.5625 179.9375 L 472.5625 180.9375 L 472.5625 197.3125 L 510.875 197.3125 L 510.875 191.6875 L 521.125 191.6875 L 521.125 197.3125 L 550.28125 197.3125 L 550.28125 191.6875 L 560.5625 191.6875 L 560.5625 214.1875 L 550.28125 214.1875 L 550.28125 208.5625 L 521.125 208.5625 L 521.125 214.1875 L 510.875 214.1875 L 510.875 208.5625 L 472.5625 208.5625 L 472.5625 224.9375 L 450.0625 224.9375 L 450.0625 269.9375 L 472.5625 269.9375 L 472.5625 270.9375 L 472.5625 314.9375 L 450.0625 314.9375 L 450.0625 359.9375 L 472.5625 359.9375 L 472.5625 360.9375 L 472.5625 404.9375 L 450.0625 404.9375 L 450.0625 449.9375 L 472.5625 449.9375 L 472.5625 450.9375 L 472.5625 467.3125 L 510.875 467.3125 L 510.875 461.6875 L 521.125 461.6875 L 521.125 467.3125 L 550.28125 467.3125 L 550.28125 461.6875 L 560.5625 461.6875 L 560.5625 467.3125 L 560.5625 478.5625 L 560.5625 484.1875 L 550.28125 484.1875 L 550.28125 478.5625 L 521.125 478.5625 L 521.125 484.1875 L 510.875 484.1875 L 510.875 478.5625 L 472.5625 478.5625 L 472.5625 494.9375 L 450.0625 494.9375 L 450.0625 539.9375 L 472.5625 539.9375 L 472.5625 540.9375 L 472.5625 584.9375 L 450.0625 584.9375 L 450.0625 629.9375 L 531.03125 629.9375 L 531.03125 590.625 L 525.40625 590.625 L 525.40625 580.34375 L 531.03125 580.34375 L 531.03125 551.1875 L 525.40625 551.1875 L 525.40625 540.9375 L 547.90625 540.9375 L 547.90625 551.1875 L 542.28125 551.1875 L 542.28125 580.34375 L 547.90625 580.34375 L 547.90625 590.625 L 542.28125 590.625 L 542.28125 629.9375 L 669.4375 629.9375 L 669.4375 590.625 L 663.8125 590.625 L 663.8125 580.34375 L 669.4375 580.34375 L 669.4375 551.1875 L 663.8125 551.1875 L 663.8125 540.9375 L 669.4375 540.9375 L 680.6875 540.9375 L 686.3125 540.9375 L 686.3125 551.1875 L 680.6875 551.1875 L 680.6875 580.34375 L 686.3125 580.34375 L 686.3125 590.625 L 680.6875 590.625 L 680.6875 629.9375 L 807.78125 629.9375 L 807.78125 590.625 L 802.15625 590.625 L 802.15625 580.34375 L 807.78125 580.34375 L 807.78125 551.1875 L 802.15625 551.1875 L 802.15625 540.9375 L 824.65625 540.9375 L 824.65625 551.1875 L 819.03125 551.1875 L 819.03125 580.34375 L 824.65625 580.34375 L 824.65625 590.625 L 819.03125 590.625 L 819.03125 629.9375 L 900.0625 629.9375 L 900.0625 584.9375 L 877.5625 584.9375 L 877.5625 540.9375 L 877.5625 539.9375 L 900.0625 539.9375 L 900.0625 494.9375 L 877.5625 494.9375 L 877.5625 478.5625 L 839.25 478.5625 L 839.25 484.1875 L 828.96875 484.1875 L 828.96875 478.5625 L 799.8125 478.5625 L 799.8125 484.1875 L 789.5625 484.1875 L 789.5625 478.5625 L 789.5625 467.3125 L 789.5625 461.6875 L 799.8125 461.6875 L 799.8125 467.3125 L 828.96875 467.3125 L 828.96875 461.6875 L 839.25 461.6875 L 839.25 467.3125 L 877.5625 467.3125 L 877.5625 450.9375 L 877.5625 449.9375 L 900.0625 449.9375 L 900.0625 404.9375 L 877.5625 404.9375 L 877.5625 360.9375 L 877.5625 359.9375 L 900.0625 359.9375 L 900.0625 314.9375 L 877.5625 314.9375 L 877.5625 270.9375 L 877.5625 269.9375 L 900.0625 269.9375 L 900.0625 224.9375 L 877.5625 224.9375 L 877.5625 208.5625 L 839.25 208.5625 L 839.25 214.1875 L 828.96875 214.1875 L 828.96875 208.5625 L 799.8125 208.5625 L 799.8125 214.1875 L 789.5625 214.1875 L 789.5625 208.5625 L 789.5625 197.3125 L 789.5625 191.6875 L 799.8125 191.6875 L 799.8125 197.3125 L 828.96875 197.3125 L 828.96875 191.6875 L 839.25 191.6875 L 839.25 197.3125 L 877.5625 197.3125 L 877.5625 180.9375 L 877.5625 179.9375 L 900.0625 179.9375 L 900.0625 134.9375 L 877.5625 134.9375 L 877.5625 91.4375 L 720.0625 91.4375 L 720.0625 136.4375 L 630.0625 136.4375 L 630.0625 91.4375 L 472.5625 91.4375 z M 461.3125 332.84375 C 464.14572 332.84375 466.4375 335.13553 466.4375 337.96875 C 466.4375 340.80197 464.14572 343.125 461.3125 343.125 C 458.47928 343.125 456.1875 340.80197 456.1875 337.96875 C 456.1875 335.13553 458.47928 332.84375 461.3125 332.84375 z M 888.8125 332.84375 C 891.6458 332.84375 893.9375 335.13553 893.9375 337.96875 C 893.9375 340.80197 891.6458 343.125 888.8125 343.125 C 885.9793 343.125 883.6875 340.80197 883.6875 337.96875 C 883.6875 335.13553 885.9793 332.84375 888.8125 332.84375 z "
       transform="translate(0,-567.64025)"
       id="rect4276-3" />
    <path
       style="fill:none;stroke:#000000;stroke-width:0.09;stroke-miterlimit:4;stroke-opacity:1;stroke-dasharray:none"
       d="M 990.0625 73.9375 L 990.0625 134.9375 L 1012.5625 134.9375 L 1012.5625 135.9375 L 1012.625 135.9375 L 1012.625 179.9375 L 1012.5625 179.9375 L 990.0625 179.9375 L 990.0625 224.9375 L 1012.5625 224.9375 L 1012.5625 225.9375 L 1012.625 225.9375 L 1012.625 269.9375 L 1012.5625 269.9375 L 990.0625 269.9375 L 990.0625 314.9375 L 1012.5625 314.9375 L 1012.5625 315.9375 L 1012.625 315.9375 L 1012.625 332.3125 L 1051.0625 332.3125 L 1051.0625 326.6875 L 1061.3438 326.6875 L 1061.3438 332.3125 L 1090.5938 332.3125 L 1090.5938 326.6875 L 1100.9062 326.6875 L 1100.9062 332.3125 L 1100.9062 343.5625 L 1100.9062 349.1875 L 1090.5938 349.1875 L 1090.5938 343.5625 L 1061.3438 343.5625 L 1061.3438 349.1875 L 1051.0625 349.1875 L 1051.0625 343.5625 L 1012.625 343.5625 L 1012.625 359.9375 L 1012.5625 359.9375 L 990.0625 359.9375 L 990.0625 404.9375 L 1012.5625 404.9375 L 1012.5625 405.9375 L 1012.625 405.9375 L 1012.625 449.9375 L 1012.5625 449.9375 L 990.0625 449.9375 L 990.0625 494.9375 L 1012.5625 494.9375 L 1012.5625 495.9375 L 1012.625 495.9375 L 1012.625 539.9375 L 1012.5625 539.9375 L 990.0625 539.9375 L 990.0625 584.9375 L 1012.5625 584.9375 L 1012.5625 585.9375 L 1012.625 585.9375 L 1012.625 629.9375 L 1068.0625 629.9375 L 1068.0625 590.625 L 1062.4062 590.625 L 1062.4062 580.34375 L 1068.0625 580.34375 L 1068.0625 551.1875 L 1062.4062 551.1875 L 1062.4062 540.9375 L 1084.9688 540.9375 L 1084.9688 551.1875 L 1079.3438 551.1875 L 1079.3438 580.34375 L 1084.9688 580.34375 L 1084.9688 590.625 L 1079.3438 590.625 L 1079.3438 629.9375 L 1176.375 629.9375 L 1176.375 590.625 L 1170.75 590.625 L 1170.75 580.34375 L 1176.375 580.34375 L 1176.375 551.1875 L 1170.75 551.1875 L 1170.75 540.9375 L 1176.375 540.9375 L 1187.6562 540.9375 L 1193.3125 540.9375 L 1193.3125 551.1875 L 1187.6562 551.1875 L 1187.6562 580.34375 L 1193.3125 580.34375 L 1193.3125 590.625 L 1187.6562 590.625 L 1187.6562 629.9375 L 1255.375 629.9375 L 1255.375 585.9375 L 1255.4375 585.9375 L 1255.4375 584.9375 L 1277.9375 584.9375 L 1277.9375 539.9375 L 1255.4375 539.9375 L 1255.375 539.9375 L 1255.375 495.9375 L 1255.4375 495.9375 L 1255.4375 494.9375 L 1277.9375 494.9375 L 1277.9375 449.9375 L 1255.4375 449.9375 L 1255.375 449.9375 L 1255.375 433.5625 L 1216.9062 433.5625 L 1216.9062 439.1875 L 1206.625 439.1875 L 1206.625 433.5625 L 1177.375 433.5625 L 1177.375 439.1875 L 1167.0938 439.1875 L 1167.0938 433.5625 L 1167.0938 422.3125 L 1167.0938 416.6875 L 1177.375 416.6875 L 1177.375 422.3125 L 1206.625 422.3125 L 1206.625 416.6875 L 1216.9062 416.6875 L 1216.9062 422.3125 L 1255.375 422.3125 L 1255.375 405.9375 L 1255.4375 405.9375 L 1255.4375 404.9375 L 1277.9375 404.9375 L 1277.9375 359.9375 L 1255.4375 359.9375 L 1255.375 359.9375 L 1255.375 315.9375 L 1255.4375 315.9375 L 1255.4375 314.9375 L 1277.9375 314.9375 L 1277.9375 251.9375 L 1215.0625 213.0625 L 1194.2812 246.375 L 1199.0625 249.34375 L 1193.6562 258.0625 L 1188.8125 255.0625 L 1173.375 279.84375 L 1178.1562 282.8125 L 1172.75 291.5 L 1153.5938 279.625 L 1159 270.90625 L 1163.8125 273.90625 L 1179.25 249.125 L 1174.4688 246.15625 L 1179.9062 237.4375 L 1184.7188 240.40625 L 1205.5 207.15625 L 1123 156.15625 L 1102.3125 189.28125 L 1107.0938 192.25 L 1101.6562 200.96875 L 1096.875 198 L 1081.4375 222.75 L 1086.1875 225.71875 L 1080.7812 234.4375 L 1075.9688 231.46875 L 1066.375 225.53125 L 1061.625 222.5625 L 1067.0312 213.84375 L 1071.8438 216.8125 L 1087.2812 192.0625 L 1082.5 189.09375 L 1087.9688 180.375 L 1092.75 183.34375 L 1113.4375 150.21875 L 990.0625 73.9375 z M 1001.3438 197.84375 C 1004.1856 197.84375 1006.5 200.13553 1006.5 202.96875 C 1006.5 205.80197 1004.1855 208.125 1001.3438 208.125 C 998.5019 208.125 996.21875 205.80197 996.21875 202.96875 C 996.21875 200.13553 998.5019 197.84375 1001.3438 197.84375 z M 1266.6562 377.75 C 1269.4981 377.75 1271.7812 380.07303 1271.7812 382.90625 C 1271.7812 385.73947 1269.4981 388.03125 1266.6562 388.03125 C 1263.8145 388.03125 1261.5 385.73947 1261.5 382.90625 C 1261.5 380.07303 1263.8145 377.75 1266.6562 377.75 z M 1266.6562 467.75 C 1269.4981 467.75 1271.7812 470.07303 1271.7812 472.90625 C 1271.7812 475.73947 1269.4981 478.03125 1266.6562 478.03125 C 1263.8145 478.03125 1261.5 475.73947 1261.5 472.90625 C 1261.5 470.07303 1263.8145 467.75 1266.6562 467.75 z M 1001.3438 467.84375 C 1004.1856 467.84375 1006.5 470.13553 1006.5 472.96875 C 1006.5 475.80197 1004.1855 478.125 1001.3438 478.125 C 998.5019 478.125 996.21875 475.80197 996.21875 472.96875 C 996.21875 470.13553 998.5019 467.84375 1001.3438 467.84375 z "
       transform="translate(0,-567.64025)"
       id="rect4585-8-5" />
  </g>
</svg>
