<?xml version="1.0" encoding="UTF-8" standalone="no"?>
<!-- Created with Inkscape (http://www.inkscape.org/) -->

<svg
   xmlns:dc="http://purl.org/dc/elements/1.1/"
   xmlns:cc="http://creativecommons.org/ns#"
   xmlns:rdf="http://www.w3.org/1999/02/22-rdf-syntax-ns#"
   xmlns:svg="http://www.w3.org/2000/svg"
   xmlns="http://www.w3.org/2000/svg"
   xmlns:sodipodi="http://sodipodi.sourceforge.net/DTD/sodipodi-0.dtd"
   xmlns:inkscape="http://www.inkscape.org/namespaces/inkscape"
   width="2160"
   height="1620"
   id="svg3107"
   version="1.1"
   inkscape:version="0.48.4 r9939"
   sodipodi:docname="enclosure cut ready.svg">
  <defs
     id="defs3109" />
  <sodipodi:namedview
     id="base"
     pagecolor="#ffffff"
     bordercolor="#666666"
     borderopacity="1.0"
     inkscape:pageopacity="0.0"
     inkscape:pageshadow="2"
     inkscape:zoom="1.8101934"
     inkscape:cx="313.99265"
     inkscape:cy="728.65462"
     inkscape:document-units="in"
     inkscape:current-layer="layer1"
     showgrid="false"
     units="in"
     showguides="true"
     inkscape:guide-bbox="true"
     inkscape:window-width="1920"
     inkscape:window-height="1017"
     inkscape:window-x="-8"
     inkscape:window-y="-8"
     inkscape:window-maximized="1" />
  <metadata
     id="metadata3112">
    <rdf:RDF>
      <cc:Work
         rdf:about="">
        <dc:format>image/svg+xml</dc:format>
        <dc:type
           rdf:resource="http://purl.org/dc/dcmitype/StillImage" />
        <dc:title />
      </cc:Work>
    </rdf:RDF>
  </metadata>
  <g
     inkscape:label="Layer 1"
     inkscape:groupmode="layer"
     id="layer1"
     transform="translate(0,567.64025)">
    <path
       style="fill:none;stroke:#000000;stroke-width:0.09;stroke-miterlimit:4;stroke-opacity:1;stroke-dasharray:none"
       d="M 61.96875 719.9375 L 61.96875 1079.9375 L 511.96875 1079.9375 L 511.96875 719.9375 L 61.96875 719.9375 z M 112.09375 731.9375 C 115.17255 731.9375 117.6875 734.4218 117.6875 737.5 C 117.6875 740.5779 115.17255 743.0625 112.09375 743.0625 C 109.01505 743.0625 106.53125 740.5779 106.53125 737.5 C 106.53125 734.4218 109.01505 731.9375 112.09375 731.9375 z M 286.96875 731.9375 C 290.04755 731.9375 292.53125 734.4218 292.53125 737.5 C 292.53125 740.5779 290.04755 743.0625 286.96875 743.0625 C 283.89005 743.0625 281.40625 740.5779 281.40625 737.5 C 281.40625 734.4218 283.89005 731.9375 286.96875 731.9375 z M 460.84375 731.9375 C 463.92255 731.9375 466.4375 734.4218 466.4375 737.5 C 466.4375 740.5779 463.92255 743.0625 460.84375 743.0625 C 457.76505 743.0625 455.28125 740.5779 455.28125 737.5 C 455.28125 734.4218 457.76505 731.9375 460.84375 731.9375 z M 148.09375 762.0625 C 151.17255 762.0625 153.6875 764.5468 153.6875 767.625 C 153.6875 770.7029 151.17255 773.1875 148.09375 773.1875 C 145.01505 773.1875 142.53125 770.7029 142.53125 767.625 C 142.53125 764.5468 145.01505 762.0625 148.09375 762.0625 z M 286.96875 762.0625 C 290.04755 762.0625 292.53125 764.5468 292.53125 767.625 C 292.53125 770.7029 290.04755 773.1875 286.96875 773.1875 C 283.89005 773.1875 281.40625 770.7029 281.40625 767.625 C 281.40625 764.5468 283.89005 762.0625 286.96875 762.0625 z M 424.84375 762.0625 C 427.92255 762.0625 430.4375 764.5468 430.4375 767.625 C 430.4375 770.7029 427.92255 773.1875 424.84375 773.1875 C 421.76505 773.1875 419.28125 770.7029 419.28125 767.625 C 419.28125 764.5468 421.76505 762.0625 424.84375 762.0625 z M 305.6875 778.4375 L 395.5625 778.4375 L 395.5625 812.1875 L 305.6875 812.1875 L 305.6875 778.4375 z M 439.0625 800.5 C 442.1412 800.5 444.625 802.9846 444.625 806.0625 C 444.625 809.1407 442.1412 811.65625 439.0625 811.65625 C 435.9837 811.65625 433.5 809.1407 433.5 806.0625 C 433.5 802.9846 435.9837 800.5 439.0625 800.5 z M 135.03125 800.875 C 138.11005 800.875 140.625 803.3596 140.625 806.4375 C 140.625 809.5157 138.11005 812 135.03125 812 C 131.95255 812 129.46875 809.5157 129.46875 806.4375 C 129.46875 803.3596 131.95255 800.875 135.03125 800.875 z M 72.78125 835.21875 C 75.86005 835.21875 78.34375 837.7346 78.34375 840.8125 C 78.34375 843.8907 75.86005 846.375 72.78125 846.375 C 69.70255 846.375 67.21875 843.8907 67.21875 840.8125 C 67.21875 837.7346 69.70255 835.21875 72.78125 835.21875 z M 501.15625 835.21875 C 504.23505 835.21875 506.71875 837.7346 506.71875 840.8125 C 506.71875 843.8907 504.23505 846.375 501.15625 846.375 C 498.07755 846.375 495.59375 843.8907 495.59375 840.8125 C 495.59375 837.7346 498.07755 835.21875 501.15625 835.21875 z M 72.78125 943.21875 C 75.86005 943.21875 78.34375 945.7346 78.34375 948.8125 C 78.34375 951.8907 75.86005 954.375 72.78125 954.375 C 69.70255 954.375 67.21875 951.8907 67.21875 948.8125 C 67.21875 945.7346 69.70255 943.21875 72.78125 943.21875 z M 501.15625 943.21875 C 504.23505 943.21875 506.71875 945.7346 506.71875 948.8125 C 506.71875 951.8907 504.23505 954.375 501.15625 954.375 C 498.07755 954.375 495.59375 951.8907 495.59375 948.8125 C 495.59375 945.7346 498.07755 943.21875 501.15625 943.21875 z M 135.125 998.0625 C 138.2037 998.0625 140.6875 1000.5781 140.6875 1003.6562 C 140.6875 1006.7343 138.2037 1009.2188 135.125 1009.2188 C 132.0462 1009.2188 129.5625 1006.7343 129.5625 1003.6562 C 129.5625 1000.5781 132.0462 998.0625 135.125 998.0625 z M 439.03125 998.125 C 442.11005 998.125 444.625 1000.6096 444.625 1003.6875 C 444.625 1006.7657 442.11005 1009.2812 439.03125 1009.2812 C 435.95255 1009.2812 433.46875 1006.7657 433.46875 1003.6875 C 433.46875 1000.6096 435.95255 998.125 439.03125 998.125 z M 148.09375 1027.5625 C 151.17255 1027.5625 153.6875 1030.0468 153.6875 1033.125 C 153.6875 1036.2029 151.17255 1038.6875 148.09375 1038.6875 C 145.01505 1038.6875 142.53125 1036.2029 142.53125 1033.125 C 142.53125 1030.0468 145.01505 1027.5625 148.09375 1027.5625 z M 286.96875 1027.5625 C 290.04755 1027.5625 292.53125 1030.0468 292.53125 1033.125 C 292.53125 1036.2029 290.04755 1038.6875 286.96875 1038.6875 C 283.89005 1038.6875 281.40625 1036.2029 281.40625 1033.125 C 281.40625 1030.0468 283.89005 1027.5625 286.96875 1027.5625 z M 424.84375 1027.5625 C 427.92255 1027.5625 430.4375 1030.0468 430.4375 1033.125 C 430.4375 1036.2029 427.92255 1038.6875 424.84375 1038.6875 C 421.76505 1038.6875 419.28125 1036.2029 419.28125 1033.125 C 419.28125 1030.0468 421.76505 1027.5625 424.84375 1027.5625 z M 112.09375 1056.8125 C 115.17255 1056.8125 117.6875 1059.2968 117.6875 1062.375 C 117.6875 1065.4529 115.17255 1067.9375 112.09375 1067.9375 C 109.01505 1067.9375 106.53125 1065.4529 106.53125 1062.375 C 106.53125 1059.2968 109.01505 1056.8125 112.09375 1056.8125 z M 286.96875 1056.8125 C 290.04755 1056.8125 292.53125 1059.2968 292.53125 1062.375 C 292.53125 1065.4529 290.04755 1067.9375 286.96875 1067.9375 C 283.89005 1067.9375 281.40625 1065.4529 281.40625 1062.375 C 281.40625 1059.2968 283.89005 1056.8125 286.96875 1056.8125 z M 460.84375 1056.8125 C 463.92255 1056.8125 466.4375 1059.2968 466.4375 1062.375 C 466.4375 1065.4529 463.92255 1067.9375 460.84375 1067.9375 C 457.76505 1067.9375 455.28125 1065.4529 455.28125 1062.375 C 455.28125 1059.2968 457.76505 1056.8125 460.84375 1056.8125 z "
       transform="translate(0,-567.64025)"
       id="rect3160" />
    <rect
       style="fill:none;stroke:#000000;stroke-width:0.99000001;stroke-miterlimit:4;stroke-opacity:1;stroke-dasharray:none"
       id="rect4317"
       height="90"
       x="626.78571"
       y="1307.5"
       transform="translate(0,-567.64025)"
       width="0" />
    <text
       xml:space="preserve"
       style="font-size:21.69695282px;font-style:normal;font-variant:normal;font-weight:normal;font-stretch:normal;text-align:center;line-height:125%;letter-spacing:0px;word-spacing:0px;writing-mode:lr-tb;text-anchor:middle;fill:#000000;fill-opacity:1;stroke:none;font-family:Sans;-inkscape-font-specification:Sans"
       x="845.14673"
       y="837.48474"
       id="text3036"
       sodipodi:linespacing="125%"><tspan
         sodipodi:role="line"
         x="845.14673"
         y="837.48474"
         id="tspan3040" /></text>
    <g
       id="g6529"
       transform="translate(-59.375006,-469.73656)"
       style="stroke-width:0.09;stroke-miterlimit:4;stroke-dasharray:none">
      <path
         transform="translate(0,-567.64025)"
         id="rect3755"
         d="m 620.46875,1193.3438 0,336.5312 449.03125,0 0,-336.5312 -449.03125,0 z m 34.09375,29.2812 c 2.85807,0 5.1875,2.3294 5.1875,5.1875 0,2.8581 -2.32943,5.1563 -5.1875,5.1563 -2.85807,0 -5.15625,-2.2982 -5.15625,-5.1563 0,-2.8581 2.29818,-5.1875 5.15625,-5.1875 z m 343.71875,0 c 2.85805,0 5.18755,2.3294 5.18755,5.1875 0,2.8581 -2.3295,5.1563 -5.18755,5.1563 -2.85807,0 -5.15625,-2.2982 -5.15625,-5.1563 0,-2.8581 2.29818,-5.1875 5.15625,-5.1875 z m -257.34375,11.7188 252.90625,0 0,93.7812 -252.90625,0 0,-93.7812 z m -86.375,93.5 c 2.85807,0 5.1875,2.3295 5.1875,5.1874 0,2.8582 -2.32943,5.1563 -5.1875,5.1563 -2.85807,0 -5.15625,-2.2981 -5.15625,-5.1563 0,-2.8579 2.29818,-5.1874 5.15625,-5.1874 z m 343.71875,0 c 2.85805,0 5.18755,2.3295 5.18755,5.1874 0,2.8582 -2.3295,5.1563 -5.18755,5.1563 -2.85807,0 -5.15625,-2.2981 -5.15625,-5.1563 0,-2.8579 2.29818,-5.1874 5.15625,-5.1874 z m -366.40625,9.125 c 3.07874,0 5.5625,2.4845 5.5625,5.5624 0,3.0782 -2.48376,5.5626 -5.5625,5.5626 -3.07874,0 -5.5625,-2.4844 -5.5625,-5.5626 0,-3.0779 2.48376,-5.5624 5.5625,-5.5624 z m 426.2812,0 c 3.0789,0 5.5626,2.4845 5.5626,5.5624 0,3.0782 -2.4837,5.5626 -5.5626,5.5626 -3.0786,0 -5.5624,-2.4844 -5.5624,-5.5626 0,-3.0779 2.4838,-5.5624 5.5624,-5.5624 z m -348.2187,56.8437 c 27.08957,0 49.0625,21.9729 49.0625,49.0625 0,27.0896 -21.97293,49.0312 -49.0625,49.0312 -27.08957,0 -49.03125,-21.9416 -49.03125,-49.0312 0,-27.0896 21.94168,-49.0625 49.03125,-49.0625 z m 211.78125,2.5 c 6.41203,0 11.625,5.1818 11.625,11.5937 0,6.4122 -5.21297,11.625 -11.625,11.625 -6.41203,0 -11.59375,-5.2128 -11.59375,-11.625 0,-6.4119 5.18172,-11.5937 11.59375,-11.5937 z m 85.53125,16.5625 c 6.412,0 11.625,5.1816 11.625,11.5938 0,6.4119 -5.213,11.625 -11.625,11.625 -6.412,0 -11.59375,-5.2131 -11.59375,-11.625 0,-6.4122 5.18175,-11.5938 11.59375,-11.5938 z m -162.40625,2.8125 c 6.41203,0 11.59375,5.213 11.59375,11.625 0,6.412 -5.18172,11.5937 -11.59375,11.5937 -6.41203,0 -11.625,-5.1817 -11.625,-11.5937 0,-6.412 5.21297,-11.625 11.625,-11.625 z m 76.875,21.4375 c 6.41203,0 11.625,5.1816 11.625,11.5938 0,6.4119 -5.21297,11.625 -11.625,11.625 -6.41203,0 -11.59375,-5.2131 -11.59375,-11.625 0,-6.4122 5.18172,-11.5938 11.59375,-11.5938 z m -289.84375,7.8438 c 3.07874,0 5.5625,2.4845 5.5625,5.5624 0,3.0782 -2.48376,5.5626 -5.5625,5.5626 -3.07874,0 -5.5625,-2.4844 -5.5625,-5.5626 0,-3.0779 2.48376,-5.5624 5.5625,-5.5624 z m 426.2812,0 c 3.0789,0 5.5626,2.4845 5.5626,5.5624 0,3.0782 -2.4837,5.5626 -5.5626,5.5626 -3.0786,0 -5.5624,-2.4844 -5.5624,-5.5626 0,-3.0779 2.4838,-5.5624 5.5624,-5.5624 z"
         style="fill:none;stroke:#000000;stroke-width:0.09;stroke-miterlimit:4;stroke-opacity:1;stroke-dasharray:none"
         inkscape:connector-curvature="0" />
      <text
         sodipodi:linespacing="125%"
         id="text3028"
         y="813.55573"
         x="910.04321"
         style="font-size:40px;font-style:normal;font-weight:normal;line-height:125%;letter-spacing:0px;word-spacing:0px;fill:#000000;fill-opacity:1;stroke:none;font-family:Sans"
         xml:space="preserve"><tspan
           y="813.55573"
           x="910.04321"
           id="tspan3030"
           sodipodi:role="line">+</tspan></text>
      <text
         sodipodi:linespacing="125%"
         id="text3032"
         y="932.26282"
         x="915.05298"
         style="font-size:40px;font-style:normal;font-weight:normal;line-height:125%;letter-spacing:0px;word-spacing:0px;fill:#000000;fill-opacity:1;stroke:none;font-family:Sans"
         xml:space="preserve"><tspan
           y="932.26282"
           x="915.05298"
           id="tspan3034"
           sodipodi:role="line">-</tspan></text>
      <text
         sodipodi:linespacing="125%"
         id="text3042"
         y="808.38489"
         x="649.59991"
         style="font-size:40px;font-style:normal;font-weight:normal;line-height:125%;letter-spacing:0px;word-spacing:0px;fill:#000000;fill-opacity:1;stroke:none;font-family:Sans"
         xml:space="preserve"><tspan
           id="tspan3046"
           y="808.38489"
           x="649.59991"
           sodipodi:role="line">Cancel</tspan></text>
      <text
         sodipodi:linespacing="125%"
         id="text3078"
         y="831.38763"
         x="1007.4725"
         style="font-size:23.88488388px;font-style:normal;font-variant:normal;font-weight:normal;font-stretch:normal;text-align:center;line-height:125%;letter-spacing:0px;word-spacing:0px;writing-mode:lr-tb;text-anchor:middle;fill:#000000;fill-opacity:1;stroke:none;font-family:Sans;-inkscape-font-specification:Sans"
         xml:space="preserve"><tspan
           y="831.38763"
           x="1007.4725"
           id="tspan3080"
           sodipodi:role="line">Toggle</tspan><tspan
           id="tspan3082"
           y="861.24371"
           x="1007.4725"
           sodipodi:role="line" /><tspan
           id="tspan3084"
           y="891.09985"
           x="1007.4725"
           sodipodi:role="line">Mode</tspan></text>
      <text
         sodipodi:linespacing="125%"
         id="text3086"
         y="834.36188"
         x="844.39954"
         style="font-size:23.88488388px;font-style:normal;font-variant:normal;font-weight:normal;font-stretch:normal;text-align:center;line-height:125%;letter-spacing:0px;word-spacing:0px;writing-mode:lr-tb;text-anchor:middle;fill:#000000;fill-opacity:1;stroke:none;font-family:Sans;-inkscape-font-specification:Sans"
         xml:space="preserve"><tspan
           y="834.36188"
           x="844.39954"
           id="tspan3088"
           sodipodi:role="line">Start</tspan><tspan
           id="tspan3090"
           y="864.21796"
           x="844.39954"
           sodipodi:role="line" /><tspan
           id="tspan3092"
           y="894.0741"
           x="844.39954"
           sodipodi:role="line">Resume</tspan></text>
    </g>
    <path
       style="fill:none;stroke:#000000;stroke-width:0.09;stroke-miterlimit:4;stroke-opacity:1;stroke-dasharray:none"
       d="m 1372.5625,-297.70275 0,1 0,35.1875 0,8.8125 -22.5,0 0,45 22.5,0 0,1 0,16.375 38.3125,0 0,-5.625 10.25,0 0,5.625 29.1562,0 0,-5.625 10.2813,0 0,22.5 -10.2813,0 0,-5.625 -29.1562,0 0,5.625 -10.25,0 0,-5.625 -38.3125,0 0,16.375 -22.5,0 0,45 22.5,0 0,1 0,16.375 38.3125,0 0,-5.625 10.25,0 0,5.625 29.1562,0 0,-5.625 10.2813,0 0,5.625 0,11.25 0,5.625 -10.2813,0 0,-5.625 -29.1562,0 0,5.625 -10.25,0 0,-5.625 -38.3125,0 0,16.375 -22.5,0 0,45 22.5,0 0,1 0,44 -22.5,0 0,45 80.9375,0 0,-39.34375 -5.625,0 0,-10.25 5.625,0 0,-29.15625 -5.625,0 0,-10.25 22.5,0 0,10.25 -5.625,0 0,29.15625 5.625,0 0,10.25 -5.625,0 0,39.34375 127.1875,0 0,-39.34375 -5.625,0 0,-10.25 5.625,0 0,-29.15625 -5.625,0 0,-10.25 5.625,0 11.25,0 5.625,0 0,10.25 -5.625,0 0,29.15625 5.625,0 0,10.25 -5.625,0 0,39.34375 127.0625,0 0,-39.375 -5.625,0 0,-10.25 5.625,0 0,-29.125 -5.625,0 0,-10.25 5.625,0 0,-1 11.25,0 0,1 5.625,0 0,10.25 -5.625,0 0,29.125 5.625,0 0,10.25 -5.625,0 0,39.375 81.0625,0 0,-45 -22.5,0 0,-44 0,-1 22.5,0 0,-45 -22.5,0 0,-16.375 -38.3437,0 0,5.625 -10.25,0 0,-5.625 -29.1563,0 0,5.625 -10.25,0 0,-5.625 0,-11.25 0,-5.625 10.25,0 0,5.625 29.1563,0 0,-5.625 10.25,0 0,5.625 38.3437,0 0,-16.375 0,-1 22.5,0 0,-45 -22.5,0 0,-16.375 -38.3437,0 0,5.625 -10.25,0 0,-5.625 -29.1563,0 0,5.625 -10.25,0 0,-5.625 0,-11.25 0,-5.625 10.25,0 0,5.625 29.1563,0 0,-5.625 10.25,0 0,5.625 38.3437,0 0,-16.375 0,-1 22.5,0 0,-45 -22.5,0 0,-38.09375 0,-5.90625 0,-1 -405,0 z m -11.25,152.875 c 2.8332,0 5.125,2.29178 5.125,5.125 0,2.83322 -2.2918,5.125 -5.125,5.125 -2.8332,0 -5.1563,-2.29178 -5.1563,-5.125 0,-2.83322 2.3231,-5.125 5.1563,-5.125 z m 427.5,0 c 2.8332,0 5.125,2.29178 5.125,5.125 0,2.83322 -2.2918,5.125 -5.125,5.125 -2.8332,0 -5.1563,-2.29178 -5.1563,-5.125 0,-2.83322 2.3231,-5.125 5.1563,-5.125 z"
       id="rect4276"
       inkscape:connector-curvature="0" />
    <g
       id="g4042">
      <path
         id="path3872"
         transform="translate(0,-567.64025)"
         d="M 377.9375 73.9375 L 254.5625 150.21875 L 275.25 183.34375 L 280.03125 180.375 L 285.46875 189.09375 L 280.6875 192.0625 L 296.125 216.8125 L 300.9375 213.84375 L 306.375 222.5625 L 301.59375 225.53125 L 292 231.46875 L 287.21875 234.4375 L 281.78125 225.71875 L 286.53125 222.75 L 271.09375 198 L 266.3125 200.96875 L 260.90625 192.25 L 265.65625 189.28125 L 244.96875 156.15625 L 162.5 207.15625 L 183.28125 240.40625 L 188.09375 237.4375 L 193.5 246.15625 L 188.71875 249.125 L 204.15625 273.875 L 208.96875 270.90625 L 214.40625 279.625 L 209.625 282.59375 L 200.03125 288.53125 L 195.25 291.5 L 189.8125 282.8125 L 194.59375 279.84375 L 179.15625 255.09375 L 174.34375 258.0625 L 168.9375 249.34375 L 173.6875 246.375 L 152.90625 213.0625 L 90.0625 251.9375 L 90.0625 314.9375 L 112.5625 314.9375 L 112.5625 315.9375 L 112.625 315.9375 L 112.625 359.9375 L 112.5625 359.9375 L 90.0625 359.9375 L 90.0625 404.9375 L 112.5625 404.9375 L 112.5625 405.9375 L 112.625 405.9375 L 112.625 422.3125 L 151.0625 422.3125 L 151.0625 416.6875 L 161.34375 416.6875 L 161.34375 422.3125 L 190.625 422.3125 L 190.625 416.6875 L 200.90625 416.6875 L 200.90625 422.3125 L 200.90625 433.5625 L 200.90625 439.1875 L 190.625 439.1875 L 190.625 433.5625 L 161.34375 433.5625 L 161.34375 439.1875 L 151.0625 439.1875 L 151.0625 433.5625 L 112.625 433.5625 L 112.625 449.9375 L 112.5625 449.9375 L 90.0625 449.9375 L 90.0625 494.9375 L 112.5625 494.9375 L 112.5625 495.9375 L 112.625 495.9375 L 112.625 539.9375 L 112.5625 539.9375 L 90.0625 539.9375 L 90.0625 584.9375 L 112.5625 584.9375 L 112.5625 585.9375 L 112.625 585.9375 L 112.625 629.9375 L 180.34375 629.9375 L 180.34375 590.625 L 174.6875 590.625 L 174.6875 580.34375 L 180.34375 580.34375 L 180.34375 551.1875 L 174.6875 551.1875 L 174.6875 540.9375 L 180.34375 540.9375 L 191.625 540.9375 L 197.25 540.9375 L 197.25 551.1875 L 191.625 551.1875 L 191.625 580.34375 L 197.25 580.34375 L 197.25 590.625 L 191.625 590.625 L 191.625 629.9375 L 288.65625 629.9375 L 288.65625 590.625 L 283.03125 590.625 L 283.03125 580.34375 L 288.65625 580.34375 L 288.65625 551.1875 L 283.03125 551.1875 L 283.03125 540.9375 L 288.65625 540.9375 L 299.9375 540.9375 L 305.59375 540.9375 L 305.59375 551.1875 L 299.9375 551.1875 L 299.9375 580.34375 L 305.59375 580.34375 L 305.59375 590.625 L 299.9375 590.625 L 299.9375 629.9375 L 355.375 629.9375 L 355.375 585.9375 L 355.4375 585.9375 L 355.4375 584.9375 L 377.9375 584.9375 L 377.9375 539.9375 L 355.4375 539.9375 L 355.375 539.9375 L 355.375 495.9375 L 355.4375 495.9375 L 355.4375 494.9375 L 377.9375 494.9375 L 377.9375 449.9375 L 355.4375 449.9375 L 355.375 449.9375 L 355.375 405.9375 L 355.4375 405.9375 L 355.4375 404.9375 L 377.9375 404.9375 L 377.9375 359.9375 L 355.4375 359.9375 L 355.375 359.9375 L 355.375 343.5625 L 316.9375 343.5625 L 316.9375 349.1875 L 306.625 349.1875 L 306.625 343.5625 L 277.375 343.5625 L 277.375 349.1875 L 267.09375 349.1875 L 267.09375 343.5625 L 267.09375 332.3125 L 267.09375 326.6875 L 277.375 326.6875 L 277.375 332.3125 L 306.625 332.3125 L 306.625 326.6875 L 316.9375 326.6875 L 316.9375 332.3125 L 355.375 332.3125 L 355.375 315.9375 L 355.4375 315.9375 L 355.4375 314.9375 L 377.9375 314.9375 L 377.9375 269.9375 L 355.4375 269.9375 L 355.375 269.9375 L 355.375 225.9375 L 355.4375 225.9375 L 355.4375 224.9375 L 377.9375 224.9375 L 377.9375 179.9375 L 355.4375 179.9375 L 355.375 179.9375 L 355.375 135.9375 L 355.4375 135.9375 L 355.4375 134.9375 L 377.9375 134.9375 L 377.9375 73.9375 z M 366.65625 197.84375 C 369.49811 197.84375 371.78125 200.13553 371.78125 202.96875 C 371.78125 205.80197 369.49811 208.125 366.65625 208.125 C 363.81439 208.125 361.5 205.80197 361.5 202.96875 C 361.5 200.13553 363.81439 197.84375 366.65625 197.84375 z M 101.34375 377.75 C 104.1856 377.75 106.5 380.07303 106.5 382.90625 C 106.5 385.73947 104.1856 388.03125 101.34375 388.03125 C 98.501889 388.03125 96.21875 385.73947 96.21875 382.90625 C 96.21875 380.07303 98.501889 377.75 101.34375 377.75 z M 296.1875 432.71875 C 307.40536 432.71875 316.5 441.78498 316.5 452.96875 C 316.5 464.15252 307.40536 473.21875 296.1875 473.21875 C 284.96964 473.21875 275.875 464.15252 275.875 452.96875 C 275.875 441.78498 284.96964 432.71875 296.1875 432.71875 z M 101.34375 467.75 C 104.1856 467.75 106.5 470.07303 106.5 472.90625 C 106.5 475.73947 104.1856 478.03125 101.34375 478.03125 C 98.501889 478.03125 96.21875 475.73947 96.21875 472.90625 C 96.21875 470.07303 98.501889 467.75 101.34375 467.75 z M 366.65625 467.84375 C 369.49811 467.84375 371.78125 470.13553 371.78125 472.96875 C 371.78125 475.80197 369.49811 478.125 366.65625 478.125 C 363.81439 478.125 361.5 475.80197 361.5 472.96875 C 361.5 470.13553 363.81439 467.84375 366.65625 467.84375 z "
         style="fill:none;stroke:#000000;stroke-width:0.09;stroke-miterlimit:4;stroke-opacity:1;stroke-dasharray:none" />
      <text
         transform="matrix(0,1,-1,0,0,0)"
         sodipodi:linespacing="125%"
         id="text3016"
         y="-233.38965"
         x="-188.64891"
         style="font-size:28.21859932px;font-style:normal;font-weight:normal;line-height:125%;letter-spacing:0px;word-spacing:0px;fill:#000000;fill-opacity:1;stroke:none;font-family:Sans"
         xml:space="preserve"><tspan
           id="tspan3020"
           y="-233.38965"
           x="-188.64891"
           sodipodi:role="line">Motor Kill</tspan></text>
    </g>
    <path
       style="fill:none;stroke:#000000;stroke-width:0.09;stroke-miterlimit:4;stroke-opacity:1;stroke-dasharray:none"
       d="m 472.5625,-476.20275 0,43.5 -22.5,0 0,45 22.5,0 0,1 0,16.375 38.3125,0 0,-5.625 10.25,0 0,5.625 29.15625,0 0,-5.625 10.28125,0 0,22.5 -10.28125,0 0,-5.625 -29.15625,0 0,5.625 -10.25,0 0,-5.625 -38.3125,0 0,16.375 -22.5,0 0,45 22.5,0 0,1 0,44 -22.5,0 0,45 22.5,0 0,1 0,44 -22.5,0 0,45 22.5,0 0,1 0,16.375 38.3125,0 0,-5.625 10.25,0 0,5.625 29.15625,0 0,-5.625 10.28125,0 0,5.625 0,11.25 0,5.625 -10.28125,0 0,-5.625 -29.15625,0 0,5.625 -10.25,0 0,-5.625 -38.3125,0 0,16.375 -22.5,0 0,45 22.5,0 0,1 0,44 -22.5,0 0,45 80.96875,0 0,-39.3125 -5.625,0 0,-10.28125 5.625,0 0,-29.15625 -5.625,0 0,-10.25 22.5,0 0,10.25 -5.625,0 0,29.15625 5.625,0 0,10.28125 -5.625,0 0,39.3125 127.15625,0 0,-39.3125 -5.625,0 0,-10.28125 5.625,0 0,-29.15625 -5.625,0 0,-10.25 5.625,0 11.25,0 5.625,0 0,10.25 -5.625,0 0,29.15625 5.625,0 0,10.28125 -5.625,0 0,39.3125 127.09375,0 0,-39.3125 -5.625,0 0,-10.28125 5.625,0 0,-29.15625 -5.625,0 0,-10.25 22.5,0 0,10.25 -5.625,0 0,29.15625 5.625,0 0,10.28125 -5.625,0 0,39.3125 81.03125,0 0,-45 -22.5,0 0,-44 0,-1 22.5,0 0,-45 -22.5,0 0,-16.375 -38.3125,0 0,5.625 -10.28125,0 0,-5.625 -29.15625,0 0,5.625 -10.25,0 0,-5.625 0,-11.25 0,-5.625 10.25,0 0,5.625 29.15625,0 0,-5.625 10.28125,0 0,5.625 38.3125,0 0,-16.375 0,-1 22.5,0 0,-45 -22.5,0 0,-44 0,-1 22.5,0 0,-45 -22.5,0 0,-44 0,-1 22.5,0 0,-45 -22.5,0 0,-16.375 -38.3125,0 0,5.625 -10.28125,0 0,-5.625 -29.15625,0 0,5.625 -10.25,0 0,-5.625 0,-11.25 0,-5.625 10.25,0 0,5.625 29.15625,0 0,-5.625 10.28125,0 0,5.625 38.3125,0 0,-16.375 0,-1 22.5,0 0,-45 -22.5,0 0,-43.5 -405,0 z m -11.25,241.40625 c 2.83322,0 5.125,2.29178 5.125,5.125 0,2.83322 -2.29178,5.15625 -5.125,5.15625 -2.83322,0 -5.125,-2.32303 -5.125,-5.15625 0,-2.83322 2.29178,-5.125 5.125,-5.125 z m 427.5,0 c 2.8333,0 5.125,2.29178 5.125,5.125 0,2.83322 -2.2917,5.15625 -5.125,5.15625 -2.8332,0 -5.125,-2.32303 -5.125,-5.15625 0,-2.83322 2.2918,-5.125 5.125,-5.125 z"
       id="rect4276-3"
       inkscape:connector-curvature="0" />
    <path
       style="fill:none;stroke:#000000;stroke-width:0.09;stroke-miterlimit:4;stroke-opacity:1;stroke-dasharray:none"
       d="M 990.0625 73.9375 L 990.0625 134.9375 L 1012.5625 134.9375 L 1012.5625 135.9375 L 1012.625 135.9375 L 1012.625 179.9375 L 1012.5625 179.9375 L 990.0625 179.9375 L 990.0625 224.9375 L 1012.5625 224.9375 L 1012.5625 225.9375 L 1012.625 225.9375 L 1012.625 269.9375 L 1012.5625 269.9375 L 990.0625 269.9375 L 990.0625 314.9375 L 1012.5625 314.9375 L 1012.5625 315.9375 L 1012.625 315.9375 L 1012.625 332.3125 L 1051.0625 332.3125 L 1051.0625 326.6875 L 1061.3438 326.6875 L 1061.3438 332.3125 L 1090.5938 332.3125 L 1090.5938 326.6875 L 1100.9062 326.6875 L 1100.9062 332.3125 L 1100.9062 343.5625 L 1100.9062 349.1875 L 1090.5938 349.1875 L 1090.5938 343.5625 L 1061.3438 343.5625 L 1061.3438 349.1875 L 1051.0625 349.1875 L 1051.0625 343.5625 L 1012.625 343.5625 L 1012.625 359.9375 L 1012.5625 359.9375 L 990.0625 359.9375 L 990.0625 404.9375 L 1012.5625 404.9375 L 1012.5625 405.9375 L 1012.625 405.9375 L 1012.625 449.9375 L 1012.5625 449.9375 L 990.0625 449.9375 L 990.0625 494.9375 L 1012.5625 494.9375 L 1012.5625 495.9375 L 1012.625 495.9375 L 1012.625 539.9375 L 1012.5625 539.9375 L 990.0625 539.9375 L 990.0625 584.9375 L 1012.5625 584.9375 L 1012.5625 585.9375 L 1012.625 585.9375 L 1012.625 629.9375 L 1068.0625 629.9375 L 1068.0625 590.625 L 1062.4062 590.625 L 1062.4062 580.34375 L 1068.0625 580.34375 L 1068.0625 551.1875 L 1062.4062 551.1875 L 1062.4062 540.9375 L 1084.9688 540.9375 L 1084.9688 551.1875 L 1079.3438 551.1875 L 1079.3438 580.34375 L 1084.9688 580.34375 L 1084.9688 590.625 L 1079.3438 590.625 L 1079.3438 629.9375 L 1176.375 629.9375 L 1176.375 590.625 L 1170.75 590.625 L 1170.75 580.34375 L 1176.375 580.34375 L 1176.375 551.1875 L 1170.75 551.1875 L 1170.75 540.9375 L 1176.375 540.9375 L 1187.6562 540.9375 L 1193.3125 540.9375 L 1193.3125 551.1875 L 1187.6562 551.1875 L 1187.6562 580.34375 L 1193.3125 580.34375 L 1193.3125 590.625 L 1187.6562 590.625 L 1187.6562 629.9375 L 1255.375 629.9375 L 1255.375 585.9375 L 1255.4375 585.9375 L 1255.4375 584.9375 L 1277.9375 584.9375 L 1277.9375 539.9375 L 1255.4375 539.9375 L 1255.375 539.9375 L 1255.375 495.9375 L 1255.4375 495.9375 L 1255.4375 494.9375 L 1277.9375 494.9375 L 1277.9375 449.9375 L 1255.4375 449.9375 L 1255.375 449.9375 L 1255.375 433.5625 L 1216.9062 433.5625 L 1216.9062 439.1875 L 1206.625 439.1875 L 1206.625 433.5625 L 1177.375 433.5625 L 1177.375 439.1875 L 1167.0938 439.1875 L 1167.0938 433.5625 L 1167.0938 422.3125 L 1167.0938 416.6875 L 1177.375 416.6875 L 1177.375 422.3125 L 1206.625 422.3125 L 1206.625 416.6875 L 1216.9062 416.6875 L 1216.9062 422.3125 L 1255.375 422.3125 L 1255.375 405.9375 L 1255.4375 405.9375 L 1255.4375 404.9375 L 1277.9375 404.9375 L 1277.9375 359.9375 L 1255.4375 359.9375 L 1255.375 359.9375 L 1255.375 315.9375 L 1255.4375 315.9375 L 1255.4375 314.9375 L 1277.9375 314.9375 L 1277.9375 251.9375 L 1215.0625 213.0625 L 1194.2812 246.375 L 1199.0625 249.34375 L 1193.6562 258.0625 L 1188.8125 255.0625 L 1173.375 279.84375 L 1178.1562 282.8125 L 1172.75 291.5 L 1153.5938 279.625 L 1159 270.90625 L 1163.8125 273.90625 L 1179.25 249.125 L 1174.4688 246.15625 L 1179.9062 237.4375 L 1184.7188 240.40625 L 1205.5 207.15625 L 1123 156.15625 L 1102.3125 189.28125 L 1107.0938 192.25 L 1101.6562 200.96875 L 1096.875 198 L 1081.4375 222.75 L 1086.1875 225.71875 L 1080.7812 234.4375 L 1075.9688 231.46875 L 1066.375 225.53125 L 1061.625 222.5625 L 1067.0312 213.84375 L 1071.8438 216.8125 L 1087.2812 192.0625 L 1082.5 189.09375 L 1087.9688 180.375 L 1092.75 183.34375 L 1113.4375 150.21875 L 990.0625 73.9375 z M 1001.3438 197.84375 C 1004.1856 197.84375 1006.5 200.13553 1006.5 202.96875 C 1006.5 205.80197 1004.1855 208.125 1001.3438 208.125 C 998.5019 208.125 996.21875 205.80197 996.21875 202.96875 C 996.21875 200.13553 998.5019 197.84375 1001.3438 197.84375 z M 1266.6562 377.75 C 1269.4981 377.75 1271.7812 380.07303 1271.7812 382.90625 C 1271.7812 385.73947 1269.4981 388.03125 1266.6562 388.03125 C 1263.8145 388.03125 1261.5 385.73947 1261.5 382.90625 C 1261.5 380.07303 1263.8145 377.75 1266.6562 377.75 z M 1266.6562 467.75 C 1269.4981 467.75 1271.7812 470.07303 1271.7812 472.90625 C 1271.7812 475.73947 1269.4981 478.03125 1266.6562 478.03125 C 1263.8145 478.03125 1261.5 475.73947 1261.5 472.90625 C 1261.5 470.07303 1263.8145 467.75 1266.6562 467.75 z M 1001.3438 467.84375 C 1004.1856 467.84375 1006.5 470.13553 1006.5 472.96875 C 1006.5 475.80197 1004.1855 478.125 1001.3438 478.125 C 998.5019 478.125 996.21875 475.80197 996.21875 472.96875 C 996.21875 470.13553 998.5019 467.84375 1001.3438 467.84375 z "
       transform="translate(0,-567.64025)"
       id="rect4585-8-5" />
  </g>
</svg>
